<?xml version="1.0" encoding="UTF-8" standalone="no"?>
<!DOCTYPE svg PUBLIC "-//W3C//DTD SVG 1.1//EN"
 "http://www.w3.org/Graphics/SVG/1.1/DTD/svg11.dtd">
<!-- Generated by graphviz version 5.0.0 (20220707.1540)
 -->
<!-- Title: dependencies Pages: 1 -->
<svg width="1738pt" height="174pt"
 viewBox="0.00 0.00 1738.00 173.80" xmlns="http://www.w3.org/2000/svg" xmlns:xlink="http://www.w3.org/1999/xlink">
<g id="graph0" class="graph" transform="scale(1 1) rotate(0) translate(4 169.8)">
<title>dependencies</title>
<polygon fill="white" stroke="transparent" points="-4,4 -4,-169.8 1734,-169.8 1734,4 -4,4"/>
<text text-anchor="middle" x="865" y="-8.2" font-family="sans-serif" font-size="14.00">dependencies</text>
<g id="clust1" class="cluster">
<title>cluster_PageLayoutsModule</title>
<polygon fill="none" stroke="black" stroke-dasharray="1,5" points="8,-32.8 8,-157.8 1722,-157.8 1722,-32.8 8,-32.8"/>
</g>
<g id="clust2" class="cluster">
<title>cluster_PageLayoutsModule_declarations</title>
<polygon fill="none" stroke="black" points="554,-40.8 554,-92.8 1714,-92.8 1714,-40.8 554,-40.8"/>
</g>
<g id="clust9" class="cluster">
<title>cluster_PageLayoutsModule_imports</title>
<polygon fill="none" stroke="black" points="16,-40.8 16,-92.8 546,-92.8 546,-40.8 16,-40.8"/>
</g>
<!-- FullWidthCardComponent -->
<g id="node1" class="node">
<title>FullWidthCardComponent</title>
<polygon fill="#ffffb3" stroke="black" points="1706.1,-84.8 1539.9,-84.8 1539.9,-48.8 1706.1,-48.8 1706.1,-84.8"/>
<text text-anchor="middle" x="1623" y="-62.6" font-family="Times,serif" font-size="14.00">FullWidthCardComponent</text>
</g>
<!-- PageLayoutsModule -->
<g id="node7" class="node">
<title>PageLayoutsModule</title>
<polygon fill="#8dd3c7" stroke="black" points="915.87,-149.8 912.87,-153.8 891.87,-153.8 888.87,-149.8 784.13,-149.8 784.13,-113.8 915.87,-113.8 915.87,-149.8"/>
<text text-anchor="middle" x="850" y="-127.6" font-family="Times,serif" font-size="14.00">PageLayoutsModule</text>
</g>
<!-- FullWidthCardComponent&#45;&gt;PageLayoutsModule -->
<g id="edge1" class="edge">
<title>FullWidthCardComponent&#45;&gt;PageLayoutsModule</title>
<path fill="none" stroke="black" d="M1623,-84.81C1623,-107.29 1623,-142.8 1623,-142.8 1623,-142.8 925.91,-142.8 925.91,-142.8"/>
<polygon fill="black" stroke="black" points="925.91,-139.3 915.91,-142.8 925.91,-146.3 925.91,-139.3"/>
</g>
<!-- FullWidthCardTabComponent -->
<g id="node2" class="node">
<title>FullWidthCardTabComponent</title>
<polygon fill="#ffffb3" stroke="black" points="1521.87,-84.8 1334.13,-84.8 1334.13,-48.8 1521.87,-48.8 1521.87,-84.8"/>
<text text-anchor="middle" x="1428" y="-62.6" font-family="Times,serif" font-size="14.00">FullWidthCardTabComponent</text>
</g>
<!-- FullWidthCardTabComponent&#45;&gt;PageLayoutsModule -->
<g id="edge2" class="edge">
<title>FullWidthCardTabComponent&#45;&gt;PageLayoutsModule</title>
<path fill="none" stroke="black" d="M1428,-84.93C1428,-105.37 1428,-135.8 1428,-135.8 1428,-135.8 926.02,-135.8 926.02,-135.8"/>
<polygon fill="black" stroke="black" points="926.02,-132.3 916.02,-135.8 926.02,-139.3 926.02,-132.3"/>
</g>
<!-- FullWidthPlainComponent -->
<g id="node3" class="node">
<title>FullWidthPlainComponent</title>
<polygon fill="#ffffb3" stroke="black" points="1315.67,-84.8 1148.33,-84.8 1148.33,-48.8 1315.67,-48.8 1315.67,-84.8"/>
<text text-anchor="middle" x="1232" y="-62.6" font-family="Times,serif" font-size="14.00">FullWidthPlainComponent</text>
</g>
<!-- FullWidthPlainComponent&#45;&gt;PageLayoutsModule -->
<g id="edge3" class="edge">
<title>FullWidthPlainComponent&#45;&gt;PageLayoutsModule</title>
<path fill="none" stroke="black" d="M1232,-85.07C1232,-103.36 1232,-128.8 1232,-128.8 1232,-128.8 926.1,-128.8 926.1,-128.8"/>
<polygon fill="black" stroke="black" points="926.1,-125.3 916.1,-128.8 926.1,-132.3 926.1,-125.3"/>
</g>
<!-- LeftSidebarCardComponent -->
<g id="node4" class="node">
<title>LeftSidebarCardComponent</title>
<polygon fill="#ffffb3" stroke="black" points="1130.13,-84.8 955.87,-84.8 955.87,-48.8 1130.13,-48.8 1130.13,-84.8"/>
<text text-anchor="middle" x="1043" y="-62.6" font-family="Times,serif" font-size="14.00">LeftSidebarCardComponent</text>
</g>
<!-- LeftSidebarCardComponent&#45;&gt;PageLayoutsModule -->
<g id="edge4" class="edge">
<title>LeftSidebarCardComponent&#45;&gt;PageLayoutsModule</title>
<path fill="none" stroke="black" d="M1043,-84.81C1043,-100.85 1043,-121.8 1043,-121.8 1043,-121.8 925.88,-121.8 925.88,-121.8"/>
<polygon fill="black" stroke="black" points="925.88,-118.3 915.88,-121.8 925.88,-125.3 925.88,-118.3"/>
</g>
<!-- LeftSidebarPlainComponent -->
<g id="node5" class="node">
<title>LeftSidebarPlainComponent</title>
<polygon fill="#ffffb3" stroke="black" points="938.19,-84.8 761.81,-84.8 761.81,-48.8 938.19,-48.8 938.19,-84.8"/>
<text text-anchor="middle" x="850" y="-62.6" font-family="Times,serif" font-size="14.00">LeftSidebarPlainComponent</text>
</g>
<!-- LeftSidebarPlainComponent&#45;&gt;PageLayoutsModule -->
<g id="edge5" class="edge">
<title>LeftSidebarPlainComponent&#45;&gt;PageLayoutsModule</title>
<path fill="none" stroke="black" d="M850,-84.91C850,-84.91 850,-103.79 850,-103.79"/>
<polygon fill="black" stroke="black" points="846.5,-103.79 850,-113.79 853.5,-103.79 846.5,-103.79"/>
</g>
<!-- RightSidebarCardComponent -->
<g id="node6" class="node">
<title>RightSidebarCardComponent</title>
<polygon fill="#ffffb3" stroke="black" points="744.43,-84.8 561.57,-84.8 561.57,-48.8 744.43,-48.8 744.43,-84.8"/>
<text text-anchor="middle" x="653" y="-62.6" font-family="Times,serif" font-size="14.00">RightSidebarCardComponent</text>
</g>
<!-- RightSidebarCardComponent&#45;&gt;PageLayoutsModule -->
<g id="edge6" class="edge">
<title>RightSidebarCardComponent&#45;&gt;PageLayoutsModule</title>
<path fill="none" stroke="black" d="M653,-84.81C653,-100.85 653,-121.8 653,-121.8 653,-121.8 774.13,-121.8 774.13,-121.8"/>
<polygon fill="black" stroke="black" points="774.13,-125.3 784.13,-121.8 774.13,-118.3 774.13,-125.3"/>
</g>
<!-- PageLayoutsRoutingModule -->
<g id="node8" class="node">
<title>PageLayoutsRoutingModule</title>
<polygon fill="#8dd3c7" stroke="black" points="538.49,-84.8 535.49,-88.8 514.49,-88.8 511.49,-84.8 361.51,-84.8 361.51,-48.8 538.49,-48.8 538.49,-84.8"/>
<text text-anchor="middle" x="450" y="-62.6" font-family="Times,serif" font-size="14.00">PageLayoutsRoutingModule</text>
</g>
<!-- PageLayoutsRoutingModule&#45;&gt;PageLayoutsModule -->
<g id="edge7" class="edge">
<title>PageLayoutsRoutingModule&#45;&gt;PageLayoutsModule</title>
<path fill="none" stroke="black" d="M450,-85.07C450,-103.36 450,-128.8 450,-128.8 450,-128.8 773.95,-128.8 773.95,-128.8"/>
<polygon fill="black" stroke="black" points="773.95,-132.3 783.95,-128.8 773.95,-125.3 773.95,-132.3"/>
</g>
<!-- SharedDirectivesModule -->
<g id="node9" class="node">
<title>SharedDirectivesModule</title>
<polygon fill="#8dd3c7" stroke="black" points="343.96,-84.8 340.96,-88.8 319.96,-88.8 316.96,-84.8 188.04,-84.8 188.04,-48.8 343.96,-48.8 343.96,-84.8"/>
<text text-anchor="middle" x="266" y="-62.6" font-family="Times,serif" font-size="14.00">SharedDirectivesModule</text>
</g>
<!-- SharedDirectivesModule&#45;&gt;PageLayoutsModule -->
<g id="edge8" class="edge">
<title>SharedDirectivesModule&#45;&gt;PageLayoutsModule</title>
<path fill="none" stroke="black" d="M266,-84.93C266,-105.37 266,-135.8 266,-135.8 266,-135.8 773.86,-135.8 773.86,-135.8"/>
<polygon fill="black" stroke="black" points="773.86,-139.3 783.86,-135.8 773.86,-132.3 773.86,-139.3"/>
</g>
<!-- SharedMaterialModule -->
<g id="node10" class="node">
<title>SharedMaterialModule</title>
<polygon fill="#8dd3c7" stroke="black" points="169.85,-84.8 166.85,-88.8 145.85,-88.8 142.85,-84.8 24.15,-84.8 24.15,-48.8 169.85,-48.8 169.85,-84.8"/>
<text text-anchor="middle" x="97" y="-62.6" font-family="Times,serif" font-size="14.00">SharedMaterialModule</text>
</g>
<!-- SharedMaterialModule&#45;&gt;PageLayoutsModule -->
<g id="edge9" class="edge">
<title>SharedMaterialModule&#45;&gt;PageLayoutsModule</title>
<path fill="none" stroke="black" d="M97,-84.81C97,-107.29 97,-142.8 97,-142.8 97,-142.8 773.84,-142.8 773.84,-142.8"/>
<polygon fill="black" stroke="black" points="773.84,-146.3 783.84,-142.8 773.84,-139.3 773.84,-146.3"/>
</g>
</g>
</svg>
