<?xml version="1.0" encoding="UTF-8" standalone="no"?>
<!DOCTYPE svg PUBLIC "-//W3C//DTD SVG 1.1//EN"
 "http://www.w3.org/Graphics/SVG/1.1/DTD/svg11.dtd">
<!-- Generated by graphviz version 5.0.0 (20220707.1540)
 -->
<!-- Title: dependencies Pages: 1 -->
<svg width="522pt" height="174pt"
 viewBox="0.00 0.00 522.00 173.80" xmlns="http://www.w3.org/2000/svg" xmlns:xlink="http://www.w3.org/1999/xlink">
<g id="graph0" class="graph" transform="scale(1 1) rotate(0) translate(4 169.8)">
<title>dependencies</title>
<polygon fill="white" stroke="transparent" points="-4,4 -4,-169.8 518,-169.8 518,4 -4,4"/>
<text text-anchor="middle" x="257" y="-8.2" font-family="sans-serif" font-size="14.00">dependencies</text>
<g id="clust1" class="cluster">
<title>cluster_AppDialogsModule</title>
<polygon fill="none" stroke="black" stroke-dasharray="1,5" points="8,-32.8 8,-157.8 506,-157.8 506,-32.8 8,-32.8"/>
</g>
<g id="clust2" class="cluster">
<title>cluster_AppDialogsModule_declarations</title>
<polygon fill="none" stroke="black" points="138,-40.8 138,-92.8 498,-92.8 498,-40.8 138,-40.8"/>
</g>
<g id="clust5" class="cluster">
<title>cluster_AppDialogsModule_imports</title>
<polygon fill="none" stroke="black" points="16,-40.8 16,-92.8 130,-92.8 130,-40.8 16,-40.8"/>
</g>
<!-- ConfirmDialogComponent -->
<g id="node1" class="node">
<title>ConfirmDialogComponent</title>
<polygon fill="#ffffb3" stroke="black" points="490.38,-84.8 323.62,-84.8 323.62,-48.8 490.38,-48.8 490.38,-84.8"/>
<text text-anchor="middle" x="407" y="-62.6" font-family="Times,serif" font-size="14.00">ConfirmDialogComponent</text>
</g>
<!-- AppDialogsModule -->
<g id="node3" class="node">
<title>AppDialogsModule</title>
<polygon fill="#8dd3c7" stroke="black" points="289.71,-149.8 286.71,-153.8 265.71,-153.8 262.71,-149.8 162.29,-149.8 162.29,-113.8 289.71,-113.8 289.71,-149.8"/>
<text text-anchor="middle" x="226" y="-127.6" font-family="Times,serif" font-size="14.00">AppDialogsModule</text>
</g>
<!-- ConfirmDialogComponent&#45;&gt;AppDialogsModule -->
<g id="edge1" class="edge">
<title>ConfirmDialogComponent&#45;&gt;AppDialogsModule</title>
<path fill="none" stroke="black" d="M407,-84.91C407,-104.14 407,-131.8 407,-131.8 407,-131.8 299.81,-131.8 299.81,-131.8"/>
<polygon fill="black" stroke="black" points="299.81,-128.3 289.81,-131.8 299.81,-135.3 299.81,-128.3"/>
</g>
<!-- LoaderDialogComponent -->
<g id="node2" class="node">
<title>LoaderDialogComponent</title>
<polygon fill="#ffffb3" stroke="black" points="305.58,-84.8 146.42,-84.8 146.42,-48.8 305.58,-48.8 305.58,-84.8"/>
<text text-anchor="middle" x="226" y="-62.6" font-family="Times,serif" font-size="14.00">LoaderDialogComponent</text>
</g>
<!-- LoaderDialogComponent&#45;&gt;AppDialogsModule -->
<g id="edge2" class="edge">
<title>LoaderDialogComponent&#45;&gt;AppDialogsModule</title>
<path fill="none" stroke="black" d="M226,-84.91C226,-84.91 226,-103.79 226,-103.79"/>
<polygon fill="black" stroke="black" points="222.5,-103.79 226,-113.79 229.5,-103.79 222.5,-103.79"/>
</g>
<!-- SharedModule -->
<g id="node4" class="node">
<title>SharedModule</title>
<polygon fill="#8dd3c7" stroke="black" points="122.43,-84.8 119.43,-88.8 98.43,-88.8 95.43,-84.8 23.57,-84.8 23.57,-48.8 122.43,-48.8 122.43,-84.8"/>
<text text-anchor="middle" x="73" y="-62.6" font-family="Times,serif" font-size="14.00">SharedModule</text>
</g>
<!-- SharedModule&#45;&gt;AppDialogsModule -->
<g id="edge3" class="edge">
<title>SharedModule&#45;&gt;AppDialogsModule</title>
<path fill="none" stroke="black" d="M73,-84.91C73,-104.14 73,-131.8 73,-131.8 73,-131.8 152,-131.8 152,-131.8"/>
<polygon fill="black" stroke="black" points="152,-135.3 162,-131.8 152,-128.3 152,-135.3"/>
</g>
</g>
</svg>
