<?xml version="1.0" encoding="UTF-8" standalone="no"?>
<!DOCTYPE svg PUBLIC "-//W3C//DTD SVG 1.1//EN"
 "http://www.w3.org/Graphics/SVG/1.1/DTD/svg11.dtd">
<!-- Generated by graphviz version 5.0.0 (20220707.1540)
 -->
<!-- Title: dependencies Pages: 1 -->
<svg width="687pt" height="174pt"
 viewBox="0.00 0.00 687.00 173.80" xmlns="http://www.w3.org/2000/svg" xmlns:xlink="http://www.w3.org/1999/xlink">
<g id="graph0" class="graph" transform="scale(1 1) rotate(0) translate(4 169.8)">
<title>dependencies</title>
<polygon fill="white" stroke="transparent" points="-4,4 -4,-169.8 683,-169.8 683,4 -4,4"/>
<text text-anchor="middle" x="339.5" y="-8.2" font-family="sans-serif" font-size="14.00">dependencies</text>
<g id="clust1" class="cluster">
<title>cluster_AppFormsModule</title>
<polygon fill="none" stroke="black" stroke-dasharray="1,5" points="8,-32.8 8,-157.8 671,-157.8 671,-32.8 8,-32.8"/>
</g>
<g id="clust2" class="cluster">
<title>cluster_AppFormsModule_declarations</title>
<polygon fill="none" stroke="black" points="16,-40.8 16,-92.8 663,-92.8 663,-40.8 16,-40.8"/>
</g>
<!-- BasicFormComponent -->
<g id="node1" class="node">
<title>BasicFormComponent</title>
<polygon fill="#ffffb3" stroke="black" points="655.27,-84.8 512.73,-84.8 512.73,-48.8 655.27,-48.8 655.27,-84.8"/>
<text text-anchor="middle" x="584" y="-62.6" font-family="Times,serif" font-size="14.00">BasicFormComponent</text>
</g>
<!-- AppFormsModule -->
<g id="node5" class="node">
<title>AppFormsModule</title>
<polygon fill="#8dd3c7" stroke="black" points="394.95,-149.8 391.95,-153.8 370.95,-153.8 367.95,-149.8 275.05,-149.8 275.05,-113.8 394.95,-113.8 394.95,-149.8"/>
<text text-anchor="middle" x="335" y="-127.6" font-family="Times,serif" font-size="14.00">AppFormsModule</text>
</g>
<!-- BasicFormComponent&#45;&gt;AppFormsModule -->
<g id="edge1" class="edge">
<title>BasicFormComponent&#45;&gt;AppFormsModule</title>
<path fill="none" stroke="black" d="M584,-84.91C584,-104.14 584,-131.8 584,-131.8 584,-131.8 404.96,-131.8 404.96,-131.8"/>
<polygon fill="black" stroke="black" points="404.96,-128.3 394.96,-131.8 404.96,-135.3 404.96,-128.3"/>
</g>
<!-- FileUploadComponent -->
<g id="node2" class="node">
<title>FileUploadComponent</title>
<polygon fill="#ffffb3" stroke="black" points="494.32,-84.8 349.68,-84.8 349.68,-48.8 494.32,-48.8 494.32,-84.8"/>
<text text-anchor="middle" x="422" y="-62.6" font-family="Times,serif" font-size="14.00">FileUploadComponent</text>
</g>
<!-- FileUploadComponent&#45;&gt;AppFormsModule -->
<g id="edge2" class="edge">
<title>FileUploadComponent&#45;&gt;AppFormsModule</title>
<path fill="none" stroke="black" d="M372.28,-84.91C372.28,-84.91 372.28,-103.79 372.28,-103.79"/>
<polygon fill="black" stroke="black" points="368.78,-103.79 372.28,-113.79 375.78,-103.79 368.78,-103.79"/>
</g>
<!-- RichTextEditorComponent -->
<g id="node3" class="node">
<title>RichTextEditorComponent</title>
<polygon fill="#ffffb3" stroke="black" points="332.42,-84.8 163.58,-84.8 163.58,-48.8 332.42,-48.8 332.42,-84.8"/>
<text text-anchor="middle" x="248" y="-62.6" font-family="Times,serif" font-size="14.00">RichTextEditorComponent</text>
</g>
<!-- RichTextEditorComponent&#45;&gt;AppFormsModule -->
<g id="edge3" class="edge">
<title>RichTextEditorComponent&#45;&gt;AppFormsModule</title>
<path fill="none" stroke="black" d="M303.74,-84.91C303.74,-84.91 303.74,-103.79 303.74,-103.79"/>
<polygon fill="black" stroke="black" points="300.24,-103.79 303.74,-113.79 307.24,-103.79 300.24,-103.79"/>
</g>
<!-- WizardComponent -->
<g id="node4" class="node">
<title>WizardComponent</title>
<polygon fill="#ffffb3" stroke="black" points="146.03,-84.8 23.97,-84.8 23.97,-48.8 146.03,-48.8 146.03,-84.8"/>
<text text-anchor="middle" x="85" y="-62.6" font-family="Times,serif" font-size="14.00">WizardComponent</text>
</g>
<!-- WizardComponent&#45;&gt;AppFormsModule -->
<g id="edge4" class="edge">
<title>WizardComponent&#45;&gt;AppFormsModule</title>
<path fill="none" stroke="black" d="M85,-84.91C85,-104.14 85,-131.8 85,-131.8 85,-131.8 265.12,-131.8 265.12,-131.8"/>
<polygon fill="black" stroke="black" points="265.12,-135.3 275.12,-131.8 265.12,-128.3 265.12,-135.3"/>
</g>
</g>
</svg>
