<?xml version="1.0" encoding="UTF-8" standalone="no"?>
<!DOCTYPE svg PUBLIC "-//W3C//DTD SVG 1.1//EN"
 "http://www.w3.org/Graphics/SVG/1.1/DTD/svg11.dtd">
<!-- Generated by graphviz version 5.0.0 (20220707.1540)
 -->
<!-- Title: dependencies Pages: 1 -->
<svg width="874pt" height="247pt"
 viewBox="0.00 0.00 874.00 246.80" xmlns="http://www.w3.org/2000/svg" xmlns:xlink="http://www.w3.org/1999/xlink">
<g id="graph0" class="graph" transform="scale(1 1) rotate(0) translate(4 242.8)">
<title>dependencies</title>
<polygon fill="white" stroke="transparent" points="-4,4 -4,-242.8 870,-242.8 870,4 -4,4"/>
<text text-anchor="middle" x="433" y="-8.2" font-family="sans-serif" font-size="14.00">dependencies</text>
<g id="clust1" class="cluster">
<title>cluster_ChartExamplesModule</title>
<polygon fill="none" stroke="black" stroke-dasharray="1,5" points="8,-32.8 8,-230.8 858,-230.8 858,-32.8 8,-32.8"/>
</g>
<g id="clust2" class="cluster">
<title>cluster_ChartExamplesModule_declarations</title>
<polygon fill="none" stroke="black" points="186,-40.8 186,-92.8 850,-92.8 850,-40.8 186,-40.8"/>
</g>
<g id="clust8" class="cluster">
<title>cluster_ChartExamplesModule_exports</title>
<polygon fill="none" stroke="black" points="94,-170.8 94,-222.8 772,-222.8 772,-170.8 94,-170.8"/>
</g>
<g id="clust7" class="cluster">
<title>cluster_ChartExamplesModule_imports</title>
<polygon fill="none" stroke="black" points="16,-40.8 16,-92.8 178,-92.8 178,-40.8 16,-40.8"/>
</g>
<!-- EchartBarComponent -->
<g id="node1" class="node">
<title>EchartBarComponent</title>
<polygon fill="#ffffb3" stroke="black" points="842.08,-84.8 703.92,-84.8 703.92,-48.8 842.08,-48.8 842.08,-84.8"/>
<text text-anchor="middle" x="773" y="-62.6" font-family="Times,serif" font-size="14.00">EchartBarComponent</text>
</g>
<!-- ChartExamplesModule -->
<g id="node5" class="node">
<title>ChartExamplesModule</title>
<polygon fill="#8dd3c7" stroke="black" points="504.86,-149.8 501.86,-153.8 480.86,-153.8 477.86,-149.8 359.14,-149.8 359.14,-113.8 504.86,-113.8 504.86,-149.8"/>
<text text-anchor="middle" x="432" y="-127.6" font-family="Times,serif" font-size="14.00">ChartExamplesModule</text>
</g>
<!-- EchartBarComponent&#45;&gt;ChartExamplesModule -->
<g id="edge1" class="edge">
<title>EchartBarComponent&#45;&gt;ChartExamplesModule</title>
<path fill="none" stroke="black" d="M733.88,-84.91C733.88,-104.14 733.88,-131.8 733.88,-131.8 733.88,-131.8 515.08,-131.8 515.08,-131.8"/>
<polygon fill="black" stroke="black" points="515.08,-128.3 505.08,-131.8 515.08,-135.3 515.08,-128.3"/>
</g>
<!-- EchartHeatmapComponent -->
<g id="node2" class="node">
<title>EchartHeatmapComponent</title>
<polygon fill="#ffffb3" stroke="black" points="686.39,-84.8 517.61,-84.8 517.61,-48.8 686.39,-48.8 686.39,-84.8"/>
<text text-anchor="middle" x="602" y="-62.6" font-family="Times,serif" font-size="14.00">EchartHeatmapComponent</text>
</g>
<!-- EchartHeatmapComponent&#45;&gt;ChartExamplesModule -->
<g id="edge2" class="edge">
<title>EchartHeatmapComponent&#45;&gt;ChartExamplesModule</title>
<path fill="none" stroke="black" d="M560.88,-84.83C560.88,-101.2 560.88,-122.8 560.88,-122.8 560.88,-122.8 515.1,-122.8 515.1,-122.8"/>
<polygon fill="black" stroke="black" points="515.1,-119.3 505.1,-122.8 515.1,-126.3 515.1,-119.3"/>
</g>
<!-- EchartPieComponent -->
<g id="node3" class="node">
<title>EchartPieComponent</title>
<polygon fill="#ffffb3" stroke="black" points="499.75,-84.8 364.25,-84.8 364.25,-48.8 499.75,-48.8 499.75,-84.8"/>
<text text-anchor="middle" x="432" y="-62.6" font-family="Times,serif" font-size="14.00">EchartPieComponent</text>
</g>
<!-- EchartPieComponent&#45;&gt;ChartExamplesModule -->
<g id="edge3" class="edge">
<title>EchartPieComponent&#45;&gt;ChartExamplesModule</title>
<path fill="none" stroke="black" d="M432,-84.91C432,-84.91 432,-103.79 432,-103.79"/>
<polygon fill="black" stroke="black" points="428.5,-103.79 432,-113.79 435.5,-103.79 428.5,-103.79"/>
</g>
<!-- EchartRadarComponent -->
<g id="node4" class="node">
<title>EchartRadarComponent</title>
<polygon fill="#ffffb3" stroke="black" points="345.79,-84.8 194.21,-84.8 194.21,-48.8 345.79,-48.8 345.79,-84.8"/>
<text text-anchor="middle" x="270" y="-62.6" font-family="Times,serif" font-size="14.00">EchartRadarComponent</text>
</g>
<!-- EchartRadarComponent&#45;&gt;ChartExamplesModule -->
<g id="edge4" class="edge">
<title>EchartRadarComponent&#45;&gt;ChartExamplesModule</title>
<path fill="none" stroke="black" d="M310.01,-84.83C310.01,-101.2 310.01,-122.8 310.01,-122.8 310.01,-122.8 348.92,-122.8 348.92,-122.8"/>
<polygon fill="black" stroke="black" points="348.92,-126.3 358.92,-122.8 348.92,-119.3 348.92,-126.3"/>
</g>
<!-- EchartBarComponent  -->
<g id="node7" class="node">
<title>EchartBarComponent </title>
<polygon fill="#fb8072" stroke="black" points="763.58,-214.8 622.42,-214.8 622.42,-178.8 763.58,-178.8 763.58,-214.8"/>
<text text-anchor="middle" x="693" y="-192.6" font-family="Times,serif" font-size="14.00">EchartBarComponent </text>
</g>
<!-- ChartExamplesModule&#45;&gt;EchartBarComponent  -->
<g id="edge6" class="edge">
<title>ChartExamplesModule&#45;&gt;EchartBarComponent </title>
<path fill="none" stroke="black" stroke-dasharray="5,2" d="M505.07,-140.8C569.83,-140.8 654.2,-140.8 654.2,-140.8 654.2,-140.8 654.2,-168.77 654.2,-168.77"/>
<polygon fill="black" stroke="black" points="650.7,-168.77 654.2,-178.77 657.7,-168.77 650.7,-168.77"/>
</g>
<!-- EchartHeatmapComponent  -->
<g id="node8" class="node">
<title>EchartHeatmapComponent </title>
<polygon fill="#fb8072" stroke="black" points="603.89,-214.8 432.11,-214.8 432.11,-178.8 603.89,-178.8 603.89,-214.8"/>
<text text-anchor="middle" x="518" y="-192.6" font-family="Times,serif" font-size="14.00">EchartHeatmapComponent </text>
</g>
<!-- ChartExamplesModule&#45;&gt;EchartHeatmapComponent  -->
<g id="edge7" class="edge">
<title>ChartExamplesModule&#45;&gt;EchartHeatmapComponent </title>
<path fill="none" stroke="black" stroke-dasharray="5,2" d="M468.49,-149.91C468.49,-149.91 468.49,-168.79 468.49,-168.79"/>
<polygon fill="black" stroke="black" points="464.99,-168.79 468.49,-178.79 471.99,-168.79 464.99,-168.79"/>
</g>
<!-- EchartPieComponent  -->
<g id="node9" class="node">
<title>EchartPieComponent </title>
<polygon fill="#fb8072" stroke="black" points="413.75,-214.8 274.25,-214.8 274.25,-178.8 413.75,-178.8 413.75,-214.8"/>
<text text-anchor="middle" x="344" y="-192.6" font-family="Times,serif" font-size="14.00">EchartPieComponent </text>
</g>
<!-- ChartExamplesModule&#45;&gt;EchartPieComponent  -->
<g id="edge8" class="edge">
<title>ChartExamplesModule&#45;&gt;EchartPieComponent </title>
<path fill="none" stroke="black" stroke-dasharray="5,2" d="M386.35,-149.91C386.35,-149.91 386.35,-168.79 386.35,-168.79"/>
<polygon fill="black" stroke="black" points="382.85,-168.79 386.35,-178.79 389.85,-168.79 382.85,-168.79"/>
</g>
<!-- EchartRadarComponent  -->
<g id="node10" class="node">
<title>EchartRadarComponent </title>
<polygon fill="#fb8072" stroke="black" points="256.29,-214.8 101.71,-214.8 101.71,-178.8 256.29,-178.8 256.29,-214.8"/>
<text text-anchor="middle" x="179" y="-192.6" font-family="Times,serif" font-size="14.00">EchartRadarComponent </text>
</g>
<!-- ChartExamplesModule&#45;&gt;EchartRadarComponent  -->
<g id="edge9" class="edge">
<title>ChartExamplesModule&#45;&gt;EchartRadarComponent </title>
<path fill="none" stroke="black" stroke-dasharray="5,2" d="M358.86,-140.8C299.42,-140.8 225.38,-140.8 225.38,-140.8 225.38,-140.8 225.38,-168.77 225.38,-168.77"/>
<polygon fill="black" stroke="black" points="221.88,-168.77 225.38,-178.77 228.88,-168.77 221.88,-168.77"/>
</g>
<!-- SharedMaterialModule -->
<g id="node6" class="node">
<title>SharedMaterialModule</title>
<polygon fill="#8dd3c7" stroke="black" points="169.85,-84.8 166.85,-88.8 145.85,-88.8 142.85,-84.8 24.15,-84.8 24.15,-48.8 169.85,-48.8 169.85,-84.8"/>
<text text-anchor="middle" x="97" y="-62.6" font-family="Times,serif" font-size="14.00">SharedMaterialModule</text>
</g>
<!-- SharedMaterialModule&#45;&gt;ChartExamplesModule -->
<g id="edge5" class="edge">
<title>SharedMaterialModule&#45;&gt;ChartExamplesModule</title>
<path fill="none" stroke="black" d="M135.76,-84.91C135.76,-104.14 135.76,-131.8 135.76,-131.8 135.76,-131.8 348.77,-131.8 348.77,-131.8"/>
<polygon fill="black" stroke="black" points="348.77,-135.3 358.77,-131.8 348.77,-128.3 348.77,-135.3"/>
</g>
</g>
</svg>
