<?xml version="1.0" encoding="UTF-8" standalone="no"?>
<!DOCTYPE svg PUBLIC "-//W3C//DTD SVG 1.1//EN"
 "http://www.w3.org/Graphics/SVG/1.1/DTD/svg11.dtd">
<!-- Generated by graphviz version 5.0.0 (20220707.1540)
 -->
<!-- Title: dependencies Pages: 1 -->
<svg width="864pt" height="174pt"
 viewBox="0.00 0.00 864.00 173.80" xmlns="http://www.w3.org/2000/svg" xmlns:xlink="http://www.w3.org/1999/xlink">
<g id="graph0" class="graph" transform="scale(1 1) rotate(0) translate(4 169.8)">
<title>dependencies</title>
<polygon fill="white" stroke="transparent" points="-4,4 -4,-169.8 860,-169.8 860,4 -4,4"/>
<text text-anchor="middle" x="428" y="-8.2" font-family="sans-serif" font-size="14.00">dependencies</text>
<g id="clust1" class="cluster">
<title>cluster_OrderModule</title>
<polygon fill="none" stroke="black" stroke-dasharray="1,5" points="8,-32.8 8,-157.8 848,-157.8 848,-32.8 8,-32.8"/>
</g>
<g id="clust2" class="cluster">
<title>cluster_OrderModule_declarations</title>
<polygon fill="none" stroke="black" points="342,-40.8 342,-92.8 840,-92.8 840,-40.8 342,-40.8"/>
</g>
<g id="clust6" class="cluster">
<title>cluster_OrderModule_imports</title>
<polygon fill="none" stroke="black" points="16,-40.8 16,-92.8 334,-92.8 334,-40.8 16,-40.8"/>
</g>
<!-- OrderCostListComponent -->
<g id="node1" class="node">
<title>OrderCostListComponent</title>
<polygon fill="#ffffb3" stroke="black" points="831.94,-84.8 670.06,-84.8 670.06,-48.8 831.94,-48.8 831.94,-84.8"/>
<text text-anchor="middle" x="751" y="-62.6" font-family="Times,serif" font-size="14.00">OrderCostListComponent</text>
</g>
<!-- OrderModule -->
<g id="node4" class="node">
<title>OrderModule</title>
<polygon fill="#8dd3c7" stroke="black" points="464.2,-149.8 461.2,-153.8 440.2,-153.8 437.2,-149.8 371.8,-149.8 371.8,-113.8 464.2,-113.8 464.2,-149.8"/>
<text text-anchor="middle" x="418" y="-127.6" font-family="Times,serif" font-size="14.00">OrderModule</text>
</g>
<!-- OrderCostListComponent&#45;&gt;OrderModule -->
<g id="edge1" class="edge">
<title>OrderCostListComponent&#45;&gt;OrderModule</title>
<path fill="none" stroke="black" d="M751,-85.08C751,-106.12 751,-137.8 751,-137.8 751,-137.8 474.3,-137.8 474.3,-137.8"/>
<polygon fill="black" stroke="black" points="474.3,-134.3 464.3,-137.8 474.3,-141.3 474.3,-134.3"/>
</g>
<!-- OrderDetailComponent -->
<g id="node2" class="node">
<title>OrderDetailComponent</title>
<polygon fill="#ffffb3" stroke="black" points="652.19,-84.8 503.81,-84.8 503.81,-48.8 652.19,-48.8 652.19,-84.8"/>
<text text-anchor="middle" x="578" y="-62.6" font-family="Times,serif" font-size="14.00">OrderDetailComponent</text>
</g>
<!-- OrderDetailComponent&#45;&gt;OrderModule -->
<g id="edge2" class="edge">
<title>OrderDetailComponent&#45;&gt;OrderModule</title>
<path fill="none" stroke="black" d="M578,-84.82C578,-102.17 578,-125.8 578,-125.8 578,-125.8 474.28,-125.8 474.28,-125.8"/>
<polygon fill="black" stroke="black" points="474.28,-122.3 464.28,-125.8 474.28,-129.3 474.28,-122.3"/>
</g>
<!-- OrderListComponent -->
<g id="node3" class="node">
<title>OrderListComponent</title>
<polygon fill="#ffffb3" stroke="black" points="485.76,-84.8 350.24,-84.8 350.24,-48.8 485.76,-48.8 485.76,-84.8"/>
<text text-anchor="middle" x="418" y="-62.6" font-family="Times,serif" font-size="14.00">OrderListComponent</text>
</g>
<!-- OrderListComponent&#45;&gt;OrderModule -->
<g id="edge3" class="edge">
<title>OrderListComponent&#45;&gt;OrderModule</title>
<path fill="none" stroke="black" d="M418,-84.91C418,-84.91 418,-103.79 418,-103.79"/>
<polygon fill="black" stroke="black" points="414.5,-103.79 418,-113.79 421.5,-103.79 414.5,-103.79"/>
</g>
<!-- OrderRoutingModule -->
<g id="node5" class="node">
<title>OrderRoutingModule</title>
<polygon fill="#8dd3c7" stroke="black" points="325.82,-84.8 322.82,-88.8 301.82,-88.8 298.82,-84.8 188.18,-84.8 188.18,-48.8 325.82,-48.8 325.82,-84.8"/>
<text text-anchor="middle" x="257" y="-62.6" font-family="Times,serif" font-size="14.00">OrderRoutingModule</text>
</g>
<!-- OrderRoutingModule&#45;&gt;OrderModule -->
<g id="edge4" class="edge">
<title>OrderRoutingModule&#45;&gt;OrderModule</title>
<path fill="none" stroke="black" d="M257,-84.82C257,-102.17 257,-125.8 257,-125.8 257,-125.8 361.86,-125.8 361.86,-125.8"/>
<polygon fill="black" stroke="black" points="361.86,-129.3 371.86,-125.8 361.86,-122.3 361.86,-129.3"/>
</g>
<!-- SharedMaterialModule -->
<g id="node6" class="node">
<title>SharedMaterialModule</title>
<polygon fill="#8dd3c7" stroke="black" points="169.85,-84.8 166.85,-88.8 145.85,-88.8 142.85,-84.8 24.15,-84.8 24.15,-48.8 169.85,-48.8 169.85,-84.8"/>
<text text-anchor="middle" x="97" y="-62.6" font-family="Times,serif" font-size="14.00">SharedMaterialModule</text>
</g>
<!-- SharedMaterialModule&#45;&gt;OrderModule -->
<g id="edge5" class="edge">
<title>SharedMaterialModule&#45;&gt;OrderModule</title>
<path fill="none" stroke="black" d="M97,-85.08C97,-106.12 97,-137.8 97,-137.8 97,-137.8 361.67,-137.8 361.67,-137.8"/>
<polygon fill="black" stroke="black" points="361.67,-141.3 371.67,-137.8 361.67,-134.3 361.67,-141.3"/>
</g>
</g>
</svg>
