<?xml version="1.0" encoding="UTF-8" standalone="no"?>
<!DOCTYPE svg PUBLIC "-//W3C//DTD SVG 1.1//EN"
 "http://www.w3.org/Graphics/SVG/1.1/DTD/svg11.dtd">
<!-- Generated by graphviz version 5.0.0 (20220707.1540)
 -->
<!-- Title: dependencies Pages: 1 -->
<svg width="878pt" height="174pt"
 viewBox="0.00 0.00 878.00 173.80" xmlns="http://www.w3.org/2000/svg" xmlns:xlink="http://www.w3.org/1999/xlink">
<g id="graph0" class="graph" transform="scale(1 1) rotate(0) translate(4 169.8)">
<title>dependencies</title>
<polygon fill="white" stroke="transparent" points="-4,4 -4,-169.8 874,-169.8 874,4 -4,4"/>
<text text-anchor="middle" x="435" y="-8.2" font-family="sans-serif" font-size="14.00">dependencies</text>
<g id="clust1" class="cluster">
<title>cluster_InvoiceModule</title>
<polygon fill="none" stroke="black" stroke-dasharray="1,5" points="8,-32.8 8,-157.8 862,-157.8 862,-32.8 8,-32.8"/>
</g>
<g id="clust2" class="cluster">
<title>cluster_InvoiceModule_declarations</title>
<polygon fill="none" stroke="black" points="512,-40.8 512,-92.8 854,-92.8 854,-40.8 512,-40.8"/>
</g>
<g id="clust5" class="cluster">
<title>cluster_InvoiceModule_imports</title>
<polygon fill="none" stroke="black" points="178,-40.8 178,-92.8 504,-92.8 504,-40.8 178,-40.8"/>
</g>
<g id="clust8" class="cluster">
<title>cluster_InvoiceModule_providers</title>
<polygon fill="none" stroke="black" points="16,-40.8 16,-92.8 170,-92.8 170,-40.8 16,-40.8"/>
</g>
<!-- InvoiceDetailsComponent -->
<g id="node1" class="node">
<title>InvoiceDetailsComponent</title>
<polygon fill="#ffffb3" stroke="black" points="846.47,-84.8 683.53,-84.8 683.53,-48.8 846.47,-48.8 846.47,-84.8"/>
<text text-anchor="middle" x="765" y="-62.6" font-family="Times,serif" font-size="14.00">InvoiceDetailsComponent</text>
</g>
<!-- InvoiceModule -->
<g id="node3" class="node">
<title>InvoiceModule</title>
<polygon fill="#8dd3c7" stroke="black" points="473.53,-149.8 470.53,-153.8 449.53,-153.8 446.53,-149.8 372.47,-149.8 372.47,-113.8 473.53,-113.8 473.53,-149.8"/>
<text text-anchor="middle" x="423" y="-127.6" font-family="Times,serif" font-size="14.00">InvoiceModule</text>
</g>
<!-- InvoiceDetailsComponent&#45;&gt;InvoiceModule -->
<g id="edge1" class="edge">
<title>InvoiceDetailsComponent&#45;&gt;InvoiceModule</title>
<path fill="none" stroke="black" d="M765,-85.08C765,-106.12 765,-137.8 765,-137.8 765,-137.8 483.83,-137.8 483.83,-137.8"/>
<polygon fill="black" stroke="black" points="483.83,-134.3 473.83,-137.8 483.83,-141.3 483.83,-134.3"/>
</g>
<!-- InvoiceListComponent -->
<g id="node2" class="node">
<title>InvoiceListComponent</title>
<polygon fill="#ffffb3" stroke="black" points="665.59,-84.8 520.41,-84.8 520.41,-48.8 665.59,-48.8 665.59,-84.8"/>
<text text-anchor="middle" x="593" y="-62.6" font-family="Times,serif" font-size="14.00">InvoiceListComponent</text>
</g>
<!-- InvoiceListComponent&#45;&gt;InvoiceModule -->
<g id="edge2" class="edge">
<title>InvoiceListComponent&#45;&gt;InvoiceModule</title>
<path fill="none" stroke="black" d="M593,-84.82C593,-102.17 593,-125.8 593,-125.8 593,-125.8 483.55,-125.8 483.55,-125.8"/>
<polygon fill="black" stroke="black" points="483.55,-122.3 473.55,-125.8 483.55,-129.3 483.55,-122.3"/>
</g>
<!-- InvoiceRoutingModule -->
<g id="node4" class="node">
<title>InvoiceRoutingModule</title>
<polygon fill="#8dd3c7" stroke="black" points="496.15,-84.8 493.15,-88.8 472.15,-88.8 469.15,-84.8 349.85,-84.8 349.85,-48.8 496.15,-48.8 496.15,-84.8"/>
<text text-anchor="middle" x="423" y="-62.6" font-family="Times,serif" font-size="14.00">InvoiceRoutingModule</text>
</g>
<!-- InvoiceRoutingModule&#45;&gt;InvoiceModule -->
<g id="edge3" class="edge">
<title>InvoiceRoutingModule&#45;&gt;InvoiceModule</title>
<path fill="none" stroke="black" d="M423,-84.91C423,-84.91 423,-103.79 423,-103.79"/>
<polygon fill="black" stroke="black" points="419.5,-103.79 423,-113.79 426.5,-103.79 419.5,-103.79"/>
</g>
<!-- SharedMaterialModule -->
<g id="node5" class="node">
<title>SharedMaterialModule</title>
<polygon fill="#8dd3c7" stroke="black" points="331.85,-84.8 328.85,-88.8 307.85,-88.8 304.85,-84.8 186.15,-84.8 186.15,-48.8 331.85,-48.8 331.85,-84.8"/>
<text text-anchor="middle" x="259" y="-62.6" font-family="Times,serif" font-size="14.00">SharedMaterialModule</text>
</g>
<!-- SharedMaterialModule&#45;&gt;InvoiceModule -->
<g id="edge4" class="edge">
<title>SharedMaterialModule&#45;&gt;InvoiceModule</title>
<path fill="none" stroke="black" d="M259,-84.82C259,-102.17 259,-125.8 259,-125.8 259,-125.8 362.46,-125.8 362.46,-125.8"/>
<polygon fill="black" stroke="black" points="362.46,-129.3 372.46,-125.8 362.46,-122.3 362.46,-129.3"/>
</g>
<!-- InvoiceService -->
<g id="node6" class="node">
<title>InvoiceService</title>
<ellipse fill="#fdb462" stroke="black" cx="93" cy="-66.8" rx="68.9" ry="18"/>
<text text-anchor="middle" x="93" y="-62.6" font-family="Times,serif" font-size="14.00">InvoiceService</text>
</g>
<!-- InvoiceService&#45;&gt;InvoiceModule -->
<g id="edge5" class="edge">
<title>InvoiceService&#45;&gt;InvoiceModule</title>
<path fill="none" stroke="black" d="M93,-85.08C93,-106.12 93,-137.8 93,-137.8 93,-137.8 362.16,-137.8 362.16,-137.8"/>
<polygon fill="black" stroke="black" points="362.16,-141.3 372.16,-137.8 362.16,-134.3 362.16,-141.3"/>
</g>
</g>
</svg>
