<?xml version="1.0" encoding="UTF-8" standalone="no"?>
<!DOCTYPE svg PUBLIC "-//W3C//DTD SVG 1.1//EN"
 "http://www.w3.org/Graphics/SVG/1.1/DTD/svg11.dtd">
<!-- Generated by graphviz version 5.0.0 (20220707.1540)
 -->
<!-- Title: dependencies Pages: 1 -->
<svg width="969pt" height="174pt"
 viewBox="0.00 0.00 969.00 173.80" xmlns="http://www.w3.org/2000/svg" xmlns:xlink="http://www.w3.org/1999/xlink">
<g id="graph0" class="graph" transform="scale(1 1) rotate(0) translate(4 169.8)">
<title>dependencies</title>
<polygon fill="white" stroke="transparent" points="-4,4 -4,-169.8 965,-169.8 965,4 -4,4"/>
<text text-anchor="middle" x="480.5" y="-8.2" font-family="sans-serif" font-size="14.00">dependencies</text>
<g id="clust1" class="cluster">
<title>cluster_ShopModule</title>
<polygon fill="none" stroke="black" stroke-dasharray="1,5" points="8,-32.8 8,-157.8 953,-157.8 953,-32.8 8,-32.8"/>
</g>
<g id="clust10" class="cluster">
<title>cluster_ShopModule_providers</title>
<polygon fill="none" stroke="black" points="809,-40.8 809,-92.8 945,-92.8 945,-40.8 809,-40.8"/>
</g>
<g id="clust7" class="cluster">
<title>cluster_ShopModule_imports</title>
<polygon fill="none" stroke="black" points="629,-40.8 629,-92.8 801,-92.8 801,-40.8 629,-40.8"/>
</g>
<g id="clust2" class="cluster">
<title>cluster_ShopModule_declarations</title>
<polygon fill="none" stroke="black" points="16,-40.8 16,-92.8 621,-92.8 621,-40.8 16,-40.8"/>
</g>
<!-- CartComponent -->
<g id="node1" class="node">
<title>CartComponent</title>
<polygon fill="#ffffb3" stroke="black" points="612.94,-84.8 507.06,-84.8 507.06,-48.8 612.94,-48.8 612.94,-84.8"/>
<text text-anchor="middle" x="560" y="-62.6" font-family="Times,serif" font-size="14.00">CartComponent</text>
</g>
<!-- ShopModule -->
<g id="node5" class="node">
<title>ShopModule</title>
<polygon fill="#8dd3c7" stroke="black" points="535.34,-149.8 532.34,-153.8 511.34,-153.8 508.34,-149.8 446.66,-149.8 446.66,-113.8 535.34,-113.8 535.34,-149.8"/>
<text text-anchor="middle" x="491" y="-127.6" font-family="Times,serif" font-size="14.00">ShopModule</text>
</g>
<!-- CartComponent&#45;&gt;ShopModule -->
<g id="edge1" class="edge">
<title>CartComponent&#45;&gt;ShopModule</title>
<path fill="none" stroke="black" d="M521.23,-84.91C521.23,-84.91 521.23,-103.79 521.23,-103.79"/>
<polygon fill="black" stroke="black" points="517.73,-103.79 521.23,-113.79 524.73,-103.79 517.73,-103.79"/>
</g>
<!-- CheckoutComponent -->
<g id="node2" class="node">
<title>CheckoutComponent</title>
<polygon fill="#ffffb3" stroke="black" points="489.49,-84.8 354.51,-84.8 354.51,-48.8 489.49,-48.8 489.49,-84.8"/>
<text text-anchor="middle" x="422" y="-62.6" font-family="Times,serif" font-size="14.00">CheckoutComponent</text>
</g>
<!-- CheckoutComponent&#45;&gt;ShopModule -->
<g id="edge2" class="edge">
<title>CheckoutComponent&#45;&gt;ShopModule</title>
<path fill="none" stroke="black" d="M468.16,-84.91C468.16,-84.91 468.16,-103.79 468.16,-103.79"/>
<polygon fill="black" stroke="black" points="464.66,-103.79 468.16,-113.79 471.66,-103.79 464.66,-103.79"/>
</g>
<!-- ProductDetailsComponent -->
<g id="node3" class="node">
<title>ProductDetailsComponent</title>
<polygon fill="#ffffb3" stroke="black" points="336.04,-84.8 171.96,-84.8 171.96,-48.8 336.04,-48.8 336.04,-84.8"/>
<text text-anchor="middle" x="254" y="-62.6" font-family="Times,serif" font-size="14.00">ProductDetailsComponent</text>
</g>
<!-- ProductDetailsComponent&#45;&gt;ShopModule -->
<g id="edge3" class="edge">
<title>ProductDetailsComponent&#45;&gt;ShopModule</title>
<path fill="none" stroke="black" d="M254,-84.82C254,-102.17 254,-125.8 254,-125.8 254,-125.8 436.7,-125.8 436.7,-125.8"/>
<polygon fill="black" stroke="black" points="436.7,-129.3 446.7,-125.8 436.7,-122.3 436.7,-129.3"/>
</g>
<!-- ProductsComponent -->
<g id="node4" class="node">
<title>ProductsComponent</title>
<polygon fill="#ffffb3" stroke="black" points="154.33,-84.8 23.67,-84.8 23.67,-48.8 154.33,-48.8 154.33,-84.8"/>
<text text-anchor="middle" x="89" y="-62.6" font-family="Times,serif" font-size="14.00">ProductsComponent</text>
</g>
<!-- ProductsComponent&#45;&gt;ShopModule -->
<g id="edge4" class="edge">
<title>ProductsComponent&#45;&gt;ShopModule</title>
<path fill="none" stroke="black" d="M89,-85.08C89,-106.12 89,-137.8 89,-137.8 89,-137.8 436.83,-137.8 436.83,-137.8"/>
<polygon fill="black" stroke="black" points="436.83,-141.3 446.83,-137.8 436.83,-134.3 436.83,-141.3"/>
</g>
<!-- SharedDirectivesModule -->
<g id="node6" class="node">
<title>SharedDirectivesModule</title>
<polygon fill="#8dd3c7" stroke="black" points="792.96,-84.8 789.96,-88.8 768.96,-88.8 765.96,-84.8 637.04,-84.8 637.04,-48.8 792.96,-48.8 792.96,-84.8"/>
<text text-anchor="middle" x="715" y="-62.6" font-family="Times,serif" font-size="14.00">SharedDirectivesModule</text>
</g>
<!-- SharedDirectivesModule&#45;&gt;ShopModule -->
<g id="edge5" class="edge">
<title>SharedDirectivesModule&#45;&gt;ShopModule</title>
<path fill="none" stroke="black" d="M715,-84.82C715,-102.17 715,-125.8 715,-125.8 715,-125.8 545.26,-125.8 545.26,-125.8"/>
<polygon fill="black" stroke="black" points="545.26,-122.3 535.26,-125.8 545.26,-129.3 545.26,-122.3"/>
</g>
<!-- ShopService -->
<g id="node7" class="node">
<title>ShopService</title>
<ellipse fill="#fdb462" stroke="black" cx="877" cy="-66.8" rx="59.7" ry="18"/>
<text text-anchor="middle" x="877" y="-62.6" font-family="Times,serif" font-size="14.00">ShopService</text>
</g>
<!-- ShopService&#45;&gt;ShopModule -->
<g id="edge6" class="edge">
<title>ShopService&#45;&gt;ShopModule</title>
<path fill="none" stroke="black" d="M877,-85.08C877,-106.12 877,-137.8 877,-137.8 877,-137.8 545.28,-137.8 545.28,-137.8"/>
<polygon fill="black" stroke="black" points="545.28,-134.3 535.28,-137.8 545.28,-141.3 545.28,-134.3"/>
</g>
</g>
</svg>
