<?xml version="1.0" encoding="UTF-8" standalone="no"?>
<!DOCTYPE svg PUBLIC "-//W3C//DTD SVG 1.1//EN"
 "http://www.w3.org/Graphics/SVG/1.1/DTD/svg11.dtd">
<!-- Generated by graphviz version 5.0.0 (20220707.1540)
 -->
<!-- Title: dependencies Pages: 1 -->
<svg width="1137pt" height="174pt"
 viewBox="0.00 0.00 1137.00 173.80" xmlns="http://www.w3.org/2000/svg" xmlns:xlink="http://www.w3.org/1999/xlink">
<g id="graph0" class="graph" transform="scale(1 1) rotate(0) translate(4 169.8)">
<title>dependencies</title>
<polygon fill="white" stroke="transparent" points="-4,4 -4,-169.8 1133,-169.8 1133,4 -4,4"/>
<text text-anchor="middle" x="564.5" y="-8.2" font-family="sans-serif" font-size="14.00">dependencies</text>
<g id="clust1" class="cluster">
<title>cluster_UtilitiesModule</title>
<polygon fill="none" stroke="black" stroke-dasharray="1,5" points="8,-32.8 8,-157.8 1121,-157.8 1121,-32.8 8,-32.8"/>
</g>
<g id="clust7" class="cluster">
<title>cluster_UtilitiesModule_imports</title>
<polygon fill="none" stroke="black" points="609,-40.8 609,-92.8 1113,-92.8 1113,-40.8 609,-40.8"/>
</g>
<g id="clust2" class="cluster">
<title>cluster_UtilitiesModule_declarations</title>
<polygon fill="none" stroke="black" points="16,-40.8 16,-92.8 601,-92.8 601,-40.8 16,-40.8"/>
</g>
<!-- BorderComponent -->
<g id="node1" class="node">
<title>BorderComponent</title>
<polygon fill="#ffffb3" stroke="black" points="593.21,-84.8 472.79,-84.8 472.79,-48.8 593.21,-48.8 593.21,-84.8"/>
<text text-anchor="middle" x="533" y="-62.6" font-family="Times,serif" font-size="14.00">BorderComponent</text>
</g>
<!-- UtilitiesModule -->
<g id="node5" class="node">
<title>UtilitiesModule</title>
<polygon fill="#8dd3c7" stroke="black" points="585.16,-149.8 582.16,-153.8 561.16,-153.8 558.16,-149.8 480.84,-149.8 480.84,-113.8 585.16,-113.8 585.16,-149.8"/>
<text text-anchor="middle" x="533" y="-127.6" font-family="Times,serif" font-size="14.00">UtilitiesModule</text>
</g>
<!-- BorderComponent&#45;&gt;UtilitiesModule -->
<g id="edge1" class="edge">
<title>BorderComponent&#45;&gt;UtilitiesModule</title>
<path fill="none" stroke="black" d="M533,-84.91C533,-84.91 533,-103.79 533,-103.79"/>
<polygon fill="black" stroke="black" points="529.5,-103.79 533,-113.79 536.5,-103.79 529.5,-103.79"/>
</g>
<!-- ColorsComponent -->
<g id="node2" class="node">
<title>ColorsComponent</title>
<polygon fill="#ffffb3" stroke="black" points="455.17,-84.8 336.83,-84.8 336.83,-48.8 455.17,-48.8 455.17,-84.8"/>
<text text-anchor="middle" x="396" y="-62.6" font-family="Times,serif" font-size="14.00">ColorsComponent</text>
</g>
<!-- ColorsComponent&#45;&gt;UtilitiesModule -->
<g id="edge2" class="edge">
<title>ColorsComponent&#45;&gt;UtilitiesModule</title>
<path fill="none" stroke="black" d="M396,-84.83C396,-101.2 396,-122.8 396,-122.8 396,-122.8 470.82,-122.8 470.82,-122.8"/>
<polygon fill="black" stroke="black" points="470.82,-126.3 480.82,-122.8 470.82,-119.3 470.82,-126.3"/>
</g>
<!-- SpacingComponent -->
<g id="node3" class="node">
<title>SpacingComponent</title>
<polygon fill="#ffffb3" stroke="black" points="318.44,-84.8 191.56,-84.8 191.56,-48.8 318.44,-48.8 318.44,-84.8"/>
<text text-anchor="middle" x="255" y="-62.6" font-family="Times,serif" font-size="14.00">SpacingComponent</text>
</g>
<!-- SpacingComponent&#45;&gt;UtilitiesModule -->
<g id="edge3" class="edge">
<title>SpacingComponent&#45;&gt;UtilitiesModule</title>
<path fill="none" stroke="black" d="M255,-84.91C255,-104.14 255,-131.8 255,-131.8 255,-131.8 470.71,-131.8 470.71,-131.8"/>
<polygon fill="black" stroke="black" points="470.71,-135.3 480.71,-131.8 470.71,-128.3 470.71,-135.3"/>
</g>
<!-- TypographyComponent -->
<g id="node4" class="node">
<title>TypographyComponent</title>
<polygon fill="#ffffb3" stroke="black" points="173.76,-84.8 24.24,-84.8 24.24,-48.8 173.76,-48.8 173.76,-84.8"/>
<text text-anchor="middle" x="99" y="-62.6" font-family="Times,serif" font-size="14.00">TypographyComponent</text>
</g>
<!-- TypographyComponent&#45;&gt;UtilitiesModule -->
<g id="edge4" class="edge">
<title>TypographyComponent&#45;&gt;UtilitiesModule</title>
<path fill="none" stroke="black" d="M99,-85.09C99,-107.01 99,-140.8 99,-140.8 99,-140.8 470.65,-140.8 470.65,-140.8"/>
<polygon fill="black" stroke="black" points="470.65,-144.3 480.65,-140.8 470.65,-137.3 470.65,-144.3"/>
</g>
<!-- SharedDirectivesModule -->
<g id="node6" class="node">
<title>SharedDirectivesModule</title>
<polygon fill="#8dd3c7" stroke="black" points="1104.96,-84.8 1101.96,-88.8 1080.96,-88.8 1077.96,-84.8 949.04,-84.8 949.04,-48.8 1104.96,-48.8 1104.96,-84.8"/>
<text text-anchor="middle" x="1027" y="-62.6" font-family="Times,serif" font-size="14.00">SharedDirectivesModule</text>
</g>
<!-- SharedDirectivesModule&#45;&gt;UtilitiesModule -->
<g id="edge5" class="edge">
<title>SharedDirectivesModule&#45;&gt;UtilitiesModule</title>
<path fill="none" stroke="black" d="M1027,-85.09C1027,-107.01 1027,-140.8 1027,-140.8 1027,-140.8 595.4,-140.8 595.4,-140.8"/>
<polygon fill="black" stroke="black" points="595.4,-137.3 585.4,-140.8 595.4,-144.3 595.4,-137.3"/>
</g>
<!-- SharedMaterialModule -->
<g id="node7" class="node">
<title>SharedMaterialModule</title>
<polygon fill="#8dd3c7" stroke="black" points="930.85,-84.8 927.85,-88.8 906.85,-88.8 903.85,-84.8 785.15,-84.8 785.15,-48.8 930.85,-48.8 930.85,-84.8"/>
<text text-anchor="middle" x="858" y="-62.6" font-family="Times,serif" font-size="14.00">SharedMaterialModule</text>
</g>
<!-- SharedMaterialModule&#45;&gt;UtilitiesModule -->
<g id="edge6" class="edge">
<title>SharedMaterialModule&#45;&gt;UtilitiesModule</title>
<path fill="none" stroke="black" d="M858,-84.91C858,-104.14 858,-131.8 858,-131.8 858,-131.8 595.22,-131.8 595.22,-131.8"/>
<polygon fill="black" stroke="black" points="595.22,-128.3 585.22,-131.8 595.22,-135.3 595.22,-128.3"/>
</g>
<!-- UtilitiesRoutingModule -->
<g id="node8" class="node">
<title>UtilitiesRoutingModule</title>
<polygon fill="#8dd3c7" stroke="black" points="766.78,-84.8 763.78,-88.8 742.78,-88.8 739.78,-84.8 617.22,-84.8 617.22,-48.8 766.78,-48.8 766.78,-84.8"/>
<text text-anchor="middle" x="692" y="-62.6" font-family="Times,serif" font-size="14.00">UtilitiesRoutingModule</text>
</g>
<!-- UtilitiesRoutingModule&#45;&gt;UtilitiesModule -->
<g id="edge7" class="edge">
<title>UtilitiesRoutingModule&#45;&gt;UtilitiesModule</title>
<path fill="none" stroke="black" d="M692,-84.83C692,-101.2 692,-122.8 692,-122.8 692,-122.8 595.5,-122.8 595.5,-122.8"/>
<polygon fill="black" stroke="black" points="595.5,-119.3 585.5,-122.8 595.5,-126.3 595.5,-119.3"/>
</g>
</g>
</svg>
