<?xml version="1.0" encoding="UTF-8" standalone="no"?>
<!DOCTYPE svg PUBLIC "-//W3C//DTD SVG 1.1//EN"
 "http://www.w3.org/Graphics/SVG/1.1/DTD/svg11.dtd">
<!-- Generated by graphviz version 5.0.0 (20220707.1540)
 -->
<!-- Title: dependencies Pages: 1 -->
<svg width="2186pt" height="174pt"
 viewBox="0.00 0.00 2186.00 173.80" xmlns="http://www.w3.org/2000/svg" xmlns:xlink="http://www.w3.org/1999/xlink">
<g id="graph0" class="graph" transform="scale(1 1) rotate(0) translate(4 169.8)">
<title>dependencies</title>
<polygon fill="white" stroke="transparent" points="-4,4 -4,-169.8 2182,-169.8 2182,4 -4,4"/>
<text text-anchor="middle" x="1089" y="-8.2" font-family="sans-serif" font-size="14.00">dependencies</text>
<g id="clust1" class="cluster">
<title>cluster_SessionsModule</title>
<polygon fill="none" stroke="black" stroke-dasharray="1,5" points="8,-32.8 8,-157.8 2170,-157.8 2170,-32.8 8,-32.8"/>
</g>
<g id="clust2" class="cluster">
<title>cluster_SessionsModule_declarations</title>
<polygon fill="none" stroke="black" points="186,-40.8 186,-92.8 2162,-92.8 2162,-40.8 186,-40.8"/>
</g>
<g id="clust16" class="cluster">
<title>cluster_SessionsModule_imports</title>
<polygon fill="none" stroke="black" points="16,-40.8 16,-92.8 178,-92.8 178,-40.8 16,-40.8"/>
</g>
<!-- ChangePasswordComponent -->
<g id="node1" class="node">
<title>ChangePasswordComponent</title>
<polygon fill="#ffffb3" stroke="black" points="2153.77,-84.8 1976.23,-84.8 1976.23,-48.8 2153.77,-48.8 2153.77,-84.8"/>
<text text-anchor="middle" x="2065" y="-62.6" font-family="Times,serif" font-size="14.00">ChangePasswordComponent</text>
</g>
<!-- SessionsModule -->
<g id="node14" class="node">
<title>SessionsModule</title>
<polygon fill="#8dd3c7" stroke="black" points="1094.79,-149.8 1091.79,-153.8 1070.79,-153.8 1067.79,-149.8 987.21,-149.8 987.21,-113.8 1094.79,-113.8 1094.79,-149.8"/>
<text text-anchor="middle" x="1041" y="-127.6" font-family="Times,serif" font-size="14.00">SessionsModule</text>
</g>
<!-- ChangePasswordComponent&#45;&gt;SessionsModule -->
<g id="edge1" class="edge">
<title>ChangePasswordComponent&#45;&gt;SessionsModule</title>
<path fill="none" stroke="black" d="M2065,-84.89C2065,-107.93 2065,-144.8 2065,-144.8 2065,-144.8 1104.97,-144.8 1104.97,-144.8"/>
<polygon fill="black" stroke="black" points="1104.97,-141.3 1094.97,-144.8 1104.97,-148.3 1104.97,-141.3"/>
</g>
<!-- ErrorComponent -->
<g id="node2" class="node">
<title>ErrorComponent</title>
<polygon fill="#ffffb3" stroke="black" points="1958.37,-84.8 1847.63,-84.8 1847.63,-48.8 1958.37,-48.8 1958.37,-84.8"/>
<text text-anchor="middle" x="1903" y="-62.6" font-family="Times,serif" font-size="14.00">ErrorComponent</text>
</g>
<!-- ErrorComponent&#45;&gt;SessionsModule -->
<g id="edge2" class="edge">
<title>ErrorComponent&#45;&gt;SessionsModule</title>
<path fill="none" stroke="black" d="M1903,-84.84C1903,-106.46 1903,-139.8 1903,-139.8 1903,-139.8 1104.92,-139.8 1104.92,-139.8"/>
<polygon fill="black" stroke="black" points="1104.92,-136.3 1094.92,-139.8 1104.92,-143.3 1104.92,-136.3"/>
</g>
<!-- ForgotPasswordComponent -->
<g id="node3" class="node">
<title>ForgotPasswordComponent</title>
<polygon fill="#ffffb3" stroke="black" points="1829.34,-84.8 1656.66,-84.8 1656.66,-48.8 1829.34,-48.8 1829.34,-84.8"/>
<text text-anchor="middle" x="1743" y="-62.6" font-family="Times,serif" font-size="14.00">ForgotPasswordComponent</text>
</g>
<!-- ForgotPasswordComponent&#45;&gt;SessionsModule -->
<g id="edge3" class="edge">
<title>ForgotPasswordComponent&#45;&gt;SessionsModule</title>
<path fill="none" stroke="black" d="M1743,-85.02C1743,-105.17 1743,-134.8 1743,-134.8 1743,-134.8 1104.92,-134.8 1104.92,-134.8"/>
<polygon fill="black" stroke="black" points="1104.92,-131.3 1094.92,-134.8 1104.92,-138.3 1104.92,-131.3"/>
</g>
<!-- LockscreenComponent -->
<g id="node4" class="node">
<title>LockscreenComponent</title>
<polygon fill="#ffffb3" stroke="black" points="1638.85,-84.8 1493.15,-84.8 1493.15,-48.8 1638.85,-48.8 1638.85,-84.8"/>
<text text-anchor="middle" x="1566" y="-62.6" font-family="Times,serif" font-size="14.00">LockscreenComponent</text>
</g>
<!-- LockscreenComponent&#45;&gt;SessionsModule -->
<g id="edge4" class="edge">
<title>LockscreenComponent&#45;&gt;SessionsModule</title>
<path fill="none" stroke="black" d="M1566,-85.02C1566,-103.63 1566,-129.8 1566,-129.8 1566,-129.8 1105.21,-129.8 1105.21,-129.8"/>
<polygon fill="black" stroke="black" points="1105.21,-126.3 1095.21,-129.8 1105.21,-133.3 1105.21,-126.3"/>
</g>
<!-- NotFoundComponent -->
<g id="node5" class="node">
<title>NotFoundComponent</title>
<polygon fill="#ffffb3" stroke="black" points="1475.12,-84.8 1336.88,-84.8 1336.88,-48.8 1475.12,-48.8 1475.12,-84.8"/>
<text text-anchor="middle" x="1406" y="-62.6" font-family="Times,serif" font-size="14.00">NotFoundComponent</text>
</g>
<!-- NotFoundComponent&#45;&gt;SessionsModule -->
<g id="edge5" class="edge">
<title>NotFoundComponent&#45;&gt;SessionsModule</title>
<path fill="none" stroke="black" d="M1406,-84.83C1406,-101.86 1406,-124.8 1406,-124.8 1406,-124.8 1104.86,-124.8 1104.86,-124.8"/>
<polygon fill="black" stroke="black" points="1104.86,-121.3 1094.86,-124.8 1104.86,-128.3 1104.86,-121.3"/>
</g>
<!-- Signin2Component -->
<g id="node6" class="node">
<title>Signin2Component</title>
<polygon fill="#ffffb3" stroke="black" points="1318.4,-84.8 1193.6,-84.8 1193.6,-48.8 1318.4,-48.8 1318.4,-84.8"/>
<text text-anchor="middle" x="1256" y="-62.6" font-family="Times,serif" font-size="14.00">Signin2Component</text>
</g>
<!-- Signin2Component&#45;&gt;SessionsModule -->
<g id="edge6" class="edge">
<title>Signin2Component&#45;&gt;SessionsModule</title>
<path fill="none" stroke="black" d="M1256,-85.04C1256,-100.37 1256,-119.8 1256,-119.8 1256,-119.8 1104.98,-119.8 1104.98,-119.8"/>
<polygon fill="black" stroke="black" points="1104.98,-116.3 1094.98,-119.8 1104.98,-123.3 1104.98,-116.3"/>
</g>
<!-- Signin3Component -->
<g id="node7" class="node">
<title>Signin3Component</title>
<polygon fill="#ffffb3" stroke="black" points="1175.4,-84.8 1050.6,-84.8 1050.6,-48.8 1175.4,-48.8 1175.4,-84.8"/>
<text text-anchor="middle" x="1113" y="-62.6" font-family="Times,serif" font-size="14.00">Signin3Component</text>
</g>
<!-- Signin3Component&#45;&gt;SessionsModule -->
<g id="edge7" class="edge">
<title>Signin3Component&#45;&gt;SessionsModule</title>
<path fill="none" stroke="black" d="M1072.72,-84.91C1072.72,-84.91 1072.72,-103.79 1072.72,-103.79"/>
<polygon fill="black" stroke="black" points="1069.22,-103.79 1072.72,-113.79 1076.22,-103.79 1069.22,-103.79"/>
</g>
<!-- Signin4Component -->
<g id="node8" class="node">
<title>Signin4Component</title>
<polygon fill="#ffffb3" stroke="black" points="1032.4,-84.8 907.6,-84.8 907.6,-48.8 1032.4,-48.8 1032.4,-84.8"/>
<text text-anchor="middle" x="970" y="-62.6" font-family="Times,serif" font-size="14.00">Signin4Component</text>
</g>
<!-- Signin4Component&#45;&gt;SessionsModule -->
<g id="edge8" class="edge">
<title>Signin4Component&#45;&gt;SessionsModule</title>
<path fill="none" stroke="black" d="M1009.78,-84.91C1009.78,-84.91 1009.78,-103.79 1009.78,-103.79"/>
<polygon fill="black" stroke="black" points="1006.28,-103.79 1009.78,-113.79 1013.28,-103.79 1006.28,-103.79"/>
</g>
<!-- SigninComponent -->
<g id="node9" class="node">
<title>SigninComponent</title>
<polygon fill="#ffffb3" stroke="black" points="889.9,-84.8 772.1,-84.8 772.1,-48.8 889.9,-48.8 889.9,-84.8"/>
<text text-anchor="middle" x="831" y="-62.6" font-family="Times,serif" font-size="14.00">SigninComponent</text>
</g>
<!-- SigninComponent&#45;&gt;SessionsModule -->
<g id="edge9" class="edge">
<title>SigninComponent&#45;&gt;SessionsModule</title>
<path fill="none" stroke="black" d="M831,-85.04C831,-100.37 831,-119.8 831,-119.8 831,-119.8 977.19,-119.8 977.19,-119.8"/>
<polygon fill="black" stroke="black" points="977.19,-123.3 987.19,-119.8 977.19,-116.3 977.19,-123.3"/>
</g>
<!-- Signup2Component -->
<g id="node10" class="node">
<title>Signup2Component</title>
<polygon fill="#ffffb3" stroke="black" points="754.01,-84.8 625.99,-84.8 625.99,-48.8 754.01,-48.8 754.01,-84.8"/>
<text text-anchor="middle" x="690" y="-62.6" font-family="Times,serif" font-size="14.00">Signup2Component</text>
</g>
<!-- Signup2Component&#45;&gt;SessionsModule -->
<g id="edge10" class="edge">
<title>Signup2Component&#45;&gt;SessionsModule</title>
<path fill="none" stroke="black" d="M690,-84.83C690,-101.86 690,-124.8 690,-124.8 690,-124.8 976.93,-124.8 976.93,-124.8"/>
<polygon fill="black" stroke="black" points="976.93,-128.3 986.93,-124.8 976.93,-121.3 976.93,-128.3"/>
</g>
<!-- Signup3Component -->
<g id="node11" class="node">
<title>Signup3Component</title>
<polygon fill="#ffffb3" stroke="black" points="608.01,-84.8 479.99,-84.8 479.99,-48.8 608.01,-48.8 608.01,-84.8"/>
<text text-anchor="middle" x="544" y="-62.6" font-family="Times,serif" font-size="14.00">Signup3Component</text>
</g>
<!-- Signup3Component&#45;&gt;SessionsModule -->
<g id="edge11" class="edge">
<title>Signup3Component&#45;&gt;SessionsModule</title>
<path fill="none" stroke="black" d="M544,-85.02C544,-103.63 544,-129.8 544,-129.8 544,-129.8 976.87,-129.8 976.87,-129.8"/>
<polygon fill="black" stroke="black" points="976.87,-133.3 986.87,-129.8 976.87,-126.3 976.87,-133.3"/>
</g>
<!-- Signup4Component -->
<g id="node12" class="node">
<title>Signup4Component</title>
<polygon fill="#ffffb3" stroke="black" points="462.01,-84.8 333.99,-84.8 333.99,-48.8 462.01,-48.8 462.01,-84.8"/>
<text text-anchor="middle" x="398" y="-62.6" font-family="Times,serif" font-size="14.00">Signup4Component</text>
</g>
<!-- Signup4Component&#45;&gt;SessionsModule -->
<g id="edge12" class="edge">
<title>Signup4Component&#45;&gt;SessionsModule</title>
<path fill="none" stroke="black" d="M398,-85.02C398,-105.17 398,-134.8 398,-134.8 398,-134.8 977.01,-134.8 977.01,-134.8"/>
<polygon fill="black" stroke="black" points="977.01,-138.3 987.01,-134.8 977.01,-131.3 977.01,-138.3"/>
</g>
<!-- SignupComponent -->
<g id="node13" class="node">
<title>SignupComponent</title>
<polygon fill="#ffffb3" stroke="black" points="315.51,-84.8 194.49,-84.8 194.49,-48.8 315.51,-48.8 315.51,-84.8"/>
<text text-anchor="middle" x="255" y="-62.6" font-family="Times,serif" font-size="14.00">SignupComponent</text>
</g>
<!-- SignupComponent&#45;&gt;SessionsModule -->
<g id="edge13" class="edge">
<title>SignupComponent&#45;&gt;SessionsModule</title>
<path fill="none" stroke="black" d="M255,-84.84C255,-106.46 255,-139.8 255,-139.8 255,-139.8 976.98,-139.8 976.98,-139.8"/>
<polygon fill="black" stroke="black" points="976.98,-143.3 986.98,-139.8 976.98,-136.3 976.98,-143.3"/>
</g>
<!-- SharedMaterialModule -->
<g id="node15" class="node">
<title>SharedMaterialModule</title>
<polygon fill="#8dd3c7" stroke="black" points="169.85,-84.8 166.85,-88.8 145.85,-88.8 142.85,-84.8 24.15,-84.8 24.15,-48.8 169.85,-48.8 169.85,-84.8"/>
<text text-anchor="middle" x="97" y="-62.6" font-family="Times,serif" font-size="14.00">SharedMaterialModule</text>
</g>
<!-- SharedMaterialModule&#45;&gt;SessionsModule -->
<g id="edge14" class="edge">
<title>SharedMaterialModule&#45;&gt;SessionsModule</title>
<path fill="none" stroke="black" d="M97,-84.89C97,-107.93 97,-144.8 97,-144.8 97,-144.8 977.2,-144.8 977.2,-144.8"/>
<polygon fill="black" stroke="black" points="977.2,-148.3 987.2,-144.8 977.2,-141.3 977.2,-148.3"/>
</g>
</g>
</svg>
