<?xml version="1.0" encoding="UTF-8" standalone="no"?>
<!DOCTYPE svg PUBLIC "-//W3C//DTD SVG 1.1//EN"
 "http://www.w3.org/Graphics/SVG/1.1/DTD/svg11.dtd">
<!-- Generated by graphviz version 5.0.0 (20220707.1540)
 -->
<!-- Title: dependencies Pages: 1 -->
<svg width="1208pt" height="174pt"
 viewBox="0.00 0.00 1208.00 173.80" xmlns="http://www.w3.org/2000/svg" xmlns:xlink="http://www.w3.org/1999/xlink">
<g id="graph0" class="graph" transform="scale(1 1) rotate(0) translate(4 169.8)">
<title>dependencies</title>
<polygon fill="white" stroke="transparent" points="-4,4 -4,-169.8 1204,-169.8 1204,4 -4,4"/>
<text text-anchor="middle" x="600" y="-8.2" font-family="sans-serif" font-size="14.00">dependencies</text>
<g id="clust1" class="cluster">
<title>cluster_DashboardModule</title>
<polygon fill="none" stroke="black" stroke-dasharray="1,5" points="8,-32.8 8,-157.8 1192,-157.8 1192,-32.8 8,-32.8"/>
</g>
<g id="clust2" class="cluster">
<title>cluster_DashboardModule_declarations</title>
<polygon fill="none" stroke="black" points="16,-40.8 16,-92.8 1184,-92.8 1184,-40.8 16,-40.8"/>
</g>
<!-- AnalyticsComponent -->
<g id="node1" class="node">
<title>AnalyticsComponent</title>
<polygon fill="#ffffb3" stroke="black" points="1176.49,-84.8 1041.51,-84.8 1041.51,-48.8 1176.49,-48.8 1176.49,-84.8"/>
<text text-anchor="middle" x="1109" y="-62.6" font-family="Times,serif" font-size="14.00">AnalyticsComponent</text>
</g>
<!-- DashboardModule -->
<g id="node7" class="node">
<title>DashboardModule</title>
<polygon fill="#8dd3c7" stroke="black" points="713.2,-149.8 710.2,-153.8 689.2,-153.8 686.2,-149.8 592.8,-149.8 592.8,-113.8 713.2,-113.8 713.2,-149.8"/>
<text text-anchor="middle" x="653" y="-127.6" font-family="Times,serif" font-size="14.00">DashboardModule</text>
</g>
<!-- AnalyticsComponent&#45;&gt;DashboardModule -->
<g id="edge1" class="edge">
<title>AnalyticsComponent&#45;&gt;DashboardModule</title>
<path fill="none" stroke="black" d="M1109,-85.08C1109,-106.12 1109,-137.8 1109,-137.8 1109,-137.8 723.55,-137.8 723.55,-137.8"/>
<polygon fill="black" stroke="black" points="723.55,-134.3 713.55,-137.8 723.55,-141.3 723.55,-134.3"/>
</g>
<!-- CryptocurrencyComponent -->
<g id="node2" class="node">
<title>CryptocurrencyComponent</title>
<polygon fill="#ffffb3" stroke="black" points="1023.69,-84.8 854.31,-84.8 854.31,-48.8 1023.69,-48.8 1023.69,-84.8"/>
<text text-anchor="middle" x="939" y="-62.6" font-family="Times,serif" font-size="14.00">CryptocurrencyComponent</text>
</g>
<!-- CryptocurrencyComponent&#45;&gt;DashboardModule -->
<g id="edge2" class="edge">
<title>CryptocurrencyComponent&#45;&gt;DashboardModule</title>
<path fill="none" stroke="black" d="M939,-84.82C939,-102.17 939,-125.8 939,-125.8 939,-125.8 723.3,-125.8 723.3,-125.8"/>
<polygon fill="black" stroke="black" points="723.3,-122.3 713.3,-125.8 723.3,-129.3 723.3,-122.3"/>
</g>
<!-- DashboardDarkComponent -->
<g id="node3" class="node">
<title>DashboardDarkComponent</title>
<polygon fill="#ffffb3" stroke="black" points="835.97,-84.8 666.03,-84.8 666.03,-48.8 835.97,-48.8 835.97,-84.8"/>
<text text-anchor="middle" x="751" y="-62.6" font-family="Times,serif" font-size="14.00">DashboardDarkComponent</text>
</g>
<!-- DashboardDarkComponent&#45;&gt;DashboardModule -->
<g id="edge3" class="edge">
<title>DashboardDarkComponent&#45;&gt;DashboardModule</title>
<path fill="none" stroke="black" d="M689.56,-84.91C689.56,-84.91 689.56,-103.79 689.56,-103.79"/>
<polygon fill="black" stroke="black" points="686.06,-103.79 689.56,-113.79 693.06,-103.79 686.06,-103.79"/>
</g>
<!-- DefaultDashboardComponent -->
<g id="node4" class="node">
<title>DefaultDashboardComponent</title>
<polygon fill="#ffffb3" stroke="black" points="647.96,-84.8 464.04,-84.8 464.04,-48.8 647.96,-48.8 647.96,-84.8"/>
<text text-anchor="middle" x="556" y="-62.6" font-family="Times,serif" font-size="14.00">DefaultDashboardComponent</text>
</g>
<!-- DefaultDashboardComponent&#45;&gt;DashboardModule -->
<g id="edge4" class="edge">
<title>DefaultDashboardComponent&#45;&gt;DashboardModule</title>
<path fill="none" stroke="black" d="M620.44,-84.91C620.44,-84.91 620.44,-103.79 620.44,-103.79"/>
<polygon fill="black" stroke="black" points="616.94,-103.79 620.44,-113.79 623.94,-103.79 616.94,-103.79"/>
</g>
<!-- FabricatorDashboardComponent -->
<g id="node5" class="node">
<title>FabricatorDashboardComponent</title>
<polygon fill="#ffffb3" stroke="black" points="445.51,-84.8 246.49,-84.8 246.49,-48.8 445.51,-48.8 445.51,-84.8"/>
<text text-anchor="middle" x="346" y="-62.6" font-family="Times,serif" font-size="14.00">FabricatorDashboardComponent</text>
</g>
<!-- FabricatorDashboardComponent&#45;&gt;DashboardModule -->
<g id="edge5" class="edge">
<title>FabricatorDashboardComponent&#45;&gt;DashboardModule</title>
<path fill="none" stroke="black" d="M346,-84.82C346,-102.17 346,-125.8 346,-125.8 346,-125.8 582.71,-125.8 582.71,-125.8"/>
<polygon fill="black" stroke="black" points="582.71,-129.3 592.71,-125.8 582.71,-122.3 582.71,-129.3"/>
</g>
<!-- LearningManagementComponent -->
<g id="node6" class="node">
<title>LearningManagementComponent</title>
<polygon fill="#ffffb3" stroke="black" points="228.45,-84.8 23.55,-84.8 23.55,-48.8 228.45,-48.8 228.45,-84.8"/>
<text text-anchor="middle" x="126" y="-62.6" font-family="Times,serif" font-size="14.00">LearningManagementComponent</text>
</g>
<!-- LearningManagementComponent&#45;&gt;DashboardModule -->
<g id="edge6" class="edge">
<title>LearningManagementComponent&#45;&gt;DashboardModule</title>
<path fill="none" stroke="black" d="M126,-85.08C126,-106.12 126,-137.8 126,-137.8 126,-137.8 582.8,-137.8 582.8,-137.8"/>
<polygon fill="black" stroke="black" points="582.8,-141.3 592.8,-137.8 582.8,-134.3 582.8,-141.3"/>
</g>
</g>
</svg>
