<?xml version="1.0" encoding="UTF-8" standalone="no"?>
<!DOCTYPE svg PUBLIC "-//W3C//DTD SVG 1.1//EN"
 "http://www.w3.org/Graphics/SVG/1.1/DTD/svg11.dtd">
<!-- Generated by graphviz version 5.0.0 (20220707.1540)
 -->
<!-- Title: dependencies Pages: 1 -->
<svg width="700pt" height="174pt"
 viewBox="0.00 0.00 700.00 173.80" xmlns="http://www.w3.org/2000/svg" xmlns:xlink="http://www.w3.org/1999/xlink">
<g id="graph0" class="graph" transform="scale(1 1) rotate(0) translate(4 169.8)">
<title>dependencies</title>
<polygon fill="white" stroke="transparent" points="-4,4 -4,-169.8 696,-169.8 696,4 -4,4"/>
<text text-anchor="middle" x="346" y="-8.2" font-family="sans-serif" font-size="14.00">dependencies</text>
<g id="clust1" class="cluster">
<title>cluster_MaterialExampleViewModule</title>
<polygon fill="none" stroke="black" stroke-dasharray="1,5" points="8,-32.8 8,-157.8 684,-157.8 684,-32.8 8,-32.8"/>
</g>
<g id="clust2" class="cluster">
<title>cluster_MaterialExampleViewModule_declarations</title>
<polygon fill="none" stroke="black" points="452,-40.8 452,-92.8 676,-92.8 676,-40.8 452,-40.8"/>
</g>
<g id="clust4" class="cluster">
<title>cluster_MaterialExampleViewModule_imports</title>
<polygon fill="none" stroke="black" points="16,-40.8 16,-92.8 444,-92.8 444,-40.8 16,-40.8"/>
</g>
<!-- MaterialExampleViewComponent -->
<g id="node1" class="node">
<title>MaterialExampleViewComponent</title>
<polygon fill="#ffffb3" stroke="black" points="668.34,-84.8 459.66,-84.8 459.66,-48.8 668.34,-48.8 668.34,-84.8"/>
<text text-anchor="middle" x="564" y="-62.6" font-family="Times,serif" font-size="14.00">MaterialExampleViewComponent</text>
</g>
<!-- MaterialExampleViewModule -->
<g id="node2" class="node">
<title>MaterialExampleViewModule</title>
<polygon fill="#8dd3c7" stroke="black" points="413.56,-149.8 410.56,-153.8 389.56,-153.8 386.56,-149.8 226.44,-149.8 226.44,-113.8 413.56,-113.8 413.56,-149.8"/>
<text text-anchor="middle" x="320" y="-127.6" font-family="Times,serif" font-size="14.00">MaterialExampleViewModule</text>
</g>
<!-- MaterialExampleViewComponent&#45;&gt;MaterialExampleViewModule -->
<g id="edge1" class="edge">
<title>MaterialExampleViewComponent&#45;&gt;MaterialExampleViewModule</title>
<path fill="none" stroke="black" d="M564,-84.91C564,-104.14 564,-131.8 564,-131.8 564,-131.8 423.64,-131.8 423.64,-131.8"/>
<polygon fill="black" stroke="black" points="423.64,-128.3 413.64,-131.8 423.64,-135.3 423.64,-128.3"/>
</g>
<!-- MaterialExampleViewRoutingModule -->
<g id="node3" class="node">
<title>MaterialExampleViewRoutingModule</title>
<polygon fill="#8dd3c7" stroke="black" points="436.17,-84.8 433.17,-88.8 412.17,-88.8 409.17,-84.8 203.83,-84.8 203.83,-48.8 436.17,-48.8 436.17,-84.8"/>
<text text-anchor="middle" x="320" y="-62.6" font-family="Times,serif" font-size="14.00">MaterialExampleViewRoutingModule</text>
</g>
<!-- MaterialExampleViewRoutingModule&#45;&gt;MaterialExampleViewModule -->
<g id="edge2" class="edge">
<title>MaterialExampleViewRoutingModule&#45;&gt;MaterialExampleViewModule</title>
<path fill="none" stroke="black" d="M320,-84.91C320,-84.91 320,-103.79 320,-103.79"/>
<polygon fill="black" stroke="black" points="316.5,-103.79 320,-113.79 323.5,-103.79 316.5,-103.79"/>
</g>
<!-- MaterialExamplesModule -->
<g id="node4" class="node">
<title>MaterialExamplesModule</title>
<polygon fill="#8dd3c7" stroke="black" points="186.18,-84.8 183.18,-88.8 162.18,-88.8 159.18,-84.8 23.82,-84.8 23.82,-48.8 186.18,-48.8 186.18,-84.8"/>
<text text-anchor="middle" x="105" y="-62.6" font-family="Times,serif" font-size="14.00">MaterialExamplesModule</text>
</g>
<!-- MaterialExamplesModule&#45;&gt;MaterialExampleViewModule -->
<g id="edge3" class="edge">
<title>MaterialExamplesModule&#45;&gt;MaterialExampleViewModule</title>
<path fill="none" stroke="black" d="M105,-84.91C105,-104.14 105,-131.8 105,-131.8 105,-131.8 216.32,-131.8 216.32,-131.8"/>
<polygon fill="black" stroke="black" points="216.32,-135.3 226.32,-131.8 216.32,-128.3 216.32,-135.3"/>
</g>
</g>
</svg>
