<?xml version="1.0" encoding="UTF-8" standalone="no"?>
<!DOCTYPE svg PUBLIC "-//W3C//DTD SVG 1.1//EN"
 "http://www.w3.org/Graphics/SVG/1.1/DTD/svg11.dtd">
<!-- Generated by graphviz version 5.0.0 (20220707.1540)
 -->
<!-- Title: dependencies Pages: 1 -->
<svg width="944pt" height="174pt"
 viewBox="0.00 0.00 944.00 173.80" xmlns="http://www.w3.org/2000/svg" xmlns:xlink="http://www.w3.org/1999/xlink">
<g id="graph0" class="graph" transform="scale(1 1) rotate(0) translate(4 169.8)">
<title>dependencies</title>
<polygon fill="white" stroke="transparent" points="-4,4 -4,-169.8 940,-169.8 940,4 -4,4"/>
<text text-anchor="middle" x="468" y="-8.2" font-family="sans-serif" font-size="14.00">dependencies</text>
<g id="clust1" class="cluster">
<title>cluster_TodoModule</title>
<polygon fill="none" stroke="black" stroke-dasharray="1,5" points="8,-32.8 8,-157.8 928,-157.8 928,-32.8 8,-32.8"/>
</g>
<g id="clust8" class="cluster">
<title>cluster_TodoModule_imports</title>
<polygon fill="none" stroke="black" points="770,-40.8 770,-92.8 920,-92.8 920,-40.8 770,-40.8"/>
</g>
<g id="clust2" class="cluster">
<title>cluster_TodoModule_declarations</title>
<polygon fill="none" stroke="black" points="16,-40.8 16,-92.8 762,-92.8 762,-40.8 16,-40.8"/>
</g>
<!-- TagDialogueComponent -->
<g id="node1" class="node">
<title>TagDialogueComponent</title>
<polygon fill="#ffffb3" stroke="black" points="754.41,-84.8 599.59,-84.8 599.59,-48.8 754.41,-48.8 754.41,-84.8"/>
<text text-anchor="middle" x="677" y="-62.6" font-family="Times,serif" font-size="14.00">TagDialogueComponent</text>
</g>
<!-- TodoModule -->
<g id="node6" class="node">
<title>TodoModule</title>
<polygon fill="#8dd3c7" stroke="black" points="495.6,-149.8 492.6,-153.8 471.6,-153.8 468.6,-149.8 406.4,-149.8 406.4,-113.8 495.6,-113.8 495.6,-149.8"/>
<text text-anchor="middle" x="451" y="-127.6" font-family="Times,serif" font-size="14.00">TodoModule</text>
</g>
<!-- TagDialogueComponent&#45;&gt;TodoModule -->
<g id="edge1" class="edge">
<title>TagDialogueComponent&#45;&gt;TodoModule</title>
<path fill="none" stroke="black" d="M677,-84.82C677,-102.17 677,-125.8 677,-125.8 677,-125.8 505.65,-125.8 505.65,-125.8"/>
<polygon fill="black" stroke="black" points="505.65,-122.3 495.65,-125.8 505.65,-129.3 505.65,-122.3"/>
</g>
<!-- TodoComponent -->
<g id="node2" class="node">
<title>TodoComponent</title>
<polygon fill="#ffffb3" stroke="black" points="581.38,-84.8 470.62,-84.8 470.62,-48.8 581.38,-48.8 581.38,-84.8"/>
<text text-anchor="middle" x="526" y="-62.6" font-family="Times,serif" font-size="14.00">TodoComponent</text>
</g>
<!-- TodoComponent&#45;&gt;TodoModule -->
<g id="edge2" class="edge">
<title>TodoComponent&#45;&gt;TodoModule</title>
<path fill="none" stroke="black" d="M483.06,-84.91C483.06,-84.91 483.06,-103.79 483.06,-103.79"/>
<polygon fill="black" stroke="black" points="479.56,-103.79 483.06,-113.79 486.56,-103.79 479.56,-103.79"/>
</g>
<!-- TodoDetailsComponent -->
<g id="node3" class="node">
<title>TodoDetailsComponent</title>
<polygon fill="#ffffb3" stroke="black" points="452.04,-84.8 301.96,-84.8 301.96,-48.8 452.04,-48.8 452.04,-84.8"/>
<text text-anchor="middle" x="377" y="-62.6" font-family="Times,serif" font-size="14.00">TodoDetailsComponent</text>
</g>
<!-- TodoDetailsComponent&#45;&gt;TodoModule -->
<g id="edge3" class="edge">
<title>TodoDetailsComponent&#45;&gt;TodoModule</title>
<path fill="none" stroke="black" d="M429.36,-84.91C429.36,-84.91 429.36,-103.79 429.36,-103.79"/>
<polygon fill="black" stroke="black" points="425.86,-103.79 429.36,-113.79 432.86,-103.79 425.86,-103.79"/>
</g>
<!-- TodoListComponent -->
<g id="node4" class="node">
<title>TodoListComponent</title>
<polygon fill="#ffffb3" stroke="black" points="283.16,-84.8 150.84,-84.8 150.84,-48.8 283.16,-48.8 283.16,-84.8"/>
<text text-anchor="middle" x="217" y="-62.6" font-family="Times,serif" font-size="14.00">TodoListComponent</text>
</g>
<!-- TodoListComponent&#45;&gt;TodoModule -->
<g id="edge4" class="edge">
<title>TodoListComponent&#45;&gt;TodoModule</title>
<path fill="none" stroke="black" d="M217,-84.82C217,-102.17 217,-125.8 217,-125.8 217,-125.8 396.44,-125.8 396.44,-125.8"/>
<polygon fill="black" stroke="black" points="396.44,-129.3 406.44,-125.8 396.44,-122.3 396.44,-129.3"/>
</g>
<!-- TodoSearchPipe -->
<g id="node5" class="node">
<title>TodoSearchPipe</title>
<polygon fill="#ffffb3" stroke="black" points="132.03,-84.8 23.97,-84.8 23.97,-48.8 132.03,-48.8 132.03,-84.8"/>
<text text-anchor="middle" x="78" y="-62.6" font-family="Times,serif" font-size="14.00">TodoSearchPipe</text>
</g>
<!-- TodoSearchPipe&#45;&gt;TodoModule -->
<g id="edge5" class="edge">
<title>TodoSearchPipe&#45;&gt;TodoModule</title>
<path fill="none" stroke="black" d="M78,-85.08C78,-106.12 78,-137.8 78,-137.8 78,-137.8 396.38,-137.8 396.38,-137.8"/>
<polygon fill="black" stroke="black" points="396.38,-141.3 406.38,-137.8 396.38,-134.3 396.38,-141.3"/>
</g>
<!-- TodoRoutingModule -->
<g id="node7" class="node">
<title>TodoRoutingModule</title>
<polygon fill="#8dd3c7" stroke="black" points="912.22,-84.8 909.22,-88.8 888.22,-88.8 885.22,-84.8 777.78,-84.8 777.78,-48.8 912.22,-48.8 912.22,-84.8"/>
<text text-anchor="middle" x="845" y="-62.6" font-family="Times,serif" font-size="14.00">TodoRoutingModule</text>
</g>
<!-- TodoRoutingModule&#45;&gt;TodoModule -->
<g id="edge6" class="edge">
<title>TodoRoutingModule&#45;&gt;TodoModule</title>
<path fill="none" stroke="black" d="M845,-85.08C845,-106.12 845,-137.8 845,-137.8 845,-137.8 505.81,-137.8 505.81,-137.8"/>
<polygon fill="black" stroke="black" points="505.81,-134.3 495.81,-137.8 505.81,-141.3 505.81,-134.3"/>
</g>
</g>
</svg>
