<?xml version="1.0" encoding="UTF-8" standalone="no"?>
<!DOCTYPE svg PUBLIC "-//W3C//DTD SVG 1.1//EN"
 "http://www.w3.org/Graphics/SVG/1.1/DTD/svg11.dtd">
<!-- Generated by graphviz version 5.0.0 (20220707.1540)
 -->
<!-- Title: dependencies Pages: 1 -->
<svg width="703pt" height="174pt"
 viewBox="0.00 0.00 703.00 173.80" xmlns="http://www.w3.org/2000/svg" xmlns:xlink="http://www.w3.org/1999/xlink">
<g id="graph0" class="graph" transform="scale(1 1) rotate(0) translate(4 169.8)">
<title>dependencies</title>
<polygon fill="white" stroke="transparent" points="-4,4 -4,-169.8 699,-169.8 699,4 -4,4"/>
<text text-anchor="middle" x="347.5" y="-8.2" font-family="sans-serif" font-size="14.00">dependencies</text>
<g id="clust1" class="cluster">
<title>cluster_AppChatsModule</title>
<polygon fill="none" stroke="black" stroke-dasharray="1,5" points="8,-32.8 8,-157.8 687,-157.8 687,-32.8 8,-32.8"/>
</g>
<g id="clust2" class="cluster">
<title>cluster_AppChatsModule_declarations</title>
<polygon fill="none" stroke="black" points="156,-40.8 156,-92.8 679,-92.8 679,-40.8 156,-40.8"/>
</g>
<g id="clust9" class="cluster">
<title>cluster_AppChatsModule_providers</title>
<polygon fill="none" stroke="black" points="16,-40.8 16,-92.8 148,-92.8 148,-40.8 16,-40.8"/>
</g>
<!-- AppChatsComponent -->
<g id="node1" class="node">
<title>AppChatsComponent</title>
<polygon fill="#ffffb3" stroke="black" points="670.83,-84.8 533.17,-84.8 533.17,-48.8 670.83,-48.8 670.83,-84.8"/>
<text text-anchor="middle" x="602" y="-62.6" font-family="Times,serif" font-size="14.00">AppChatsComponent</text>
</g>
<!-- AppChatsModule -->
<g id="node4" class="node">
<title>AppChatsModule</title>
<polygon fill="#8dd3c7" stroke="black" points="401.55,-149.8 398.55,-153.8 377.55,-153.8 374.55,-149.8 286.45,-149.8 286.45,-113.8 401.55,-113.8 401.55,-149.8"/>
<text text-anchor="middle" x="344" y="-127.6" font-family="Times,serif" font-size="14.00">AppChatsModule</text>
</g>
<!-- AppChatsComponent&#45;&gt;AppChatsModule -->
<g id="edge1" class="edge">
<title>AppChatsComponent&#45;&gt;AppChatsModule</title>
<path fill="none" stroke="black" d="M602,-84.91C602,-104.14 602,-131.8 602,-131.8 602,-131.8 411.58,-131.8 411.58,-131.8"/>
<polygon fill="black" stroke="black" points="411.58,-128.3 401.58,-131.8 411.58,-135.3 411.58,-128.3"/>
</g>
<!-- ChatContentsComponent -->
<g id="node2" class="node">
<title>ChatContentsComponent</title>
<polygon fill="#ffffb3" stroke="black" points="515.55,-84.8 358.45,-84.8 358.45,-48.8 515.55,-48.8 515.55,-84.8"/>
<text text-anchor="middle" x="437" y="-62.6" font-family="Times,serif" font-size="14.00">ChatContentsComponent</text>
</g>
<!-- ChatContentsComponent&#45;&gt;AppChatsModule -->
<g id="edge2" class="edge">
<title>ChatContentsComponent&#45;&gt;AppChatsModule</title>
<path fill="none" stroke="black" d="M380,-84.91C380,-84.91 380,-103.79 380,-103.79"/>
<polygon fill="black" stroke="black" points="376.5,-103.79 380,-113.79 383.5,-103.79 376.5,-103.79"/>
</g>
<!-- ChatLeftSidenavComponent -->
<g id="node3" class="node">
<title>ChatLeftSidenavComponent</title>
<polygon fill="#ffffb3" stroke="black" points="340.19,-84.8 163.81,-84.8 163.81,-48.8 340.19,-48.8 340.19,-84.8"/>
<text text-anchor="middle" x="252" y="-62.6" font-family="Times,serif" font-size="14.00">ChatLeftSidenavComponent</text>
</g>
<!-- ChatLeftSidenavComponent&#45;&gt;AppChatsModule -->
<g id="edge3" class="edge">
<title>ChatLeftSidenavComponent&#45;&gt;AppChatsModule</title>
<path fill="none" stroke="black" d="M313.16,-84.91C313.16,-84.91 313.16,-103.79 313.16,-103.79"/>
<polygon fill="black" stroke="black" points="309.66,-103.79 313.16,-113.79 316.66,-103.79 309.66,-103.79"/>
</g>
<!-- ChatService -->
<g id="node5" class="node">
<title>ChatService</title>
<ellipse fill="#fdb462" stroke="black" cx="82" cy="-66.8" rx="58.46" ry="18"/>
<text text-anchor="middle" x="82" y="-62.6" font-family="Times,serif" font-size="14.00">ChatService</text>
</g>
<!-- ChatService&#45;&gt;AppChatsModule -->
<g id="edge4" class="edge">
<title>ChatService&#45;&gt;AppChatsModule</title>
<path fill="none" stroke="black" d="M82,-84.91C82,-104.14 82,-131.8 82,-131.8 82,-131.8 276.18,-131.8 276.18,-131.8"/>
<polygon fill="black" stroke="black" points="276.18,-135.3 286.18,-131.8 276.18,-128.3 276.18,-135.3"/>
</g>
</g>
</svg>
