<?xml version="1.0" encoding="UTF-8" standalone="no"?>
<!DOCTYPE svg PUBLIC "-//W3C//DTD SVG 1.1//EN"
 "http://www.w3.org/Graphics/SVG/1.1/DTD/svg11.dtd">
<!-- Generated by graphviz version 5.0.0 (20220707.1540)
 -->
<!-- Title: dependencies Pages: 1 -->
<svg width="1118pt" height="247pt"
 viewBox="0.00 0.00 1118.00 246.80" xmlns="http://www.w3.org/2000/svg" xmlns:xlink="http://www.w3.org/1999/xlink">
<g id="graph0" class="graph" transform="scale(1 1) rotate(0) translate(4 242.8)">
<title>dependencies</title>
<polygon fill="white" stroke="transparent" points="-4,4 -4,-242.8 1114,-242.8 1114,4 -4,4"/>
<text text-anchor="middle" x="555" y="-8.2" font-family="sans-serif" font-size="14.00">dependencies</text>
<g id="clust1" class="cluster">
<title>cluster_SharedModule</title>
<polygon fill="none" stroke="black" stroke-dasharray="1,5" points="8,-32.8 8,-230.8 1102,-230.8 1102,-32.8 8,-32.8"/>
</g>
<g id="clust4" class="cluster">
<title>cluster_SharedModule_exports</title>
<polygon fill="none" stroke="black" points="445,-170.8 445,-222.8 621,-222.8 621,-170.8 445,-170.8"/>
</g>
<g id="clust3" class="cluster">
<title>cluster_SharedModule_imports</title>
<polygon fill="none" stroke="black" points="922,-40.8 922,-92.8 1094,-92.8 1094,-40.8 922,-40.8"/>
</g>
<g id="clust6" class="cluster">
<title>cluster_SharedModule_providers</title>
<polygon fill="none" stroke="black" points="16,-40.8 16,-92.8 914,-92.8 914,-40.8 16,-40.8"/>
</g>
<!-- SharedDirectivesModule -->
<g id="node1" class="node">
<title>SharedDirectivesModule</title>
<polygon fill="#8dd3c7" stroke="black" points="1085.96,-84.8 1082.96,-88.8 1061.96,-88.8 1058.96,-84.8 930.04,-84.8 930.04,-48.8 1085.96,-48.8 1085.96,-84.8"/>
<text text-anchor="middle" x="1008" y="-62.6" font-family="Times,serif" font-size="14.00">SharedDirectivesModule</text>
</g>
<!-- SharedModule -->
<g id="node2" class="node">
<title>SharedModule</title>
<polygon fill="#8dd3c7" stroke="black" points="582.43,-149.8 579.43,-153.8 558.43,-153.8 555.43,-149.8 483.57,-149.8 483.57,-113.8 582.43,-113.8 582.43,-149.8"/>
<text text-anchor="middle" x="533" y="-127.6" font-family="Times,serif" font-size="14.00">SharedModule</text>
</g>
<!-- SharedDirectivesModule&#45;&gt;SharedModule -->
<g id="edge1" class="edge">
<title>SharedDirectivesModule&#45;&gt;SharedModule</title>
<path fill="none" stroke="black" d="M1008,-85.08C1008,-106.12 1008,-137.8 1008,-137.8 1008,-137.8 592.49,-137.8 592.49,-137.8"/>
<polygon fill="black" stroke="black" points="592.49,-134.3 582.49,-137.8 592.49,-141.3 592.49,-134.3"/>
</g>
<!-- SharedDirectivesModule  -->
<g id="node3" class="node">
<title>SharedDirectivesModule </title>
<polygon fill="#fb8072" stroke="black" points="612.96,-214.8 453.04,-214.8 453.04,-178.8 612.96,-178.8 612.96,-214.8"/>
<text text-anchor="middle" x="533" y="-192.6" font-family="Times,serif" font-size="14.00">SharedDirectivesModule </text>
</g>
<!-- SharedModule&#45;&gt;SharedDirectivesModule  -->
<g id="edge2" class="edge">
<title>SharedModule&#45;&gt;SharedDirectivesModule </title>
<path fill="none" stroke="black" stroke-dasharray="5,2" d="M533,-149.91C533,-149.91 533,-168.79 533,-168.79"/>
<polygon fill="black" stroke="black" points="529.5,-168.79 533,-178.79 536.5,-168.79 529.5,-168.79"/>
</g>
<!-- AppConfirmService -->
<g id="node4" class="node">
<title>AppConfirmService</title>
<ellipse fill="#fdb462" stroke="black" cx="817" cy="-66.8" rx="89.2" ry="18"/>
<text text-anchor="middle" x="817" y="-62.6" font-family="Times,serif" font-size="14.00">AppConfirmService</text>
</g>
<!-- AppConfirmService&#45;&gt;SharedModule -->
<g id="edge3" class="edge">
<title>AppConfirmService&#45;&gt;SharedModule</title>
<path fill="none" stroke="black" d="M817,-84.82C817,-102.17 817,-125.8 817,-125.8 817,-125.8 592.47,-125.8 592.47,-125.8"/>
<polygon fill="black" stroke="black" points="592.47,-122.3 582.47,-125.8 592.47,-129.3 592.47,-122.3"/>
</g>
<!-- AppLoaderService -->
<g id="node5" class="node">
<title>AppLoaderService</title>
<ellipse fill="#fdb462" stroke="black" cx="626" cy="-66.8" rx="83.94" ry="18"/>
<text text-anchor="middle" x="626" y="-62.6" font-family="Times,serif" font-size="14.00">AppLoaderService</text>
</g>
<!-- AppLoaderService&#45;&gt;SharedModule -->
<g id="edge4" class="edge">
<title>AppLoaderService&#45;&gt;SharedModule</title>
<path fill="none" stroke="black" d="M562.12,-78.72C562.12,-78.72 562.12,-103.57 562.12,-103.57"/>
<polygon fill="black" stroke="black" points="558.62,-103.57 562.12,-113.57 565.62,-103.57 558.62,-103.57"/>
</g>
<!-- NavigationService -->
<g id="node6" class="node">
<title>NavigationService</title>
<ellipse fill="#fdb462" stroke="black" cx="441" cy="-66.8" rx="82.81" ry="18"/>
<text text-anchor="middle" x="441" y="-62.6" font-family="Times,serif" font-size="14.00">NavigationService</text>
</g>
<!-- NavigationService&#45;&gt;SharedModule -->
<g id="edge5" class="edge">
<title>NavigationService&#45;&gt;SharedModule</title>
<path fill="none" stroke="black" d="M503.84,-78.72C503.84,-78.72 503.84,-103.57 503.84,-103.57"/>
<polygon fill="black" stroke="black" points="500.34,-103.57 503.84,-113.57 507.34,-103.57 500.34,-103.57"/>
</g>
<!-- RoutePartsService -->
<g id="node7" class="node">
<title>RoutePartsService</title>
<ellipse fill="#fdb462" stroke="black" cx="258" cy="-66.8" rx="82.25" ry="18"/>
<text text-anchor="middle" x="258" y="-62.6" font-family="Times,serif" font-size="14.00">RoutePartsService</text>
</g>
<!-- RoutePartsService&#45;&gt;SharedModule -->
<g id="edge6" class="edge">
<title>RoutePartsService&#45;&gt;SharedModule</title>
<path fill="none" stroke="black" d="M258,-84.82C258,-102.17 258,-125.8 258,-125.8 258,-125.8 473.52,-125.8 473.52,-125.8"/>
<polygon fill="black" stroke="black" points="473.52,-129.3 483.52,-125.8 473.52,-122.3 473.52,-129.3"/>
</g>
<!-- ThemeService -->
<g id="node8" class="node">
<title>ThemeService</title>
<ellipse fill="#fdb462" stroke="black" cx="91" cy="-66.8" rx="66.61" ry="18"/>
<text text-anchor="middle" x="91" y="-62.6" font-family="Times,serif" font-size="14.00">ThemeService</text>
</g>
<!-- ThemeService&#45;&gt;SharedModule -->
<g id="edge7" class="edge">
<title>ThemeService&#45;&gt;SharedModule</title>
<path fill="none" stroke="black" d="M91,-85.08C91,-106.12 91,-137.8 91,-137.8 91,-137.8 473.58,-137.8 473.58,-137.8"/>
<polygon fill="black" stroke="black" points="473.58,-141.3 483.58,-137.8 473.58,-134.3 473.58,-141.3"/>
</g>
</g>
</svg>
