<?xml version="1.0" encoding="UTF-8" standalone="no"?>
<!DOCTYPE svg PUBLIC "-//W3C//DTD SVG 1.1//EN"
 "http://www.w3.org/Graphics/SVG/1.1/DTD/svg11.dtd">
<!-- Generated by graphviz version 5.0.0 (20220707.1540)
 -->
<!-- Title: dependencies Pages: 1 -->
<svg width="398pt" height="174pt"
 viewBox="0.00 0.00 398.00 173.80" xmlns="http://www.w3.org/2000/svg" xmlns:xlink="http://www.w3.org/1999/xlink">
<g id="graph0" class="graph" transform="scale(1 1) rotate(0) translate(4 169.8)">
<title>dependencies</title>
<polygon fill="white" stroke="transparent" points="-4,4 -4,-169.8 394,-169.8 394,4 -4,4"/>
<text text-anchor="middle" x="195" y="-8.2" font-family="sans-serif" font-size="14.00">dependencies</text>
<g id="clust1" class="cluster">
<title>cluster_SearchViewModule</title>
<polygon fill="none" stroke="black" stroke-dasharray="1,5" points="8,-32.8 8,-157.8 382,-157.8 382,-32.8 8,-32.8"/>
</g>
<g id="clust2" class="cluster">
<title>cluster_SearchViewModule_declarations</title>
<polygon fill="none" stroke="black" points="214,-40.8 214,-92.8 374,-92.8 374,-40.8 214,-40.8"/>
</g>
<g id="clust4" class="cluster">
<title>cluster_SearchViewModule_imports</title>
<polygon fill="none" stroke="black" points="16,-40.8 16,-92.8 206,-92.8 206,-40.8 16,-40.8"/>
</g>
<!-- ResultPageComponent -->
<g id="node1" class="node">
<title>ResultPageComponent</title>
<polygon fill="#ffffb3" stroke="black" points="366.32,-84.8 221.68,-84.8 221.68,-48.8 366.32,-48.8 366.32,-84.8"/>
<text text-anchor="middle" x="294" y="-62.6" font-family="Times,serif" font-size="14.00">ResultPageComponent</text>
</g>
<!-- SearchViewModule -->
<g id="node2" class="node">
<title>SearchViewModule</title>
<polygon fill="#8dd3c7" stroke="black" points="265.97,-149.8 262.97,-153.8 241.97,-153.8 238.97,-149.8 138.03,-149.8 138.03,-113.8 265.97,-113.8 265.97,-149.8"/>
<text text-anchor="middle" x="202" y="-127.6" font-family="Times,serif" font-size="14.00">SearchViewModule</text>
</g>
<!-- ResultPageComponent&#45;&gt;SearchViewModule -->
<g id="edge1" class="edge">
<title>ResultPageComponent&#45;&gt;SearchViewModule</title>
<path fill="none" stroke="black" d="M243.91,-84.91C243.91,-84.91 243.91,-103.79 243.91,-103.79"/>
<polygon fill="black" stroke="black" points="240.41,-103.79 243.91,-113.79 247.41,-103.79 240.41,-103.79"/>
</g>
<!-- SearchViewRoutingModule -->
<g id="node3" class="node">
<title>SearchViewRoutingModule</title>
<polygon fill="#8dd3c7" stroke="black" points="197.58,-84.8 194.58,-88.8 173.58,-88.8 170.58,-84.8 24.42,-84.8 24.42,-48.8 197.58,-48.8 197.58,-84.8"/>
<text text-anchor="middle" x="111" y="-62.6" font-family="Times,serif" font-size="14.00">SearchViewRoutingModule</text>
</g>
<!-- SearchViewRoutingModule&#45;&gt;SearchViewModule -->
<g id="edge2" class="edge">
<title>SearchViewRoutingModule&#45;&gt;SearchViewModule</title>
<path fill="none" stroke="black" d="M167.78,-84.91C167.78,-84.91 167.78,-103.79 167.78,-103.79"/>
<polygon fill="black" stroke="black" points="164.28,-103.79 167.78,-113.79 171.28,-103.79 164.28,-103.79"/>
</g>
</g>
</svg>
