<?xml version="1.0" encoding="UTF-8" standalone="no"?>
<!DOCTYPE svg PUBLIC "-//W3C//DTD SVG 1.1//EN"
 "http://www.w3.org/Graphics/SVG/1.1/DTD/svg11.dtd">
<!-- Generated by graphviz version 5.0.0 (20220707.1540)
 -->
<!-- Title: dependencies Pages: 1 -->
<svg width="354pt" height="174pt"
 viewBox="0.00 0.00 354.00 173.80" xmlns="http://www.w3.org/2000/svg" xmlns:xlink="http://www.w3.org/1999/xlink">
<g id="graph0" class="graph" transform="scale(1 1) rotate(0) translate(4 169.8)">
<title>dependencies</title>
<polygon fill="white" stroke="transparent" points="-4,4 -4,-169.8 350,-169.8 350,4 -4,4"/>
<text text-anchor="middle" x="173" y="-8.2" font-family="sans-serif" font-size="14.00">dependencies</text>
<g id="clust1" class="cluster">
<title>cluster_MatIconsModule</title>
<polygon fill="none" stroke="black" stroke-dasharray="1,5" points="8,-32.8 8,-157.8 338,-157.8 338,-32.8 8,-32.8"/>
</g>
<g id="clust2" class="cluster">
<title>cluster_MatIconsModule_declarations</title>
<polygon fill="none" stroke="black" points="16,-40.8 16,-92.8 330,-92.8 330,-40.8 16,-40.8"/>
</g>
<!-- MatIconsComponent -->
<g id="node1" class="node">
<title>MatIconsComponent</title>
<polygon fill="#ffffb3" stroke="black" points="322.21,-84.8 187.79,-84.8 187.79,-48.8 322.21,-48.8 322.21,-84.8"/>
<text text-anchor="middle" x="255" y="-62.6" font-family="Times,serif" font-size="14.00">MatIconsComponent</text>
</g>
<!-- MatIconsModule -->
<g id="node3" class="node">
<title>MatIconsModule</title>
<polygon fill="#8dd3c7" stroke="black" points="232.43,-149.8 229.43,-153.8 208.43,-153.8 205.43,-149.8 119.57,-149.8 119.57,-113.8 232.43,-113.8 232.43,-149.8"/>
<text text-anchor="middle" x="176" y="-127.6" font-family="Times,serif" font-size="14.00">MatIconsModule</text>
</g>
<!-- MatIconsComponent&#45;&gt;MatIconsModule -->
<g id="edge1" class="edge">
<title>MatIconsComponent&#45;&gt;MatIconsModule</title>
<path fill="none" stroke="black" d="M210.06,-84.91C210.06,-84.91 210.06,-103.79 210.06,-103.79"/>
<polygon fill="black" stroke="black" points="206.56,-103.79 210.06,-113.79 213.56,-103.79 206.56,-103.79"/>
</g>
<!-- UILibIconsComponent -->
<g id="node2" class="node">
<title>UILibIconsComponent</title>
<polygon fill="#ffffb3" stroke="black" points="169.87,-84.8 24.13,-84.8 24.13,-48.8 169.87,-48.8 169.87,-84.8"/>
<text text-anchor="middle" x="97" y="-62.6" font-family="Times,serif" font-size="14.00">UILibIconsComponent</text>
</g>
<!-- UILibIconsComponent&#45;&gt;MatIconsModule -->
<g id="edge2" class="edge">
<title>UILibIconsComponent&#45;&gt;MatIconsModule</title>
<path fill="none" stroke="black" d="M144.86,-84.91C144.86,-84.91 144.86,-103.79 144.86,-103.79"/>
<polygon fill="black" stroke="black" points="141.36,-103.79 144.86,-113.79 148.36,-103.79 141.36,-103.79"/>
</g>
</g>
</svg>
