<?xml version="1.0" encoding="UTF-8" standalone="no"?>
<!DOCTYPE svg PUBLIC "-//W3C//DTD SVG 1.1//EN"
 "http://www.w3.org/Graphics/SVG/1.1/DTD/svg11.dtd">
<!-- Generated by graphviz version 5.0.0 (20220707.1540)
 -->
<!-- Title: dependencies Pages: 1 -->
<svg width="372pt" height="239pt"
 viewBox="0.00 0.00 372.00 238.80" xmlns="http://www.w3.org/2000/svg" xmlns:xlink="http://www.w3.org/1999/xlink">
<g id="graph0" class="graph" transform="scale(1 1) rotate(0) translate(4 234.8)">
<title>dependencies</title>
<polygon fill="white" stroke="transparent" points="-4,4 -4,-234.8 368,-234.8 368,4 -4,4"/>
<text text-anchor="middle" x="182" y="-8.2" font-family="sans-serif" font-size="14.00">dependencies</text>
<g id="clust1" class="cluster">
<title>cluster_AppInboxModule</title>
<polygon fill="none" stroke="black" stroke-dasharray="1,5" points="8,-32.8 8,-222.8 356,-222.8 356,-32.8 8,-32.8"/>
</g>
<g id="clust2" class="cluster">
<title>cluster_AppInboxModule_declarations</title>
<polygon fill="none" stroke="black" points="16,-105.8 16,-157.8 348,-157.8 348,-105.8 16,-105.8"/>
</g>
<g id="clust3" class="cluster">
<title>cluster_AppInboxModule_AppInboxComponent_providers</title>
<polygon fill="none" stroke="black" points="174,-40.8 174,-92.8 348,-92.8 348,-40.8 174,-40.8"/>
</g>
<!-- AppInboxComponent -->
<g id="node1" class="node">
<title>AppInboxComponent</title>
<polygon fill="#ffffb3" stroke="black" points="340.1,-149.8 201.9,-149.8 201.9,-113.8 340.1,-113.8 340.1,-149.8"/>
<text text-anchor="middle" x="271" y="-127.6" font-family="Times,serif" font-size="14.00">AppInboxComponent</text>
</g>
<!-- AppInboxModule -->
<g id="node3" class="node">
<title>AppInboxModule</title>
<polygon fill="#8dd3c7" stroke="black" points="245.32,-214.8 242.32,-218.8 221.32,-218.8 218.32,-214.8 128.68,-214.8 128.68,-178.8 245.32,-178.8 245.32,-214.8"/>
<text text-anchor="middle" x="187" y="-192.6" font-family="Times,serif" font-size="14.00">AppInboxModule</text>
</g>
<!-- AppInboxComponent&#45;&gt;AppInboxModule -->
<g id="edge1" class="edge">
<title>AppInboxComponent&#45;&gt;AppInboxModule</title>
<path fill="none" stroke="black" d="M223.56,-149.91C223.56,-149.91 223.56,-168.79 223.56,-168.79"/>
<polygon fill="black" stroke="black" points="220.06,-168.79 223.56,-178.79 227.06,-168.79 220.06,-168.79"/>
</g>
<!-- MailComposeComponent -->
<g id="node2" class="node">
<title>MailComposeComponent</title>
<polygon fill="#ffffb3" stroke="black" points="184.16,-149.8 23.84,-149.8 23.84,-113.8 184.16,-113.8 184.16,-149.8"/>
<text text-anchor="middle" x="104" y="-127.6" font-family="Times,serif" font-size="14.00">MailComposeComponent</text>
</g>
<!-- MailComposeComponent&#45;&gt;AppInboxModule -->
<g id="edge3" class="edge">
<title>MailComposeComponent&#45;&gt;AppInboxModule</title>
<path fill="none" stroke="black" d="M156.58,-149.91C156.58,-149.91 156.58,-168.79 156.58,-168.79"/>
<polygon fill="black" stroke="black" points="153.08,-168.79 156.58,-178.79 160.08,-168.79 153.08,-168.79"/>
</g>
<!-- AppInboxService -->
<g id="node4" class="node">
<title>AppInboxService</title>
<ellipse fill="#fdb462" stroke="black" cx="261" cy="-66.8" rx="79.31" ry="18"/>
<text text-anchor="middle" x="261" y="-62.6" font-family="Times,serif" font-size="14.00">AppInboxService</text>
</g>
<!-- AppInboxService&#45;&gt;AppInboxComponent -->
<g id="edge2" class="edge">
<title>AppInboxService&#45;&gt;AppInboxComponent</title>
<path fill="none" stroke="black" d="M271,-84.91C271,-84.91 271,-103.79 271,-103.79"/>
<polygon fill="black" stroke="black" points="267.5,-103.79 271,-113.79 274.5,-103.79 267.5,-103.79"/>
</g>
</g>
</svg>
