<?xml version="1.0" encoding="UTF-8" standalone="no"?>
<!DOCTYPE svg PUBLIC "-//W3C//DTD SVG 1.1//EN"
 "http://www.w3.org/Graphics/SVG/1.1/DTD/svg11.dtd">
<!-- Generated by graphviz version 5.0.0 (20220707.1540)
 -->
<!-- Title: dependencies Pages: 1 -->
<svg width="652pt" height="174pt"
 viewBox="0.00 0.00 652.00 173.80" xmlns="http://www.w3.org/2000/svg" xmlns:xlink="http://www.w3.org/1999/xlink">
<g id="graph0" class="graph" transform="scale(1 1) rotate(0) translate(4 169.8)">
<title>dependencies</title>
<polygon fill="white" stroke="transparent" points="-4,4 -4,-169.8 648,-169.8 648,4 -4,4"/>
<text text-anchor="middle" x="322" y="-8.2" font-family="sans-serif" font-size="14.00">dependencies</text>
<g id="clust1" class="cluster">
<title>cluster_ChartExampleViewModule</title>
<polygon fill="none" stroke="black" stroke-dasharray="1,5" points="8,-32.8 8,-157.8 636,-157.8 636,-32.8 8,-32.8"/>
</g>
<g id="clust2" class="cluster">
<title>cluster_ChartExampleViewModule_declarations</title>
<polygon fill="none" stroke="black" points="420,-40.8 420,-92.8 628,-92.8 628,-40.8 420,-40.8"/>
</g>
<g id="clust4" class="cluster">
<title>cluster_ChartExampleViewModule_imports</title>
<polygon fill="none" stroke="black" points="16,-40.8 16,-92.8 412,-92.8 412,-40.8 16,-40.8"/>
</g>
<!-- ChartExampleViewComponent -->
<g id="node1" class="node">
<title>ChartExampleViewComponent</title>
<polygon fill="#ffffb3" stroke="black" points="620.02,-84.8 427.98,-84.8 427.98,-48.8 620.02,-48.8 620.02,-84.8"/>
<text text-anchor="middle" x="524" y="-62.6" font-family="Times,serif" font-size="14.00">ChartExampleViewComponent</text>
</g>
<!-- ChartExampleViewModule -->
<g id="node2" class="node">
<title>ChartExampleViewModule</title>
<polygon fill="#8dd3c7" stroke="black" points="381.24,-149.8 378.24,-153.8 357.24,-153.8 354.24,-149.8 210.76,-149.8 210.76,-113.8 381.24,-113.8 381.24,-149.8"/>
<text text-anchor="middle" x="296" y="-127.6" font-family="Times,serif" font-size="14.00">ChartExampleViewModule</text>
</g>
<!-- ChartExampleViewComponent&#45;&gt;ChartExampleViewModule -->
<g id="edge1" class="edge">
<title>ChartExampleViewComponent&#45;&gt;ChartExampleViewModule</title>
<path fill="none" stroke="black" d="M524,-84.91C524,-104.14 524,-131.8 524,-131.8 524,-131.8 391.55,-131.8 391.55,-131.8"/>
<polygon fill="black" stroke="black" points="391.55,-128.3 381.55,-131.8 391.55,-135.3 391.55,-128.3"/>
</g>
<!-- ChartExampleViewRoutingModule -->
<g id="node3" class="node">
<title>ChartExampleViewRoutingModule</title>
<polygon fill="#8dd3c7" stroke="black" points="403.86,-84.8 400.86,-88.8 379.86,-88.8 376.86,-84.8 188.14,-84.8 188.14,-48.8 403.86,-48.8 403.86,-84.8"/>
<text text-anchor="middle" x="296" y="-62.6" font-family="Times,serif" font-size="14.00">ChartExampleViewRoutingModule</text>
</g>
<!-- ChartExampleViewRoutingModule&#45;&gt;ChartExampleViewModule -->
<g id="edge2" class="edge">
<title>ChartExampleViewRoutingModule&#45;&gt;ChartExampleViewModule</title>
<path fill="none" stroke="black" d="M296,-84.91C296,-84.91 296,-103.79 296,-103.79"/>
<polygon fill="black" stroke="black" points="292.5,-103.79 296,-113.79 299.5,-103.79 292.5,-103.79"/>
</g>
<!-- ChartExamplesModule -->
<g id="node4" class="node">
<title>ChartExamplesModule</title>
<polygon fill="#8dd3c7" stroke="black" points="169.86,-84.8 166.86,-88.8 145.86,-88.8 142.86,-84.8 24.14,-84.8 24.14,-48.8 169.86,-48.8 169.86,-84.8"/>
<text text-anchor="middle" x="97" y="-62.6" font-family="Times,serif" font-size="14.00">ChartExamplesModule</text>
</g>
<!-- ChartExamplesModule&#45;&gt;ChartExampleViewModule -->
<g id="edge3" class="edge">
<title>ChartExamplesModule&#45;&gt;ChartExampleViewModule</title>
<path fill="none" stroke="black" d="M97,-84.91C97,-104.14 97,-131.8 97,-131.8 97,-131.8 200.74,-131.8 200.74,-131.8"/>
<polygon fill="black" stroke="black" points="200.74,-135.3 210.74,-131.8 200.74,-128.3 200.74,-135.3"/>
</g>
</g>
</svg>
