<?xml version="1.0" encoding="UTF-8" standalone="no"?>
<!DOCTYPE svg PUBLIC "-//W3C//DTD SVG 1.1//EN"
 "http://www.w3.org/Graphics/SVG/1.1/DTD/svg11.dtd">
<!-- Generated by graphviz version 5.0.0 (20220707.1540)
 -->
<!-- Title: dependencies Pages: 1 -->
<svg width="636pt" height="174pt"
 viewBox="0.00 0.00 636.00 173.80" xmlns="http://www.w3.org/2000/svg" xmlns:xlink="http://www.w3.org/1999/xlink">
<g id="graph0" class="graph" transform="scale(1 1) rotate(0) translate(4 169.8)">
<title>dependencies</title>
<polygon fill="white" stroke="transparent" points="-4,4 -4,-169.8 632,-169.8 632,4 -4,4"/>
<text text-anchor="middle" x="314" y="-8.2" font-family="sans-serif" font-size="14.00">dependencies</text>
<g id="clust1" class="cluster">
<title>cluster_AppCalendarModule</title>
<polygon fill="none" stroke="black" stroke-dasharray="1,5" points="8,-32.8 8,-157.8 620,-157.8 620,-32.8 8,-32.8"/>
</g>
<g id="clust2" class="cluster">
<title>cluster_AppCalendarModule_declarations</title>
<polygon fill="none" stroke="black" points="222,-40.8 222,-92.8 612,-92.8 612,-40.8 222,-40.8"/>
</g>
<g id="clust8" class="cluster">
<title>cluster_AppCalendarModule_providers</title>
<polygon fill="none" stroke="black" points="16,-40.8 16,-92.8 214,-92.8 214,-40.8 16,-40.8"/>
</g>
<!-- AppCalendarComponent -->
<g id="node1" class="node">
<title>AppCalendarComponent</title>
<polygon fill="#ffffb3" stroke="black" points="603.97,-84.8 448.03,-84.8 448.03,-48.8 603.97,-48.8 603.97,-84.8"/>
<text text-anchor="middle" x="526" y="-62.6" font-family="Times,serif" font-size="14.00">AppCalendarComponent</text>
</g>
<!-- AppCalendarModule -->
<g id="node3" class="node">
<title>AppCalendarModule</title>
<polygon fill="#8dd3c7" stroke="black" points="397.19,-149.8 394.19,-153.8 373.19,-153.8 370.19,-149.8 262.81,-149.8 262.81,-113.8 397.19,-113.8 397.19,-149.8"/>
<text text-anchor="middle" x="330" y="-127.6" font-family="Times,serif" font-size="14.00">AppCalendarModule</text>
</g>
<!-- AppCalendarComponent&#45;&gt;AppCalendarModule -->
<g id="edge1" class="edge">
<title>AppCalendarComponent&#45;&gt;AppCalendarModule</title>
<path fill="none" stroke="black" d="M526,-84.91C526,-104.14 526,-131.8 526,-131.8 526,-131.8 407.18,-131.8 407.18,-131.8"/>
<polygon fill="black" stroke="black" points="407.18,-128.3 397.18,-131.8 407.18,-135.3 407.18,-128.3"/>
</g>
<!-- CalendarFormDialogComponent -->
<g id="node2" class="node">
<title>CalendarFormDialogComponent</title>
<polygon fill="#ffffb3" stroke="black" points="430.3,-84.8 229.7,-84.8 229.7,-48.8 430.3,-48.8 430.3,-84.8"/>
<text text-anchor="middle" x="330" y="-62.6" font-family="Times,serif" font-size="14.00">CalendarFormDialogComponent</text>
</g>
<!-- CalendarFormDialogComponent&#45;&gt;AppCalendarModule -->
<g id="edge2" class="edge">
<title>CalendarFormDialogComponent&#45;&gt;AppCalendarModule</title>
<path fill="none" stroke="black" d="M330,-84.91C330,-84.91 330,-103.79 330,-103.79"/>
<polygon fill="black" stroke="black" points="326.5,-103.79 330,-113.79 333.5,-103.79 326.5,-103.79"/>
</g>
<!-- AppCalendarService -->
<g id="node4" class="node">
<title>AppCalendarService</title>
<ellipse fill="#fdb462" stroke="black" cx="115" cy="-66.8" rx="91.46" ry="18"/>
<text text-anchor="middle" x="115" y="-62.6" font-family="Times,serif" font-size="14.00">AppCalendarService</text>
</g>
<!-- AppCalendarService&#45;&gt;AppCalendarModule -->
<g id="edge3" class="edge">
<title>AppCalendarService&#45;&gt;AppCalendarModule</title>
<path fill="none" stroke="black" d="M115,-84.91C115,-104.14 115,-131.8 115,-131.8 115,-131.8 252.86,-131.8 252.86,-131.8"/>
<polygon fill="black" stroke="black" points="252.86,-135.3 262.86,-131.8 252.86,-128.3 252.86,-135.3"/>
</g>
</g>
</svg>
