<?xml version="1.0" encoding="UTF-8" standalone="no"?>
<!DOCTYPE svg PUBLIC "-//W3C//DTD SVG 1.1//EN"
 "http://www.w3.org/Graphics/SVG/1.1/DTD/svg11.dtd">
<!-- Generated by graphviz version 5.0.0 (20220707.1540)
 -->
<!-- Title: dependencies Pages: 1 -->
<svg width="721pt" height="174pt"
 viewBox="0.00 0.00 721.00 173.80" xmlns="http://www.w3.org/2000/svg" xmlns:xlink="http://www.w3.org/1999/xlink">
<g id="graph0" class="graph" transform="scale(1 1) rotate(0) translate(4 169.8)">
<title>dependencies</title>
<polygon fill="white" stroke="transparent" points="-4,4 -4,-169.8 717,-169.8 717,4 -4,4"/>
<text text-anchor="middle" x="356.5" y="-8.2" font-family="sans-serif" font-size="14.00">dependencies</text>
<g id="clust1" class="cluster">
<title>cluster_ProfileModule</title>
<polygon fill="none" stroke="black" stroke-dasharray="1,5" points="8,-32.8 8,-157.8 705,-157.8 705,-32.8 8,-32.8"/>
</g>
<g id="clust2" class="cluster">
<title>cluster_ProfileModule_declarations</title>
<polygon fill="none" stroke="black" points="16,-40.8 16,-92.8 697,-92.8 697,-40.8 16,-40.8"/>
</g>
<!-- ProfileBlankComponent -->
<g id="node1" class="node">
<title>ProfileBlankComponent</title>
<polygon fill="#ffffb3" stroke="black" points="689.38,-84.8 536.62,-84.8 536.62,-48.8 689.38,-48.8 689.38,-84.8"/>
<text text-anchor="middle" x="613" y="-62.6" font-family="Times,serif" font-size="14.00">ProfileBlankComponent</text>
</g>
<!-- ProfileModule -->
<g id="node5" class="node">
<title>ProfileModule</title>
<polygon fill="#8dd3c7" stroke="black" points="424.66,-149.8 421.66,-153.8 400.66,-153.8 397.66,-149.8 327.34,-149.8 327.34,-113.8 424.66,-113.8 424.66,-149.8"/>
<text text-anchor="middle" x="376" y="-127.6" font-family="Times,serif" font-size="14.00">ProfileModule</text>
</g>
<!-- ProfileBlankComponent&#45;&gt;ProfileModule -->
<g id="edge1" class="edge">
<title>ProfileBlankComponent&#45;&gt;ProfileModule</title>
<path fill="none" stroke="black" d="M613,-84.91C613,-104.14 613,-131.8 613,-131.8 613,-131.8 434.82,-131.8 434.82,-131.8"/>
<polygon fill="black" stroke="black" points="434.82,-128.3 424.82,-131.8 434.82,-135.3 434.82,-128.3"/>
</g>
<!-- ProfileComponent -->
<g id="node2" class="node">
<title>ProfileComponent</title>
<polygon fill="#ffffb3" stroke="black" points="518.94,-84.8 399.06,-84.8 399.06,-48.8 518.94,-48.8 518.94,-84.8"/>
<text text-anchor="middle" x="459" y="-62.6" font-family="Times,serif" font-size="14.00">ProfileComponent</text>
</g>
<!-- ProfileComponent&#45;&gt;ProfileModule -->
<g id="edge2" class="edge">
<title>ProfileComponent&#45;&gt;ProfileModule</title>
<path fill="none" stroke="black" d="M412.06,-84.91C412.06,-84.91 412.06,-103.79 412.06,-103.79"/>
<polygon fill="black" stroke="black" points="408.56,-103.79 412.06,-113.79 415.56,-103.79 408.56,-103.79"/>
</g>
<!-- ProfileOverviewComponent -->
<g id="node3" class="node">
<title>ProfileOverviewComponent</title>
<polygon fill="#ffffb3" stroke="black" points="381.14,-84.8 206.86,-84.8 206.86,-48.8 381.14,-48.8 381.14,-84.8"/>
<text text-anchor="middle" x="294" y="-62.6" font-family="Times,serif" font-size="14.00">ProfileOverviewComponent</text>
</g>
<!-- ProfileOverviewComponent&#45;&gt;ProfileModule -->
<g id="edge3" class="edge">
<title>ProfileOverviewComponent&#45;&gt;ProfileModule</title>
<path fill="none" stroke="black" d="M354.24,-84.91C354.24,-84.91 354.24,-103.79 354.24,-103.79"/>
<polygon fill="black" stroke="black" points="350.74,-103.79 354.24,-113.79 357.74,-103.79 350.74,-103.79"/>
</g>
<!-- ProfileSettingsComponent -->
<g id="node4" class="node">
<title>ProfileSettingsComponent</title>
<polygon fill="#ffffb3" stroke="black" points="188.05,-84.8 23.95,-84.8 23.95,-48.8 188.05,-48.8 188.05,-84.8"/>
<text text-anchor="middle" x="106" y="-62.6" font-family="Times,serif" font-size="14.00">ProfileSettingsComponent</text>
</g>
<!-- ProfileSettingsComponent&#45;&gt;ProfileModule -->
<g id="edge4" class="edge">
<title>ProfileSettingsComponent&#45;&gt;ProfileModule</title>
<path fill="none" stroke="black" d="M106,-84.91C106,-104.14 106,-131.8 106,-131.8 106,-131.8 317.11,-131.8 317.11,-131.8"/>
<polygon fill="black" stroke="black" points="317.11,-135.3 327.11,-131.8 317.11,-128.3 317.11,-135.3"/>
</g>
</g>
</svg>
