<?xml version="1.0" encoding="UTF-8" standalone="no"?>
<!DOCTYPE svg PUBLIC "-//W3C//DTD SVG 1.1//EN"
 "http://www.w3.org/Graphics/SVG/1.1/DTD/svg11.dtd">
<!-- Generated by graphviz version 5.0.0 (20220707.1540)
 -->
<!-- Title: dependencies Pages: 1 -->
<svg width="636pt" height="247pt"
 viewBox="0.00 0.00 636.00 246.80" xmlns="http://www.w3.org/2000/svg" xmlns:xlink="http://www.w3.org/1999/xlink">
<g id="graph0" class="graph" transform="scale(1 1) rotate(0) translate(4 242.8)">
<title>dependencies</title>
<polygon fill="white" stroke="transparent" points="-4,4 -4,-242.8 632,-242.8 632,4 -4,4"/>
<text text-anchor="middle" x="314" y="-8.2" font-family="sans-serif" font-size="14.00">dependencies</text>
<g id="clust1" class="cluster">
<title>cluster_AppModule</title>
<polygon fill="none" stroke="black" stroke-dasharray="1,5" points="8,-32.8 8,-230.8 620,-230.8 620,-32.8 8,-32.8"/>
</g>
<g id="clust8" class="cluster">
<title>cluster_AppModule_providers</title>
<polygon fill="none" stroke="black" points="450,-40.8 450,-92.8 612,-92.8 612,-40.8 450,-40.8"/>
</g>
<g id="clust2" class="cluster">
<title>cluster_AppModule_declarations</title>
<polygon fill="none" stroke="black" points="138,-40.8 138,-92.8 442,-92.8 442,-40.8 138,-40.8"/>
</g>
<g id="clust5" class="cluster">
<title>cluster_AppModule_imports</title>
<polygon fill="none" stroke="black" points="16,-40.8 16,-92.8 130,-92.8 130,-40.8 16,-40.8"/>
</g>
<g id="clust7" class="cluster">
<title>cluster_AppModule_bootstrap</title>
<polygon fill="none" stroke="black" points="242,-170.8 242,-222.8 366,-222.8 366,-170.8 242,-170.8"/>
</g>
<!-- AppComponent -->
<g id="node1" class="node">
<title>AppComponent</title>
<polygon fill="#ffffb3" stroke="black" points="433.94,-84.8 328.06,-84.8 328.06,-48.8 433.94,-48.8 433.94,-84.8"/>
<text text-anchor="middle" x="381" y="-62.6" font-family="Times,serif" font-size="14.00">AppComponent</text>
</g>
<!-- AppModule -->
<g id="node3" class="node">
<title>AppModule</title>
<polygon fill="#8dd3c7" stroke="black" points="345.66,-149.8 342.66,-153.8 321.66,-153.8 318.66,-149.8 262.34,-149.8 262.34,-113.8 345.66,-113.8 345.66,-149.8"/>
<text text-anchor="middle" x="304" y="-127.6" font-family="Times,serif" font-size="14.00">AppModule</text>
</g>
<!-- AppComponent&#45;&gt;AppModule -->
<g id="edge1" class="edge">
<title>AppComponent&#45;&gt;AppModule</title>
<path fill="none" stroke="black" d="M337.06,-84.91C337.06,-84.91 337.06,-103.79 337.06,-103.79"/>
<polygon fill="black" stroke="black" points="333.56,-103.79 337.06,-113.79 340.56,-103.79 333.56,-103.79"/>
</g>
<!-- BasicSnackbarComponent -->
<g id="node2" class="node">
<title>BasicSnackbarComponent</title>
<polygon fill="#ffffb3" stroke="black" points="310.03,-84.8 145.97,-84.8 145.97,-48.8 310.03,-48.8 310.03,-84.8"/>
<text text-anchor="middle" x="228" y="-62.6" font-family="Times,serif" font-size="14.00">BasicSnackbarComponent</text>
</g>
<!-- BasicSnackbarComponent&#45;&gt;AppModule -->
<g id="edge2" class="edge">
<title>BasicSnackbarComponent&#45;&gt;AppModule</title>
<path fill="none" stroke="black" d="M286.22,-84.91C286.22,-84.91 286.22,-103.79 286.22,-103.79"/>
<polygon fill="black" stroke="black" points="282.72,-103.79 286.22,-113.79 289.72,-103.79 282.72,-103.79"/>
</g>
<!-- AppComponent  -->
<g id="node5" class="node">
<title>AppComponent </title>
<polygon fill="#80b1d3" stroke="black" points="358.44,-214.8 249.56,-214.8 249.56,-178.8 358.44,-178.8 358.44,-214.8"/>
<text text-anchor="middle" x="304" y="-192.6" font-family="Times,serif" font-size="14.00">AppComponent </text>
</g>
<!-- AppModule&#45;&gt;AppComponent  -->
<g id="edge4" class="edge">
<title>AppModule&#45;&gt;AppComponent </title>
<path fill="none" stroke="black" stroke-dasharray="1,5" d="M304,-149.91C304,-149.91 304,-168.79 304,-168.79"/>
<polygon fill="black" stroke="black" points="300.5,-168.79 304,-178.79 307.5,-168.79 300.5,-168.79"/>
</g>
<!-- SharedModule -->
<g id="node4" class="node">
<title>SharedModule</title>
<polygon fill="#8dd3c7" stroke="black" points="122.43,-84.8 119.43,-88.8 98.43,-88.8 95.43,-84.8 23.57,-84.8 23.57,-48.8 122.43,-48.8 122.43,-84.8"/>
<text text-anchor="middle" x="73" y="-62.6" font-family="Times,serif" font-size="14.00">SharedModule</text>
</g>
<!-- SharedModule&#45;&gt;AppModule -->
<g id="edge3" class="edge">
<title>SharedModule&#45;&gt;AppModule</title>
<path fill="none" stroke="black" d="M73,-84.91C73,-104.14 73,-131.8 73,-131.8 73,-131.8 252.17,-131.8 252.17,-131.8"/>
<polygon fill="black" stroke="black" points="252.17,-135.3 262.17,-131.8 252.17,-128.3 252.17,-135.3"/>
</g>
<!-- AuthInterceptor -->
<g id="node6" class="node">
<title>AuthInterceptor</title>
<ellipse fill="#fdb462" stroke="black" cx="531" cy="-66.8" rx="72.92" ry="18"/>
<text text-anchor="middle" x="531" y="-62.6" font-family="Times,serif" font-size="14.00">AuthInterceptor</text>
</g>
<!-- AuthInterceptor&#45;&gt;AppModule -->
<g id="edge5" class="edge">
<title>AuthInterceptor&#45;&gt;AppModule</title>
<path fill="none" stroke="black" d="M531,-84.91C531,-104.14 531,-131.8 531,-131.8 531,-131.8 355.9,-131.8 355.9,-131.8"/>
<polygon fill="black" stroke="black" points="355.9,-128.3 345.9,-131.8 355.9,-135.3 355.9,-128.3"/>
</g>
</g>
</svg>
