<?xml version="1.0" encoding="UTF-8" standalone="no"?>
<!DOCTYPE svg PUBLIC "-//W3C//DTD SVG 1.1//EN"
 "http://www.w3.org/Graphics/SVG/1.1/DTD/svg11.dtd">
<!-- Generated by graphviz version 5.0.0 (20220707.1540)
 -->
<!-- Title: dependencies Pages: 1 -->
<svg width="1237pt" height="174pt"
 viewBox="0.00 0.00 1237.00 173.80" xmlns="http://www.w3.org/2000/svg" xmlns:xlink="http://www.w3.org/1999/xlink">
<g id="graph0" class="graph" transform="scale(1 1) rotate(0) translate(4 169.8)">
<title>dependencies</title>
<polygon fill="white" stroke="transparent" points="-4,4 -4,-169.8 1233,-169.8 1233,4 -4,4"/>
<text text-anchor="middle" x="614.5" y="-8.2" font-family="sans-serif" font-size="14.00">dependencies</text>
<g id="clust1" class="cluster">
<title>cluster_OthersModule</title>
<polygon fill="none" stroke="black" stroke-dasharray="1,5" points="8,-32.8 8,-157.8 1221,-157.8 1221,-32.8 8,-32.8"/>
</g>
<g id="clust2" class="cluster">
<title>cluster_OthersModule_declarations</title>
<polygon fill="none" stroke="black" points="138,-40.8 138,-92.8 1213,-92.8 1213,-40.8 138,-40.8"/>
</g>
<g id="clust10" class="cluster">
<title>cluster_OthersModule_imports</title>
<polygon fill="none" stroke="black" points="16,-40.8 16,-92.8 130,-92.8 130,-40.8 16,-40.8"/>
</g>
<!-- AppBlankComponent -->
<g id="node1" class="node">
<title>AppBlankComponent</title>
<polygon fill="#ffffb3" stroke="black" points="1205.38,-84.8 1066.62,-84.8 1066.62,-48.8 1205.38,-48.8 1205.38,-84.8"/>
<text text-anchor="middle" x="1136" y="-62.6" font-family="Times,serif" font-size="14.00">AppBlankComponent</text>
</g>
<!-- OthersModule -->
<g id="node8" class="node">
<title>OthersModule</title>
<polygon fill="#8dd3c7" stroke="black" points="623.38,-149.8 620.38,-153.8 599.38,-153.8 596.38,-149.8 526.62,-149.8 526.62,-113.8 623.38,-113.8 623.38,-149.8"/>
<text text-anchor="middle" x="575" y="-127.6" font-family="Times,serif" font-size="14.00">OthersModule</text>
</g>
<!-- AppBlankComponent&#45;&gt;OthersModule -->
<g id="edge1" class="edge">
<title>AppBlankComponent&#45;&gt;OthersModule</title>
<path fill="none" stroke="black" d="M1136,-85.09C1136,-107.01 1136,-140.8 1136,-140.8 1136,-140.8 633.8,-140.8 633.8,-140.8"/>
<polygon fill="black" stroke="black" points="633.8,-137.3 623.8,-140.8 633.8,-144.3 633.8,-137.3"/>
</g>
<!-- AppGalleryComponent -->
<g id="node2" class="node">
<title>AppGalleryComponent</title>
<polygon fill="#ffffb3" stroke="black" points="1048.92,-84.8 901.08,-84.8 901.08,-48.8 1048.92,-48.8 1048.92,-84.8"/>
<text text-anchor="middle" x="975" y="-62.6" font-family="Times,serif" font-size="14.00">AppGalleryComponent</text>
</g>
<!-- AppGalleryComponent&#45;&gt;OthersModule -->
<g id="edge2" class="edge">
<title>AppGalleryComponent&#45;&gt;OthersModule</title>
<path fill="none" stroke="black" d="M975,-84.91C975,-104.14 975,-131.8 975,-131.8 975,-131.8 633.65,-131.8 633.65,-131.8"/>
<polygon fill="black" stroke="black" points="633.65,-128.3 623.65,-131.8 633.65,-135.3 633.65,-128.3"/>
</g>
<!-- AppPricingComponent -->
<g id="node3" class="node">
<title>AppPricingComponent</title>
<polygon fill="#ffffb3" stroke="black" points="882.88,-84.8 737.12,-84.8 737.12,-48.8 882.88,-48.8 882.88,-84.8"/>
<text text-anchor="middle" x="810" y="-62.6" font-family="Times,serif" font-size="14.00">AppPricingComponent</text>
</g>
<!-- AppPricingComponent&#45;&gt;OthersModule -->
<g id="edge3" class="edge">
<title>AppPricingComponent&#45;&gt;OthersModule</title>
<path fill="none" stroke="black" d="M810,-84.83C810,-101.2 810,-122.8 810,-122.8 810,-122.8 633.41,-122.8 633.41,-122.8"/>
<polygon fill="black" stroke="black" points="633.41,-119.3 623.41,-122.8 633.41,-126.3 633.41,-119.3"/>
</g>
<!-- AppUsersComponent -->
<g id="node4" class="node">
<title>AppUsersComponent</title>
<polygon fill="#ffffb3" stroke="black" points="718.82,-84.8 581.18,-84.8 581.18,-48.8 718.82,-48.8 718.82,-84.8"/>
<text text-anchor="middle" x="650" y="-62.6" font-family="Times,serif" font-size="14.00">AppUsersComponent</text>
</g>
<!-- AppUsersComponent&#45;&gt;OthersModule -->
<g id="edge4" class="edge">
<title>AppUsersComponent&#45;&gt;OthersModule</title>
<path fill="none" stroke="black" d="M602.39,-84.91C602.39,-84.91 602.39,-103.79 602.39,-103.79"/>
<polygon fill="black" stroke="black" points="598.89,-103.79 602.39,-113.79 605.89,-103.79 598.89,-103.79"/>
</g>
<!-- Nested1Component -->
<g id="node5" class="node">
<title>Nested1Component</title>
<polygon fill="#ffffb3" stroke="black" points="563.71,-84.8 436.29,-84.8 436.29,-48.8 563.71,-48.8 563.71,-84.8"/>
<text text-anchor="middle" x="500" y="-62.6" font-family="Times,serif" font-size="14.00">Nested1Component</text>
</g>
<!-- Nested1Component&#45;&gt;OthersModule -->
<g id="edge5" class="edge">
<title>Nested1Component&#45;&gt;OthersModule</title>
<path fill="none" stroke="black" d="M545.08,-84.91C545.08,-84.91 545.08,-103.79 545.08,-103.79"/>
<polygon fill="black" stroke="black" points="541.58,-103.79 545.08,-113.79 548.58,-103.79 541.58,-103.79"/>
</g>
<!-- Nested2Component -->
<g id="node6" class="node">
<title>Nested2Component</title>
<polygon fill="#ffffb3" stroke="black" points="418.71,-84.8 291.29,-84.8 291.29,-48.8 418.71,-48.8 418.71,-84.8"/>
<text text-anchor="middle" x="355" y="-62.6" font-family="Times,serif" font-size="14.00">Nested2Component</text>
</g>
<!-- Nested2Component&#45;&gt;OthersModule -->
<g id="edge6" class="edge">
<title>Nested2Component&#45;&gt;OthersModule</title>
<path fill="none" stroke="black" d="M355,-84.83C355,-101.2 355,-122.8 355,-122.8 355,-122.8 516.45,-122.8 516.45,-122.8"/>
<polygon fill="black" stroke="black" points="516.45,-126.3 526.45,-122.8 516.45,-119.3 516.45,-126.3"/>
</g>
<!-- Nested3Component -->
<g id="node7" class="node">
<title>Nested3Component</title>
<polygon fill="#ffffb3" stroke="black" points="273.71,-84.8 146.29,-84.8 146.29,-48.8 273.71,-48.8 273.71,-84.8"/>
<text text-anchor="middle" x="210" y="-62.6" font-family="Times,serif" font-size="14.00">Nested3Component</text>
</g>
<!-- Nested3Component&#45;&gt;OthersModule -->
<g id="edge7" class="edge">
<title>Nested3Component&#45;&gt;OthersModule</title>
<path fill="none" stroke="black" d="M210,-84.91C210,-104.14 210,-131.8 210,-131.8 210,-131.8 516.53,-131.8 516.53,-131.8"/>
<polygon fill="black" stroke="black" points="516.53,-135.3 526.53,-131.8 516.53,-128.3 516.53,-135.3"/>
</g>
<!-- SharedModule -->
<g id="node9" class="node">
<title>SharedModule</title>
<polygon fill="#8dd3c7" stroke="black" points="122.43,-84.8 119.43,-88.8 98.43,-88.8 95.43,-84.8 23.57,-84.8 23.57,-48.8 122.43,-48.8 122.43,-84.8"/>
<text text-anchor="middle" x="73" y="-62.6" font-family="Times,serif" font-size="14.00">SharedModule</text>
</g>
<!-- SharedModule&#45;&gt;OthersModule -->
<g id="edge8" class="edge">
<title>SharedModule&#45;&gt;OthersModule</title>
<path fill="none" stroke="black" d="M73,-85.09C73,-107.01 73,-140.8 73,-140.8 73,-140.8 516.41,-140.8 516.41,-140.8"/>
<polygon fill="black" stroke="black" points="516.41,-144.3 526.41,-140.8 516.41,-137.3 516.41,-144.3"/>
</g>
</g>
</svg>
