<?xml version="1.0" encoding="UTF-8" standalone="no"?>
<!DOCTYPE svg PUBLIC "-//W3C//DTD SVG 1.1//EN"
 "http://www.w3.org/Graphics/SVG/1.1/DTD/svg11.dtd">
<!-- Generated by graphviz version 5.0.0 (20220707.1540)
 -->
<!-- Title: dependencies Pages: 1 -->
<svg width="738pt" height="174pt"
 viewBox="0.00 0.00 738.00 173.80" xmlns="http://www.w3.org/2000/svg" xmlns:xlink="http://www.w3.org/1999/xlink">
<g id="graph0" class="graph" transform="scale(1 1) rotate(0) translate(4 169.8)">
<title>dependencies</title>
<polygon fill="white" stroke="transparent" points="-4,4 -4,-169.8 734,-169.8 734,4 -4,4"/>
<text text-anchor="middle" x="365" y="-8.2" font-family="sans-serif" font-size="14.00">dependencies</text>
<g id="clust1" class="cluster">
<title>cluster_TablesModule</title>
<polygon fill="none" stroke="black" stroke-dasharray="1,5" points="8,-32.8 8,-157.8 722,-157.8 722,-32.8 8,-32.8"/>
</g>
<g id="clust2" class="cluster">
<title>cluster_TablesModule_declarations</title>
<polygon fill="none" stroke="black" points="16,-40.8 16,-92.8 714,-92.8 714,-40.8 16,-40.8"/>
</g>
<!-- FilterTableComponent -->
<g id="node1" class="node">
<title>FilterTableComponent</title>
<polygon fill="#ffffb3" stroke="black" points="705.53,-84.8 562.47,-84.8 562.47,-48.8 705.53,-48.8 705.53,-84.8"/>
<text text-anchor="middle" x="634" y="-62.6" font-family="Times,serif" font-size="14.00">FilterTableComponent</text>
</g>
<!-- TablesModule -->
<g id="node5" class="node">
<title>TablesModule</title>
<polygon fill="#8dd3c7" stroke="black" points="414.37,-149.8 411.37,-153.8 390.37,-153.8 387.37,-149.8 317.63,-149.8 317.63,-113.8 414.37,-113.8 414.37,-149.8"/>
<text text-anchor="middle" x="366" y="-127.6" font-family="Times,serif" font-size="14.00">TablesModule</text>
</g>
<!-- FilterTableComponent&#45;&gt;TablesModule -->
<g id="edge1" class="edge">
<title>FilterTableComponent&#45;&gt;TablesModule</title>
<path fill="none" stroke="black" d="M634,-84.91C634,-104.14 634,-131.8 634,-131.8 634,-131.8 424.53,-131.8 424.53,-131.8"/>
<polygon fill="black" stroke="black" points="424.53,-128.3 414.53,-131.8 424.53,-135.3 424.53,-128.3"/>
</g>
<!-- FullscreenTableComponent -->
<g id="node2" class="node">
<title>FullscreenTableComponent</title>
<polygon fill="#ffffb3" stroke="black" points="543.52,-84.8 372.48,-84.8 372.48,-48.8 543.52,-48.8 543.52,-84.8"/>
<text text-anchor="middle" x="458" y="-62.6" font-family="Times,serif" font-size="14.00">FullscreenTableComponent</text>
</g>
<!-- FullscreenTableComponent&#45;&gt;TablesModule -->
<g id="edge2" class="edge">
<title>FullscreenTableComponent&#45;&gt;TablesModule</title>
<path fill="none" stroke="black" d="M393.34,-84.91C393.34,-84.91 393.34,-103.79 393.34,-103.79"/>
<polygon fill="black" stroke="black" points="389.84,-103.79 393.34,-113.79 396.84,-103.79 389.84,-103.79"/>
</g>
<!-- MaterialTableComponent -->
<g id="node3" class="node">
<title>MaterialTableComponent</title>
<polygon fill="#ffffb3" stroke="black" points="354.12,-84.8 193.88,-84.8 193.88,-48.8 354.12,-48.8 354.12,-84.8"/>
<text text-anchor="middle" x="274" y="-62.6" font-family="Times,serif" font-size="14.00">MaterialTableComponent</text>
</g>
<!-- MaterialTableComponent&#45;&gt;TablesModule -->
<g id="edge3" class="edge">
<title>MaterialTableComponent&#45;&gt;TablesModule</title>
<path fill="none" stroke="black" d="M335.94,-84.91C335.94,-84.91 335.94,-103.79 335.94,-103.79"/>
<polygon fill="black" stroke="black" points="332.44,-103.79 335.94,-113.79 339.44,-103.79 332.44,-103.79"/>
</g>
<!-- PagingTableComponent -->
<g id="node4" class="node">
<title>PagingTableComponent</title>
<polygon fill="#ffffb3" stroke="black" points="176.09,-84.8 23.91,-84.8 23.91,-48.8 176.09,-48.8 176.09,-84.8"/>
<text text-anchor="middle" x="100" y="-62.6" font-family="Times,serif" font-size="14.00">PagingTableComponent</text>
</g>
<!-- PagingTableComponent&#45;&gt;TablesModule -->
<g id="edge4" class="edge">
<title>PagingTableComponent&#45;&gt;TablesModule</title>
<path fill="none" stroke="black" d="M100,-84.91C100,-104.14 100,-131.8 100,-131.8 100,-131.8 307.52,-131.8 307.52,-131.8"/>
<polygon fill="black" stroke="black" points="307.52,-135.3 317.52,-131.8 307.52,-128.3 307.52,-135.3"/>
</g>
</g>
</svg>
