<?xml version="1.0" encoding="UTF-8" standalone="no"?>
<!DOCTYPE svg PUBLIC "-//W3C//DTD SVG 1.1//EN"
 "http://www.w3.org/Graphics/SVG/1.1/DTD/svg11.dtd">
<!-- Generated by graphviz version 5.0.0 (20220707.1540)
 -->
<!-- Title: dependencies Pages: 1 -->
<svg width="1651pt" height="247pt"
 viewBox="0.00 0.00 1651.00 246.80" xmlns="http://www.w3.org/2000/svg" xmlns:xlink="http://www.w3.org/1999/xlink">
<g id="graph0" class="graph" transform="scale(1 1) rotate(0) translate(4 242.8)">
<title>dependencies</title>
<polygon fill="white" stroke="transparent" points="-4,4 -4,-242.8 1647,-242.8 1647,4 -4,4"/>
<text text-anchor="middle" x="821.5" y="-8.2" font-family="sans-serif" font-size="14.00">dependencies</text>
<g id="clust1" class="cluster">
<title>cluster_SharedDirectivesModule</title>
<polygon fill="none" stroke="black" stroke-dasharray="1,5" points="8,-32.8 8,-230.8 1635,-230.8 1635,-32.8 8,-32.8"/>
</g>
<g id="clust2" class="cluster">
<title>cluster_SharedDirectivesModule_declarations</title>
<polygon fill="none" stroke="black" points="30,-40.8 30,-92.8 1609,-92.8 1609,-40.8 30,-40.8"/>
</g>
<g id="clust13" class="cluster">
<title>cluster_SharedDirectivesModule_exports</title>
<polygon fill="none" stroke="black" points="16,-170.8 16,-222.8 1627,-222.8 1627,-170.8 16,-170.8"/>
</g>
<!-- AppDropdownDirective -->
<g id="node1" class="node">
<title>AppDropdownDirective</title>
<polygon fill="#ffffb3" stroke="black" points="1601.08,-84.8 1448.92,-84.8 1448.92,-48.8 1601.08,-48.8 1601.08,-84.8"/>
<text text-anchor="middle" x="1525" y="-62.6" font-family="Times,serif" font-size="14.00">AppDropdownDirective</text>
</g>
<!-- SharedDirectivesModule -->
<g id="node10" class="node">
<title>SharedDirectivesModule</title>
<polygon fill="#8dd3c7" stroke="black" points="885.96,-149.8 882.96,-153.8 861.96,-153.8 858.96,-149.8 730.04,-149.8 730.04,-113.8 885.96,-113.8 885.96,-149.8"/>
<text text-anchor="middle" x="808" y="-127.6" font-family="Times,serif" font-size="14.00">SharedDirectivesModule</text>
</g>
<!-- AppDropdownDirective&#45;&gt;SharedDirectivesModule -->
<g id="edge1" class="edge">
<title>AppDropdownDirective&#45;&gt;SharedDirectivesModule</title>
<path fill="none" stroke="black" d="M1456.09,-85.02C1456.09,-103.63 1456.09,-129.8 1456.09,-129.8 1456.09,-129.8 896.17,-129.8 896.17,-129.8"/>
<polygon fill="black" stroke="black" points="896.17,-126.3 886.17,-129.8 896.17,-133.3 896.17,-126.3"/>
</g>
<!-- DropdownAnchorDirective -->
<g id="node2" class="node">
<title>DropdownAnchorDirective</title>
<polygon fill="#ffffb3" stroke="black" points="1430.95,-84.8 1261.05,-84.8 1261.05,-48.8 1430.95,-48.8 1430.95,-84.8"/>
<text text-anchor="middle" x="1346" y="-62.6" font-family="Times,serif" font-size="14.00">DropdownAnchorDirective</text>
</g>
<!-- DropdownAnchorDirective&#45;&gt;SharedDirectivesModule -->
<g id="edge2" class="edge">
<title>DropdownAnchorDirective&#45;&gt;SharedDirectivesModule</title>
<path fill="none" stroke="black" d="M1266.15,-84.82C1266.15,-102.17 1266.15,-125.8 1266.15,-125.8 1266.15,-125.8 895.98,-125.8 895.98,-125.8"/>
<polygon fill="black" stroke="black" points="895.98,-122.3 885.98,-125.8 895.98,-129.3 895.98,-122.3"/>
</g>
<!-- DropdownLinkDirective -->
<g id="node3" class="node">
<title>DropdownLinkDirective</title>
<polygon fill="#ffffb3" stroke="black" points="1243.41,-84.8 1088.59,-84.8 1088.59,-48.8 1243.41,-48.8 1243.41,-84.8"/>
<text text-anchor="middle" x="1166" y="-62.6" font-family="Times,serif" font-size="14.00">DropdownLinkDirective</text>
</g>
<!-- DropdownLinkDirective&#45;&gt;SharedDirectivesModule -->
<g id="edge3" class="edge">
<title>DropdownLinkDirective&#45;&gt;SharedDirectivesModule</title>
<path fill="none" stroke="black" d="M1193.82,-84.81C1193.82,-100.85 1193.82,-121.8 1193.82,-121.8 1193.82,-121.8 896.08,-121.8 896.08,-121.8"/>
<polygon fill="black" stroke="black" points="896.08,-118.3 886.08,-121.8 896.08,-125.3 896.08,-118.3"/>
</g>
<!-- EgretHighlightDirective -->
<g id="node4" class="node">
<title>EgretHighlightDirective</title>
<polygon fill="#ffffb3" stroke="black" points="1071.07,-84.8 918.93,-84.8 918.93,-48.8 1071.07,-48.8 1071.07,-84.8"/>
<text text-anchor="middle" x="995" y="-62.6" font-family="Times,serif" font-size="14.00">EgretHighlightDirective</text>
</g>
<!-- EgretHighlightDirective&#45;&gt;SharedDirectivesModule -->
<g id="edge4" class="edge">
<title>EgretHighlightDirective&#45;&gt;SharedDirectivesModule</title>
<path fill="none" stroke="black" d="M1021.09,-84.92C1021.09,-99.58 1021.09,-117.8 1021.09,-117.8 1021.09,-117.8 896.14,-117.8 896.14,-117.8"/>
<polygon fill="black" stroke="black" points="896.14,-114.3 886.14,-117.8 896.14,-121.3 896.14,-114.3"/>
</g>
<!-- EgretSideNavToggleDirective -->
<g id="node5" class="node">
<title>EgretSideNavToggleDirective</title>
<polygon fill="#ffffb3" stroke="black" points="901.27,-84.8 714.73,-84.8 714.73,-48.8 901.27,-48.8 901.27,-84.8"/>
<text text-anchor="middle" x="808" y="-62.6" font-family="Times,serif" font-size="14.00">EgretSideNavToggleDirective</text>
</g>
<!-- EgretSideNavToggleDirective&#45;&gt;SharedDirectivesModule -->
<g id="edge5" class="edge">
<title>EgretSideNavToggleDirective&#45;&gt;SharedDirectivesModule</title>
<path fill="none" stroke="black" d="M808,-84.91C808,-84.91 808,-103.79 808,-103.79"/>
<polygon fill="black" stroke="black" points="804.5,-103.79 808,-113.79 811.5,-103.79 804.5,-103.79"/>
</g>
<!-- EgretSidenavHelperDirective -->
<g id="node6" class="node">
<title>EgretSidenavHelperDirective</title>
<polygon fill="#ffffb3" stroke="black" points="696.59,-84.8 515.41,-84.8 515.41,-48.8 696.59,-48.8 696.59,-84.8"/>
<text text-anchor="middle" x="606" y="-62.6" font-family="Times,serif" font-size="14.00">EgretSidenavHelperDirective</text>
</g>
<!-- EgretSidenavHelperDirective&#45;&gt;SharedDirectivesModule -->
<g id="edge6" class="edge">
<title>EgretSidenavHelperDirective&#45;&gt;SharedDirectivesModule</title>
<path fill="none" stroke="black" d="M635.43,-84.92C635.43,-99.58 635.43,-117.8 635.43,-117.8 635.43,-117.8 719.79,-117.8 719.79,-117.8"/>
<polygon fill="black" stroke="black" points="719.79,-121.3 729.79,-117.8 719.79,-114.3 719.79,-121.3"/>
</g>
<!-- EgretSidenavTogglerDirective -->
<g id="node7" class="node">
<title>EgretSidenavTogglerDirective</title>
<polygon fill="#ffffb3" stroke="black" points="496.82,-84.8 309.18,-84.8 309.18,-48.8 496.82,-48.8 496.82,-84.8"/>
<text text-anchor="middle" x="403" y="-62.6" font-family="Times,serif" font-size="14.00">EgretSidenavTogglerDirective</text>
</g>
<!-- EgretSidenavTogglerDirective&#45;&gt;SharedDirectivesModule -->
<g id="edge7" class="edge">
<title>EgretSidenavTogglerDirective&#45;&gt;SharedDirectivesModule</title>
<path fill="none" stroke="black" d="M431.47,-84.81C431.47,-100.85 431.47,-121.8 431.47,-121.8 431.47,-121.8 719.98,-121.8 719.98,-121.8"/>
<polygon fill="black" stroke="black" points="719.98,-125.3 729.98,-121.8 719.98,-118.3 719.98,-125.3"/>
</g>
<!-- FontSizeDirective -->
<g id="node8" class="node">
<title>FontSizeDirective</title>
<polygon fill="#ffffb3" stroke="black" points="290.86,-84.8 173.14,-84.8 173.14,-48.8 290.86,-48.8 290.86,-84.8"/>
<text text-anchor="middle" x="232" y="-62.6" font-family="Times,serif" font-size="14.00">FontSizeDirective</text>
</g>
<!-- FontSizeDirective&#45;&gt;SharedDirectivesModule -->
<g id="edge8" class="edge">
<title>FontSizeDirective&#45;&gt;SharedDirectivesModule</title>
<path fill="none" stroke="black" d="M287.31,-84.82C287.31,-102.17 287.31,-125.8 287.31,-125.8 287.31,-125.8 719.77,-125.8 719.77,-125.8"/>
<polygon fill="black" stroke="black" points="719.77,-129.3 729.77,-125.8 719.77,-122.3 719.77,-129.3"/>
</g>
<!-- ScrollToDirective -->
<g id="node9" class="node">
<title>ScrollToDirective</title>
<polygon fill="#ffffb3" stroke="black" points="155.58,-84.8 38.42,-84.8 38.42,-48.8 155.58,-48.8 155.58,-84.8"/>
<text text-anchor="middle" x="97" y="-62.6" font-family="Times,serif" font-size="14.00">ScrollToDirective</text>
</g>
<!-- ScrollToDirective&#45;&gt;SharedDirectivesModule -->
<g id="edge9" class="edge">
<title>ScrollToDirective&#45;&gt;SharedDirectivesModule</title>
<path fill="none" stroke="black" d="M149.91,-85.02C149.91,-103.63 149.91,-129.8 149.91,-129.8 149.91,-129.8 719.92,-129.8 719.92,-129.8"/>
<polygon fill="black" stroke="black" points="719.92,-133.3 729.92,-129.8 719.92,-126.3 719.92,-133.3"/>
</g>
<!-- AppDropdownDirective  -->
<g id="node11" class="node">
<title>AppDropdownDirective </title>
<polygon fill="#fb8072" stroke="black" points="1618.58,-214.8 1463.42,-214.8 1463.42,-178.8 1618.58,-178.8 1618.58,-214.8"/>
<text text-anchor="middle" x="1541" y="-192.6" font-family="Times,serif" font-size="14.00">AppDropdownDirective </text>
</g>
<!-- SharedDirectivesModule&#45;&gt;AppDropdownDirective  -->
<g id="edge10" class="edge">
<title>SharedDirectivesModule&#45;&gt;AppDropdownDirective </title>
<path fill="none" stroke="black" stroke-dasharray="5,2" d="M886.18,-133.8C1073.42,-133.8 1532.12,-133.8 1532.12,-133.8 1532.12,-133.8 1532.12,-168.58 1532.12,-168.58"/>
<polygon fill="black" stroke="black" points="1528.63,-168.58 1532.12,-178.58 1535.63,-168.58 1528.63,-168.58"/>
</g>
<!-- DropdownAnchorDirective  -->
<g id="node12" class="node">
<title>DropdownAnchorDirective </title>
<polygon fill="#fb8072" stroke="black" points="1444.95,-214.8 1271.05,-214.8 1271.05,-178.8 1444.95,-178.8 1444.95,-214.8"/>
<text text-anchor="middle" x="1358" y="-192.6" font-family="Times,serif" font-size="14.00">DropdownAnchorDirective </text>
</g>
<!-- SharedDirectivesModule&#45;&gt;DropdownAnchorDirective  -->
<g id="edge11" class="edge">
<title>SharedDirectivesModule&#45;&gt;DropdownAnchorDirective </title>
<path fill="none" stroke="black" stroke-dasharray="5,2" d="M886.11,-137.8C1036.4,-137.8 1351.12,-137.8 1351.12,-137.8 1351.12,-137.8 1351.12,-168.78 1351.12,-168.78"/>
<polygon fill="black" stroke="black" points="1347.63,-168.78 1351.12,-178.78 1354.63,-168.78 1347.63,-168.78"/>
</g>
<!-- DropdownLinkDirective  -->
<g id="node13" class="node">
<title>DropdownLinkDirective </title>
<polygon fill="#fb8072" stroke="black" points="1252.91,-214.8 1095.09,-214.8 1095.09,-178.8 1252.91,-178.8 1252.91,-214.8"/>
<text text-anchor="middle" x="1174" y="-192.6" font-family="Times,serif" font-size="14.00">DropdownLinkDirective </text>
</g>
<!-- SharedDirectivesModule&#45;&gt;DropdownLinkDirective  -->
<g id="edge12" class="edge">
<title>SharedDirectivesModule&#45;&gt;DropdownLinkDirective </title>
<path fill="none" stroke="black" stroke-dasharray="5,2" d="M886.03,-141.8C985.42,-141.8 1144.43,-141.8 1144.43,-141.8 1144.43,-141.8 1144.43,-168.79 1144.43,-168.79"/>
<polygon fill="black" stroke="black" points="1140.93,-168.79 1144.43,-178.79 1147.93,-168.79 1140.93,-168.79"/>
</g>
<!-- EgretHighlightDirective  -->
<g id="node14" class="node">
<title>EgretHighlightDirective </title>
<polygon fill="#fb8072" stroke="black" points="1076.57,-214.8 921.43,-214.8 921.43,-178.8 1076.57,-178.8 1076.57,-214.8"/>
<text text-anchor="middle" x="999" y="-192.6" font-family="Times,serif" font-size="14.00">EgretHighlightDirective </text>
</g>
<!-- SharedDirectivesModule&#45;&gt;EgretHighlightDirective  -->
<g id="edge13" class="edge">
<title>SharedDirectivesModule&#45;&gt;EgretHighlightDirective </title>
<path fill="none" stroke="black" stroke-dasharray="5,2" d="M886.23,-145.8C928.11,-145.8 971.16,-145.8 971.16,-145.8 971.16,-145.8 971.16,-168.68 971.16,-168.68"/>
<polygon fill="black" stroke="black" points="967.66,-168.68 971.16,-178.68 974.66,-168.68 967.66,-168.68"/>
</g>
<!-- EgretSideNavToggleDirective  -->
<g id="node15" class="node">
<title>EgretSideNavToggleDirective </title>
<polygon fill="#fb8072" stroke="black" points="902.77,-214.8 713.23,-214.8 713.23,-178.8 902.77,-178.8 902.77,-214.8"/>
<text text-anchor="middle" x="808" y="-192.6" font-family="Times,serif" font-size="14.00">EgretSideNavToggleDirective </text>
</g>
<!-- SharedDirectivesModule&#45;&gt;EgretSideNavToggleDirective  -->
<g id="edge14" class="edge">
<title>SharedDirectivesModule&#45;&gt;EgretSideNavToggleDirective </title>
<path fill="none" stroke="black" stroke-dasharray="5,2" d="M808,-149.91C808,-149.91 808,-168.79 808,-168.79"/>
<polygon fill="black" stroke="black" points="804.5,-168.79 808,-178.79 811.5,-168.79 804.5,-168.79"/>
</g>
<!-- EgretSidenavHelperDirective  -->
<g id="node16" class="node">
<title>EgretSidenavHelperDirective </title>
<polygon fill="#fb8072" stroke="black" points="695.59,-214.8 510.41,-214.8 510.41,-178.8 695.59,-178.8 695.59,-214.8"/>
<text text-anchor="middle" x="603" y="-192.6" font-family="Times,serif" font-size="14.00">EgretSidenavHelperDirective </text>
</g>
<!-- SharedDirectivesModule&#45;&gt;EgretSidenavHelperDirective  -->
<g id="edge15" class="edge">
<title>SharedDirectivesModule&#45;&gt;EgretSidenavHelperDirective </title>
<path fill="none" stroke="black" stroke-dasharray="5,2" d="M729.87,-145.8C662.28,-145.8 575.32,-145.8 575.32,-145.8 575.32,-145.8 575.32,-168.68 575.32,-168.68"/>
<polygon fill="black" stroke="black" points="571.82,-168.68 575.32,-178.68 578.82,-168.68 571.82,-168.68"/>
</g>
<!-- EgretSidenavTogglerDirective  -->
<g id="node17" class="node">
<title>EgretSidenavTogglerDirective </title>
<polygon fill="#fb8072" stroke="black" points="492.82,-214.8 301.18,-214.8 301.18,-178.8 492.82,-178.8 492.82,-214.8"/>
<text text-anchor="middle" x="397" y="-192.6" font-family="Times,serif" font-size="14.00">EgretSidenavTogglerDirective </text>
</g>
<!-- SharedDirectivesModule&#45;&gt;EgretSidenavTogglerDirective  -->
<g id="edge16" class="edge">
<title>SharedDirectivesModule&#45;&gt;EgretSidenavTogglerDirective </title>
<path fill="none" stroke="black" stroke-dasharray="5,2" d="M730,-141.8C604.15,-141.8 370.28,-141.8 370.28,-141.8 370.28,-141.8 370.28,-168.79 370.28,-168.79"/>
<polygon fill="black" stroke="black" points="366.78,-168.79 370.28,-178.79 373.78,-168.79 366.78,-168.79"/>
</g>
<!-- FontSizeDirective  -->
<g id="node18" class="node">
<title>FontSizeDirective </title>
<polygon fill="#fb8072" stroke="black" points="283.86,-214.8 162.14,-214.8 162.14,-178.8 283.86,-178.8 283.86,-214.8"/>
<text text-anchor="middle" x="223" y="-192.6" font-family="Times,serif" font-size="14.00">FontSizeDirective </text>
</g>
<!-- SharedDirectivesModule&#45;&gt;FontSizeDirective  -->
<g id="edge17" class="edge">
<title>SharedDirectivesModule&#45;&gt;FontSizeDirective </title>
<path fill="none" stroke="black" stroke-dasharray="5,2" d="M729.83,-137.8C571.62,-137.8 228.38,-137.8 228.38,-137.8 228.38,-137.8 228.38,-168.78 228.38,-168.78"/>
<polygon fill="black" stroke="black" points="224.88,-168.78 228.38,-178.78 231.88,-168.78 224.88,-168.78"/>
</g>
<!-- ScrollToDirective  -->
<g id="node19" class="node">
<title>ScrollToDirective </title>
<polygon fill="#fb8072" stroke="black" points="144.08,-214.8 23.92,-214.8 23.92,-178.8 144.08,-178.8 144.08,-214.8"/>
<text text-anchor="middle" x="84" y="-192.6" font-family="Times,serif" font-size="14.00">ScrollToDirective </text>
</g>
<!-- SharedDirectivesModule&#45;&gt;ScrollToDirective  -->
<g id="edge18" class="edge">
<title>SharedDirectivesModule&#45;&gt;ScrollToDirective </title>
<path fill="none" stroke="black" stroke-dasharray="5,2" d="M729.94,-133.8C544.21,-133.8 91.38,-133.8 91.38,-133.8 91.38,-133.8 91.38,-168.58 91.38,-168.58"/>
<polygon fill="black" stroke="black" points="87.88,-168.58 91.38,-178.58 94.88,-168.58 87.88,-168.58"/>
</g>
</g>
</svg>
