<?xml version="1.0" encoding="UTF-8" standalone="no"?>
<!DOCTYPE svg PUBLIC "-//W3C//DTD SVG 1.1//EN"
 "http://www.w3.org/Graphics/SVG/1.1/DTD/svg11.dtd">
<!-- Generated by graphviz version 5.0.0 (20220707.1540)
 -->
<!-- Title: dependencies Pages: 1 -->
<svg width="4493pt" height="174pt"
 viewBox="0.00 0.00 4493.00 173.80" xmlns="http://www.w3.org/2000/svg" xmlns:xlink="http://www.w3.org/1999/xlink">
<g id="graph0" class="graph" transform="scale(1 1) rotate(0) translate(4 169.8)">
<title>dependencies</title>
<polygon fill="white" stroke="transparent" points="-4,4 -4,-169.8 4489,-169.8 4489,4 -4,4"/>
<text text-anchor="middle" x="2242.5" y="-8.2" font-family="sans-serif" font-size="14.00">dependencies</text>
<g id="clust1" class="cluster">
<title>cluster_CrudsModule</title>
<polygon fill="none" stroke="black" stroke-dasharray="1,5" points="8,-32.8 8,-157.8 4477,-157.8 4477,-32.8 8,-32.8"/>
</g>
<g id="clust2" class="cluster">
<title>cluster_CrudsModule_declarations</title>
<polygon fill="none" stroke="black" points="918,-40.8 918,-92.8 4469,-92.8 4469,-40.8 918,-40.8"/>
</g>
<g id="clust21" class="cluster">
<title>cluster_CrudsModule_imports</title>
<polygon fill="none" stroke="black" points="796,-40.8 796,-92.8 910,-92.8 910,-40.8 796,-40.8"/>
</g>
<g id="clust24" class="cluster">
<title>cluster_CrudsModule_providers</title>
<polygon fill="none" stroke="black" points="16,-40.8 16,-92.8 788,-92.8 788,-40.8 16,-40.8"/>
</g>
<!-- CrudNgxTableComponent -->
<g id="node1" class="node">
<title>CrudNgxTableComponent</title>
<polygon fill="#ffffb3" stroke="black" points="4460.81,-84.8 4295.19,-84.8 4295.19,-48.8 4460.81,-48.8 4460.81,-84.8"/>
<text text-anchor="middle" x="4378" y="-62.6" font-family="Times,serif" font-size="14.00">CrudNgxTableComponent</text>
</g>
<!-- CrudsModule -->
<g id="node19" class="node">
<title>CrudsModule</title>
<polygon fill="#8dd3c7" stroke="black" points="2095.5,-149.8 2092.5,-153.8 2071.5,-153.8 2068.5,-149.8 2002.5,-149.8 2002.5,-113.8 2095.5,-113.8 2095.5,-149.8"/>
<text text-anchor="middle" x="2049" y="-127.6" font-family="Times,serif" font-size="14.00">CrudsModule</text>
</g>
<!-- CrudNgxTableComponent&#45;&gt;CrudsModule -->
<g id="edge1" class="edge">
<title>CrudNgxTableComponent&#45;&gt;CrudsModule</title>
<path fill="none" stroke="black" d="M4378,-84.95C4378,-108.56 4378,-146.8 4378,-146.8 4378,-146.8 2105.52,-146.8 2105.52,-146.8"/>
<polygon fill="black" stroke="black" points="2105.52,-143.3 2095.52,-146.8 2105.52,-150.3 2105.52,-143.3"/>
</g>
<!-- DealerTableComponent -->
<g id="node2" class="node">
<title>DealerTableComponent</title>
<polygon fill="#ffffb3" stroke="black" points="4277,-84.8 4127,-84.8 4127,-48.8 4277,-48.8 4277,-84.8"/>
<text text-anchor="middle" x="4202" y="-62.6" font-family="Times,serif" font-size="14.00">DealerTableComponent</text>
</g>
<!-- DealerTableComponent&#45;&gt;CrudsModule -->
<g id="edge2" class="edge">
<title>DealerTableComponent&#45;&gt;CrudsModule</title>
<path fill="none" stroke="black" d="M4202,-84.89C4202,-107.93 4202,-144.8 4202,-144.8 4202,-144.8 2105.72,-144.8 2105.72,-144.8"/>
<polygon fill="black" stroke="black" points="2105.72,-141.3 2095.72,-144.8 2105.72,-148.3 2105.72,-141.3"/>
</g>
<!-- DealerTablePopupComponent -->
<g id="node3" class="node">
<title>DealerTablePopupComponent</title>
<polygon fill="#ffffb3" stroke="black" points="4109.29,-84.8 3922.71,-84.8 3922.71,-48.8 4109.29,-48.8 4109.29,-84.8"/>
<text text-anchor="middle" x="4016" y="-62.6" font-family="Times,serif" font-size="14.00">DealerTablePopupComponent</text>
</g>
<!-- DealerTablePopupComponent&#45;&gt;CrudsModule -->
<g id="edge3" class="edge">
<title>DealerTablePopupComponent&#45;&gt;CrudsModule</title>
<path fill="none" stroke="black" d="M4016,-85.09C4016,-107.01 4016,-140.8 4016,-140.8 4016,-140.8 2105.68,-140.8 2105.68,-140.8"/>
<polygon fill="black" stroke="black" points="2105.68,-137.3 2095.68,-140.8 2105.68,-144.3 2105.68,-137.3"/>
</g>
<!-- DealerTableSidenavComponent -->
<g id="node4" class="node">
<title>DealerTableSidenavComponent</title>
<polygon fill="#ffffb3" stroke="black" points="3904.61,-84.8 3709.39,-84.8 3709.39,-48.8 3904.61,-48.8 3904.61,-84.8"/>
<text text-anchor="middle" x="3807" y="-62.6" font-family="Times,serif" font-size="14.00">DealerTableSidenavComponent</text>
</g>
<!-- DealerTableSidenavComponent&#45;&gt;CrudsModule -->
<g id="edge4" class="edge">
<title>DealerTableSidenavComponent&#45;&gt;CrudsModule</title>
<path fill="none" stroke="black" d="M3807,-85.08C3807,-106.12 3807,-137.8 3807,-137.8 3807,-137.8 2105.57,-137.8 2105.57,-137.8"/>
<polygon fill="black" stroke="black" points="2105.57,-134.3 2095.57,-137.8 2105.57,-141.3 2105.57,-134.3"/>
</g>
<!-- FabricatorTableComponent -->
<g id="node5" class="node">
<title>FabricatorTableComponent</title>
<polygon fill="#ffffb3" stroke="black" points="3691.23,-84.8 3520.77,-84.8 3520.77,-48.8 3691.23,-48.8 3691.23,-84.8"/>
<text text-anchor="middle" x="3606" y="-62.6" font-family="Times,serif" font-size="14.00">FabricatorTableComponent</text>
</g>
<!-- FabricatorTableComponent&#45;&gt;CrudsModule -->
<g id="edge5" class="edge">
<title>FabricatorTableComponent&#45;&gt;CrudsModule</title>
<path fill="none" stroke="black" d="M3606,-85.02C3606,-105.17 3606,-134.8 3606,-134.8 3606,-134.8 2105.6,-134.8 2105.6,-134.8"/>
<polygon fill="black" stroke="black" points="2105.6,-131.3 2095.6,-134.8 2105.6,-138.3 2105.6,-131.3"/>
</g>
<!-- FabricatorTablePopupComponent -->
<g id="node6" class="node">
<title>FabricatorTablePopupComponent</title>
<polygon fill="#ffffb3" stroke="black" points="3502.02,-84.8 3295.98,-84.8 3295.98,-48.8 3502.02,-48.8 3502.02,-84.8"/>
<text text-anchor="middle" x="3399" y="-62.6" font-family="Times,serif" font-size="14.00">FabricatorTablePopupComponent</text>
</g>
<!-- FabricatorTablePopupComponent&#45;&gt;CrudsModule -->
<g id="edge6" class="edge">
<title>FabricatorTablePopupComponent&#45;&gt;CrudsModule</title>
<path fill="none" stroke="black" d="M3399,-84.91C3399,-104.14 3399,-131.8 3399,-131.8 3399,-131.8 2105.86,-131.8 2105.86,-131.8"/>
<polygon fill="black" stroke="black" points="2105.86,-128.3 2095.86,-131.8 2105.86,-135.3 2105.86,-128.3"/>
</g>
<!-- FabricatorTableSidenavComponent -->
<g id="node7" class="node">
<title>FabricatorTableSidenavComponent</title>
<polygon fill="#ffffb3" stroke="black" points="3277.84,-84.8 3062.16,-84.8 3062.16,-48.8 3277.84,-48.8 3277.84,-84.8"/>
<text text-anchor="middle" x="3170" y="-62.6" font-family="Times,serif" font-size="14.00">FabricatorTableSidenavComponent</text>
</g>
<!-- FabricatorTableSidenavComponent&#45;&gt;CrudsModule -->
<g id="edge7" class="edge">
<title>FabricatorTableSidenavComponent&#45;&gt;CrudsModule</title>
<path fill="none" stroke="black" d="M3170,-85.02C3170,-103.63 3170,-129.8 3170,-129.8 3170,-129.8 2105.74,-129.8 2105.74,-129.8"/>
<polygon fill="black" stroke="black" points="2105.74,-126.3 2095.74,-129.8 2105.74,-133.3 2105.74,-126.3"/>
</g>
<!-- FinancialDealerComponent -->
<g id="node8" class="node">
<title>FinancialDealerComponent</title>
<polygon fill="#ffffb3" stroke="black" points="3044.23,-84.8 2873.77,-84.8 2873.77,-48.8 3044.23,-48.8 3044.23,-84.8"/>
<text text-anchor="middle" x="2959" y="-62.6" font-family="Times,serif" font-size="14.00">FinancialDealerComponent</text>
</g>
<!-- FinancialDealerComponent&#45;&gt;CrudsModule -->
<g id="edge8" class="edge">
<title>FinancialDealerComponent&#45;&gt;CrudsModule</title>
<path fill="none" stroke="black" d="M2959,-84.82C2959,-102.17 2959,-125.8 2959,-125.8 2959,-125.8 2105.69,-125.8 2105.69,-125.8"/>
<polygon fill="black" stroke="black" points="2105.69,-122.3 2095.69,-125.8 2105.69,-129.3 2105.69,-122.3"/>
</g>
<!-- FinancialTableComponent -->
<g id="node9" class="node">
<title>FinancialTableComponent</title>
<polygon fill="#ffffb3" stroke="black" points="2855.8,-84.8 2690.2,-84.8 2690.2,-48.8 2855.8,-48.8 2855.8,-84.8"/>
<text text-anchor="middle" x="2773" y="-62.6" font-family="Times,serif" font-size="14.00">FinancialTableComponent</text>
</g>
<!-- FinancialTableComponent&#45;&gt;CrudsModule -->
<g id="edge9" class="edge">
<title>FinancialTableComponent&#45;&gt;CrudsModule</title>
<path fill="none" stroke="black" d="M2773,-84.83C2773,-101.2 2773,-122.8 2773,-122.8 2773,-122.8 2105.67,-122.8 2105.67,-122.8"/>
<polygon fill="black" stroke="black" points="2105.67,-119.3 2095.67,-122.8 2105.67,-126.3 2105.67,-119.3"/>
</g>
<!-- FinancialTablePopupComponent -->
<g id="node10" class="node">
<title>FinancialTablePopupComponent</title>
<polygon fill="#ffffb3" stroke="black" points="2672.58,-84.8 2471.42,-84.8 2471.42,-48.8 2672.58,-48.8 2672.58,-84.8"/>
<text text-anchor="middle" x="2572" y="-62.6" font-family="Times,serif" font-size="14.00">FinancialTablePopupComponent</text>
</g>
<!-- FinancialTablePopupComponent&#45;&gt;CrudsModule -->
<g id="edge10" class="edge">
<title>FinancialTablePopupComponent&#45;&gt;CrudsModule</title>
<path fill="none" stroke="black" d="M2572,-85.04C2572,-100.37 2572,-119.8 2572,-119.8 2572,-119.8 2105.87,-119.8 2105.87,-119.8"/>
<polygon fill="black" stroke="black" points="2105.87,-116.3 2095.87,-119.8 2105.87,-123.3 2105.87,-116.3"/>
</g>
<!-- FinancialTableSidenavComponent -->
<g id="node11" class="node">
<title>FinancialTableSidenavComponent</title>
<polygon fill="#ffffb3" stroke="black" points="2453.4,-84.8 2242.6,-84.8 2242.6,-48.8 2453.4,-48.8 2453.4,-84.8"/>
<text text-anchor="middle" x="2348" y="-62.6" font-family="Times,serif" font-size="14.00">FinancialTableSidenavComponent</text>
</g>
<!-- FinancialTableSidenavComponent&#45;&gt;CrudsModule -->
<g id="edge11" class="edge">
<title>FinancialTableSidenavComponent&#45;&gt;CrudsModule</title>
<path fill="none" stroke="black" d="M2348,-84.85C2348,-99.17 2348,-116.8 2348,-116.8 2348,-116.8 2105.72,-116.8 2105.72,-116.8"/>
<polygon fill="black" stroke="black" points="2105.72,-113.3 2095.72,-116.8 2105.72,-120.3 2105.72,-113.3"/>
</g>
<!-- NgxTablePopupComponent -->
<g id="node12" class="node">
<title>NgxTablePopupComponent</title>
<polygon fill="#ffffb3" stroke="black" points="2224.6,-84.8 2051.4,-84.8 2051.4,-48.8 2224.6,-48.8 2224.6,-84.8"/>
<text text-anchor="middle" x="2138" y="-62.6" font-family="Times,serif" font-size="14.00">NgxTablePopupComponent</text>
</g>
<!-- NgxTablePopupComponent&#45;&gt;CrudsModule -->
<g id="edge12" class="edge">
<title>NgxTablePopupComponent&#45;&gt;CrudsModule</title>
<path fill="none" stroke="black" d="M2073.48,-84.91C2073.48,-84.91 2073.48,-103.79 2073.48,-103.79"/>
<polygon fill="black" stroke="black" points="2069.98,-103.79 2073.48,-113.79 2076.98,-103.79 2069.98,-103.79"/>
</g>
<!-- OrderTableComponent -->
<g id="node13" class="node">
<title>OrderTableComponent</title>
<polygon fill="#ffffb3" stroke="black" points="2033.85,-84.8 1888.15,-84.8 1888.15,-48.8 2033.85,-48.8 2033.85,-84.8"/>
<text text-anchor="middle" x="1961" y="-62.6" font-family="Times,serif" font-size="14.00">OrderTableComponent</text>
</g>
<!-- OrderTableComponent&#45;&gt;CrudsModule -->
<g id="edge13" class="edge">
<title>OrderTableComponent&#45;&gt;CrudsModule</title>
<path fill="none" stroke="black" d="M2018.21,-84.91C2018.21,-84.91 2018.21,-103.79 2018.21,-103.79"/>
<polygon fill="black" stroke="black" points="2014.71,-103.79 2018.21,-113.79 2021.71,-103.79 2014.71,-103.79"/>
</g>
<!-- OrderTablePopupComponent -->
<g id="node14" class="node">
<title>OrderTablePopupComponent</title>
<polygon fill="#ffffb3" stroke="black" points="1869.64,-84.8 1688.36,-84.8 1688.36,-48.8 1869.64,-48.8 1869.64,-84.8"/>
<text text-anchor="middle" x="1779" y="-62.6" font-family="Times,serif" font-size="14.00">OrderTablePopupComponent</text>
</g>
<!-- OrderTablePopupComponent&#45;&gt;CrudsModule -->
<g id="edge14" class="edge">
<title>OrderTablePopupComponent&#45;&gt;CrudsModule</title>
<path fill="none" stroke="black" d="M1779,-84.85C1779,-99.17 1779,-116.8 1779,-116.8 1779,-116.8 1992.28,-116.8 1992.28,-116.8"/>
<polygon fill="black" stroke="black" points="1992.28,-120.3 2002.28,-116.8 1992.28,-113.3 1992.28,-120.3"/>
</g>
<!-- OrderTableSidenavComponent -->
<g id="node15" class="node">
<title>OrderTableSidenavComponent</title>
<polygon fill="#ffffb3" stroke="black" points="1670.45,-84.8 1479.55,-84.8 1479.55,-48.8 1670.45,-48.8 1670.45,-84.8"/>
<text text-anchor="middle" x="1575" y="-62.6" font-family="Times,serif" font-size="14.00">OrderTableSidenavComponent</text>
</g>
<!-- OrderTableSidenavComponent&#45;&gt;CrudsModule -->
<g id="edge15" class="edge">
<title>OrderTableSidenavComponent&#45;&gt;CrudsModule</title>
<path fill="none" stroke="black" d="M1575,-85.04C1575,-100.37 1575,-119.8 1575,-119.8 1575,-119.8 1992.25,-119.8 1992.25,-119.8"/>
<polygon fill="black" stroke="black" points="1992.25,-123.3 2002.25,-119.8 1992.25,-116.3 1992.25,-123.3"/>
</g>
<!-- UserTableComponent -->
<g id="node16" class="node">
<title>UserTableComponent</title>
<polygon fill="#ffffb3" stroke="black" points="1461.64,-84.8 1322.36,-84.8 1322.36,-48.8 1461.64,-48.8 1461.64,-84.8"/>
<text text-anchor="middle" x="1392" y="-62.6" font-family="Times,serif" font-size="14.00">UserTableComponent</text>
</g>
<!-- UserTableComponent&#45;&gt;CrudsModule -->
<g id="edge16" class="edge">
<title>UserTableComponent&#45;&gt;CrudsModule</title>
<path fill="none" stroke="black" d="M1392,-84.83C1392,-101.2 1392,-122.8 1392,-122.8 1392,-122.8 1992.28,-122.8 1992.28,-122.8"/>
<polygon fill="black" stroke="black" points="1992.28,-126.3 2002.28,-122.8 1992.28,-119.3 1992.28,-126.3"/>
</g>
<!-- UserTablePopupComponent -->
<g id="node17" class="node">
<title>UserTablePopupComponent</title>
<polygon fill="#ffffb3" stroke="black" points="1303.92,-84.8 1128.08,-84.8 1128.08,-48.8 1303.92,-48.8 1303.92,-84.8"/>
<text text-anchor="middle" x="1216" y="-62.6" font-family="Times,serif" font-size="14.00">UserTablePopupComponent</text>
</g>
<!-- UserTablePopupComponent&#45;&gt;CrudsModule -->
<g id="edge17" class="edge">
<title>UserTablePopupComponent&#45;&gt;CrudsModule</title>
<path fill="none" stroke="black" d="M1216,-84.82C1216,-102.17 1216,-125.8 1216,-125.8 1216,-125.8 1992.43,-125.8 1992.43,-125.8"/>
<polygon fill="black" stroke="black" points="1992.43,-129.3 2002.43,-125.8 1992.43,-122.3 1992.43,-129.3"/>
</g>
<!-- UserTableSidenavComponent -->
<g id="node18" class="node">
<title>UserTableSidenavComponent</title>
<polygon fill="#ffffb3" stroke="black" points="1110.24,-84.8 925.76,-84.8 925.76,-48.8 1110.24,-48.8 1110.24,-84.8"/>
<text text-anchor="middle" x="1018" y="-62.6" font-family="Times,serif" font-size="14.00">UserTableSidenavComponent</text>
</g>
<!-- UserTableSidenavComponent&#45;&gt;CrudsModule -->
<g id="edge18" class="edge">
<title>UserTableSidenavComponent&#45;&gt;CrudsModule</title>
<path fill="none" stroke="black" d="M1018,-85.02C1018,-103.63 1018,-129.8 1018,-129.8 1018,-129.8 1992.36,-129.8 1992.36,-129.8"/>
<polygon fill="black" stroke="black" points="1992.36,-133.3 2002.36,-129.8 1992.36,-126.3 1992.36,-133.3"/>
</g>
<!-- SharedModule -->
<g id="node20" class="node">
<title>SharedModule</title>
<polygon fill="#8dd3c7" stroke="black" points="902.43,-84.8 899.43,-88.8 878.43,-88.8 875.43,-84.8 803.57,-84.8 803.57,-48.8 902.43,-48.8 902.43,-84.8"/>
<text text-anchor="middle" x="853" y="-62.6" font-family="Times,serif" font-size="14.00">SharedModule</text>
</g>
<!-- SharedModule&#45;&gt;CrudsModule -->
<g id="edge19" class="edge">
<title>SharedModule&#45;&gt;CrudsModule</title>
<path fill="none" stroke="black" d="M853,-84.91C853,-104.14 853,-131.8 853,-131.8 853,-131.8 1992.48,-131.8 1992.48,-131.8"/>
<polygon fill="black" stroke="black" points="1992.48,-135.3 2002.48,-131.8 1992.48,-128.3 1992.48,-135.3"/>
</g>
<!-- CrudService -->
<g id="node21" class="node">
<title>CrudService</title>
<ellipse fill="#fdb462" stroke="black" cx="721" cy="-66.8" rx="59.11" ry="18"/>
<text text-anchor="middle" x="721" y="-62.6" font-family="Times,serif" font-size="14.00">CrudService</text>
</g>
<!-- CrudService&#45;&gt;CrudsModule -->
<g id="edge20" class="edge">
<title>CrudService&#45;&gt;CrudsModule</title>
<path fill="none" stroke="black" d="M721,-85.02C721,-105.17 721,-134.8 721,-134.8 721,-134.8 1992.13,-134.8 1992.13,-134.8"/>
<polygon fill="black" stroke="black" points="1992.13,-138.3 2002.13,-134.8 1992.13,-131.3 1992.13,-138.3"/>
</g>
<!-- DealerService -->
<g id="node22" class="node">
<title>DealerService</title>
<ellipse fill="#fdb462" stroke="black" cx="578" cy="-66.8" rx="65.95" ry="18"/>
<text text-anchor="middle" x="578" y="-62.6" font-family="Times,serif" font-size="14.00">DealerService</text>
</g>
<!-- DealerService&#45;&gt;CrudsModule -->
<g id="edge21" class="edge">
<title>DealerService&#45;&gt;CrudsModule</title>
<path fill="none" stroke="black" d="M578,-85.08C578,-106.12 578,-137.8 578,-137.8 578,-137.8 1992.14,-137.8 1992.14,-137.8"/>
<polygon fill="black" stroke="black" points="1992.14,-141.3 2002.14,-137.8 1992.14,-134.3 1992.14,-141.3"/>
</g>
<!-- FabricatorService -->
<g id="node23" class="node">
<title>FabricatorService</title>
<ellipse fill="#fdb462" stroke="black" cx="415" cy="-66.8" rx="79.85" ry="18"/>
<text text-anchor="middle" x="415" y="-62.6" font-family="Times,serif" font-size="14.00">FabricatorService</text>
</g>
<!-- FabricatorService&#45;&gt;CrudsModule -->
<g id="edge22" class="edge">
<title>FabricatorService&#45;&gt;CrudsModule</title>
<path fill="none" stroke="black" d="M415,-85.09C415,-107.01 415,-140.8 415,-140.8 415,-140.8 1992.3,-140.8 1992.3,-140.8"/>
<polygon fill="black" stroke="black" points="1992.3,-144.3 2002.3,-140.8 1992.3,-137.3 1992.3,-144.3"/>
</g>
<!-- OrderService -->
<g id="node24" class="node">
<title>OrderService</title>
<ellipse fill="#fdb462" stroke="black" cx="255" cy="-66.8" rx="62.53" ry="18"/>
<text text-anchor="middle" x="255" y="-62.6" font-family="Times,serif" font-size="14.00">OrderService</text>
</g>
<!-- OrderService&#45;&gt;CrudsModule -->
<g id="edge23" class="edge">
<title>OrderService&#45;&gt;CrudsModule</title>
<path fill="none" stroke="black" d="M255,-84.89C255,-107.93 255,-144.8 255,-144.8 255,-144.8 1992.39,-144.8 1992.39,-144.8"/>
<polygon fill="black" stroke="black" points="1992.39,-148.3 2002.39,-144.8 1992.39,-141.3 1992.39,-148.3"/>
</g>
<!-- SRSUserService -->
<g id="node25" class="node">
<title>SRSUserService</title>
<ellipse fill="#fdb462" stroke="black" cx="99" cy="-66.8" rx="75.32" ry="18"/>
<text text-anchor="middle" x="99" y="-62.6" font-family="Times,serif" font-size="14.00">SRSUserService</text>
</g>
<!-- SRSUserService&#45;&gt;CrudsModule -->
<g id="edge24" class="edge">
<title>SRSUserService&#45;&gt;CrudsModule</title>
<path fill="none" stroke="black" d="M99,-84.95C99,-108.56 99,-146.8 99,-146.8 99,-146.8 1992.24,-146.8 1992.24,-146.8"/>
<polygon fill="black" stroke="black" points="1992.24,-150.3 2002.24,-146.8 1992.24,-143.3 1992.24,-150.3"/>
</g>
</g>
</svg>
