<?xml version="1.0" encoding="UTF-8" standalone="no"?>
<!DOCTYPE svg PUBLIC "-//W3C//DTD SVG 1.1//EN"
 "http://www.w3.org/Graphics/SVG/1.1/DTD/svg11.dtd">
<!-- Generated by graphviz version 5.0.0 (20220707.1540)
 -->
<!-- Title: dependencies Pages: 1 -->
<svg width="438pt" height="247pt"
 viewBox="0.00 0.00 438.00 246.80" xmlns="http://www.w3.org/2000/svg" xmlns:xlink="http://www.w3.org/1999/xlink">
<g id="graph0" class="graph" transform="scale(1 1) rotate(0) translate(4 242.8)">
<title>dependencies</title>
<polygon fill="white" stroke="transparent" points="-4,4 -4,-242.8 434,-242.8 434,4 -4,4"/>
<text text-anchor="middle" x="215" y="-8.2" font-family="sans-serif" font-size="14.00">dependencies</text>
<g id="clust1" class="cluster">
<title>cluster_SharedPipesModule</title>
<polygon fill="none" stroke="black" stroke-dasharray="1,5" points="8,-32.8 8,-230.8 422,-230.8 422,-32.8 8,-32.8"/>
</g>
<g id="clust7" class="cluster">
<title>cluster_SharedPipesModule_exports</title>
<polygon fill="none" stroke="black" points="16,-170.8 16,-222.8 414,-222.8 414,-170.8 16,-170.8"/>
</g>
<g id="clust2" class="cluster">
<title>cluster_SharedPipesModule_declarations</title>
<polygon fill="none" stroke="black" points="20,-40.8 20,-92.8 408,-92.8 408,-40.8 20,-40.8"/>
</g>
<!-- ExcerptPipe -->
<g id="node1" class="node">
<title>ExcerptPipe</title>
<polygon fill="#ffffb3" stroke="black" points="400.42,-84.8 315.58,-84.8 315.58,-48.8 400.42,-48.8 400.42,-84.8"/>
<text text-anchor="middle" x="358" y="-62.6" font-family="Times,serif" font-size="14.00">ExcerptPipe</text>
</g>
<!-- SharedPipesModule -->
<g id="node4" class="node">
<title>SharedPipesModule</title>
<polygon fill="#8dd3c7" stroke="black" points="295.27,-149.8 292.27,-153.8 271.27,-153.8 268.27,-149.8 166.73,-149.8 166.73,-113.8 295.27,-113.8 295.27,-149.8"/>
<text text-anchor="middle" x="231" y="-127.6" font-family="Times,serif" font-size="14.00">SharedPipesModule</text>
</g>
<!-- ExcerptPipe&#45;&gt;SharedPipesModule -->
<g id="edge1" class="edge">
<title>ExcerptPipe&#45;&gt;SharedPipesModule</title>
<path fill="none" stroke="black" d="M372.82,-84.82C372.82,-102.17 372.82,-125.8 372.82,-125.8 372.82,-125.8 305.27,-125.8 305.27,-125.8"/>
<polygon fill="black" stroke="black" points="305.27,-122.3 295.27,-125.8 305.27,-129.3 305.27,-122.3"/>
</g>
<!-- GetValueByKeyPipe -->
<g id="node2" class="node">
<title>GetValueByKeyPipe</title>
<polygon fill="#ffffb3" stroke="black" points="298.19,-84.8 163.81,-84.8 163.81,-48.8 298.19,-48.8 298.19,-84.8"/>
<text text-anchor="middle" x="231" y="-62.6" font-family="Times,serif" font-size="14.00">GetValueByKeyPipe</text>
</g>
<!-- GetValueByKeyPipe&#45;&gt;SharedPipesModule -->
<g id="edge2" class="edge">
<title>GetValueByKeyPipe&#45;&gt;SharedPipesModule</title>
<path fill="none" stroke="black" d="M231,-84.91C231,-84.91 231,-103.79 231,-103.79"/>
<polygon fill="black" stroke="black" points="227.5,-103.79 231,-113.79 234.5,-103.79 227.5,-103.79"/>
</g>
<!-- RelativeTimePipe -->
<g id="node3" class="node">
<title>RelativeTimePipe</title>
<polygon fill="#ffffb3" stroke="black" points="145.58,-84.8 28.42,-84.8 28.42,-48.8 145.58,-48.8 145.58,-84.8"/>
<text text-anchor="middle" x="87" y="-62.6" font-family="Times,serif" font-size="14.00">RelativeTimePipe</text>
</g>
<!-- RelativeTimePipe&#45;&gt;SharedPipesModule -->
<g id="edge3" class="edge">
<title>RelativeTimePipe&#45;&gt;SharedPipesModule</title>
<path fill="none" stroke="black" d="M105.68,-84.82C105.68,-102.17 105.68,-125.8 105.68,-125.8 105.68,-125.8 156.5,-125.8 156.5,-125.8"/>
<polygon fill="black" stroke="black" points="156.5,-129.3 166.5,-125.8 156.5,-122.3 156.5,-129.3"/>
</g>
<!-- ExcerptPipe  -->
<g id="node5" class="node">
<title>ExcerptPipe </title>
<polygon fill="#fb8072" stroke="black" points="405.92,-214.8 318.08,-214.8 318.08,-178.8 405.92,-178.8 405.92,-214.8"/>
<text text-anchor="middle" x="362" y="-192.6" font-family="Times,serif" font-size="14.00">ExcerptPipe </text>
</g>
<!-- SharedPipesModule&#45;&gt;ExcerptPipe  -->
<g id="edge4" class="edge">
<title>SharedPipesModule&#45;&gt;ExcerptPipe </title>
<path fill="none" stroke="black" stroke-dasharray="5,2" d="M295.57,-137.8C321.53,-137.8 345.43,-137.8 345.43,-137.8 345.43,-137.8 345.43,-168.78 345.43,-168.78"/>
<polygon fill="black" stroke="black" points="341.93,-168.78 345.43,-178.78 348.93,-168.78 341.93,-168.78"/>
</g>
<!-- GetValueByKeyPipe  -->
<g id="node6" class="node">
<title>GetValueByKeyPipe </title>
<polygon fill="#fb8072" stroke="black" points="299.69,-214.8 162.31,-214.8 162.31,-178.8 299.69,-178.8 299.69,-214.8"/>
<text text-anchor="middle" x="231" y="-192.6" font-family="Times,serif" font-size="14.00">GetValueByKeyPipe </text>
</g>
<!-- SharedPipesModule&#45;&gt;GetValueByKeyPipe  -->
<g id="edge5" class="edge">
<title>SharedPipesModule&#45;&gt;GetValueByKeyPipe </title>
<path fill="none" stroke="black" stroke-dasharray="5,2" d="M231,-149.91C231,-149.91 231,-168.79 231,-168.79"/>
<polygon fill="black" stroke="black" points="227.5,-168.79 231,-178.79 234.5,-168.79 227.5,-168.79"/>
</g>
<!-- RelativeTimePipe  -->
<g id="node7" class="node">
<title>RelativeTimePipe </title>
<polygon fill="#fb8072" stroke="black" points="144.08,-214.8 23.92,-214.8 23.92,-178.8 144.08,-178.8 144.08,-214.8"/>
<text text-anchor="middle" x="84" y="-192.6" font-family="Times,serif" font-size="14.00">RelativeTimePipe </text>
</g>
<!-- SharedPipesModule&#45;&gt;RelativeTimePipe  -->
<g id="edge6" class="edge">
<title>SharedPipesModule&#45;&gt;RelativeTimePipe </title>
<path fill="none" stroke="black" stroke-dasharray="5,2" d="M166.68,-137.8C120.75,-137.8 67.07,-137.8 67.07,-137.8 67.07,-137.8 67.07,-168.78 67.07,-168.78"/>
<polygon fill="black" stroke="black" points="63.57,-168.78 67.07,-178.78 70.57,-168.78 63.57,-168.78"/>
</g>
</g>
</svg>
